%TF.GenerationSoftware,KiCad,Pcbnew,(7.0.0)*%
%TF.CreationDate,2024-06-17T14:15:37-04:00*%
%TF.ProjectId,Connector Bit,436f6e6e-6563-4746-9f72-204269742e6b,rev?*%
%TF.SameCoordinates,PX5f5e100PY6de6c40*%
%TF.FileFunction,Legend,Top*%
%TF.FilePolarity,Positive*%
%FSLAX46Y46*%
G04 Gerber Fmt 4.6, Leading zero omitted, Abs format (unit mm)*
G04 Created by KiCad (PCBNEW (7.0.0)) date 2024-06-17 14:15:37*
%MOMM*%
%LPD*%
G01*
G04 APERTURE LIST*
%ADD10C,0.254000*%
%ADD11C,0.150000*%
%ADD12C,0.100000*%
%ADD13C,0.200000*%
%ADD14C,0.120000*%
%TA.AperFunction,Profile*%
%ADD15C,0.025400*%
%TD*%
G04 APERTURE END LIST*
D10*
%TO.C,J1*%
X12658373Y9381268D02*
X13565516Y9381268D01*
X13565516Y9381268D02*
X13746945Y9320791D01*
X13746945Y9320791D02*
X13867897Y9199839D01*
X13867897Y9199839D02*
X13928373Y9018410D01*
X13928373Y9018410D02*
X13928373Y8897458D01*
X13928373Y10651268D02*
X13928373Y9925553D01*
X13928373Y10288410D02*
X12658373Y10288410D01*
X12658373Y10288410D02*
X12839802Y10167458D01*
X12839802Y10167458D02*
X12960754Y10046506D01*
X12960754Y10046506D02*
X13021230Y9925553D01*
D11*
%TO.C,ToPowerPack1*%
X389714Y16872620D02*
X961142Y16872620D01*
X675428Y15872620D02*
X675428Y16872620D01*
X1437333Y15872620D02*
X1342095Y15920239D01*
X1342095Y15920239D02*
X1294476Y15967858D01*
X1294476Y15967858D02*
X1246857Y16063096D01*
X1246857Y16063096D02*
X1246857Y16348810D01*
X1246857Y16348810D02*
X1294476Y16444048D01*
X1294476Y16444048D02*
X1342095Y16491667D01*
X1342095Y16491667D02*
X1437333Y16539286D01*
X1437333Y16539286D02*
X1580190Y16539286D01*
X1580190Y16539286D02*
X1675428Y16491667D01*
X1675428Y16491667D02*
X1723047Y16444048D01*
X1723047Y16444048D02*
X1770666Y16348810D01*
X1770666Y16348810D02*
X1770666Y16063096D01*
X1770666Y16063096D02*
X1723047Y15967858D01*
X1723047Y15967858D02*
X1675428Y15920239D01*
X1675428Y15920239D02*
X1580190Y15872620D01*
X1580190Y15872620D02*
X1437333Y15872620D01*
X2199238Y15872620D02*
X2199238Y16872620D01*
X2199238Y16872620D02*
X2580190Y16872620D01*
X2580190Y16872620D02*
X2675428Y16825000D01*
X2675428Y16825000D02*
X2723047Y16777381D01*
X2723047Y16777381D02*
X2770666Y16682143D01*
X2770666Y16682143D02*
X2770666Y16539286D01*
X2770666Y16539286D02*
X2723047Y16444048D01*
X2723047Y16444048D02*
X2675428Y16396429D01*
X2675428Y16396429D02*
X2580190Y16348810D01*
X2580190Y16348810D02*
X2199238Y16348810D01*
X3342095Y15872620D02*
X3246857Y15920239D01*
X3246857Y15920239D02*
X3199238Y15967858D01*
X3199238Y15967858D02*
X3151619Y16063096D01*
X3151619Y16063096D02*
X3151619Y16348810D01*
X3151619Y16348810D02*
X3199238Y16444048D01*
X3199238Y16444048D02*
X3246857Y16491667D01*
X3246857Y16491667D02*
X3342095Y16539286D01*
X3342095Y16539286D02*
X3484952Y16539286D01*
X3484952Y16539286D02*
X3580190Y16491667D01*
X3580190Y16491667D02*
X3627809Y16444048D01*
X3627809Y16444048D02*
X3675428Y16348810D01*
X3675428Y16348810D02*
X3675428Y16063096D01*
X3675428Y16063096D02*
X3627809Y15967858D01*
X3627809Y15967858D02*
X3580190Y15920239D01*
X3580190Y15920239D02*
X3484952Y15872620D01*
X3484952Y15872620D02*
X3342095Y15872620D01*
X4008762Y16539286D02*
X4199238Y15872620D01*
X4199238Y15872620D02*
X4389714Y16348810D01*
X4389714Y16348810D02*
X4580190Y15872620D01*
X4580190Y15872620D02*
X4770666Y16539286D01*
X5532571Y15920239D02*
X5437333Y15872620D01*
X5437333Y15872620D02*
X5246857Y15872620D01*
X5246857Y15872620D02*
X5151619Y15920239D01*
X5151619Y15920239D02*
X5104000Y16015477D01*
X5104000Y16015477D02*
X5104000Y16396429D01*
X5104000Y16396429D02*
X5151619Y16491667D01*
X5151619Y16491667D02*
X5246857Y16539286D01*
X5246857Y16539286D02*
X5437333Y16539286D01*
X5437333Y16539286D02*
X5532571Y16491667D01*
X5532571Y16491667D02*
X5580190Y16396429D01*
X5580190Y16396429D02*
X5580190Y16301191D01*
X5580190Y16301191D02*
X5104000Y16205953D01*
X6008762Y15872620D02*
X6008762Y16539286D01*
X6008762Y16348810D02*
X6056381Y16444048D01*
X6056381Y16444048D02*
X6104000Y16491667D01*
X6104000Y16491667D02*
X6199238Y16539286D01*
X6199238Y16539286D02*
X6294476Y16539286D01*
X6627810Y15872620D02*
X6627810Y16872620D01*
X6627810Y16872620D02*
X7008762Y16872620D01*
X7008762Y16872620D02*
X7104000Y16825000D01*
X7104000Y16825000D02*
X7151619Y16777381D01*
X7151619Y16777381D02*
X7199238Y16682143D01*
X7199238Y16682143D02*
X7199238Y16539286D01*
X7199238Y16539286D02*
X7151619Y16444048D01*
X7151619Y16444048D02*
X7104000Y16396429D01*
X7104000Y16396429D02*
X7008762Y16348810D01*
X7008762Y16348810D02*
X6627810Y16348810D01*
X8056381Y15872620D02*
X8056381Y16396429D01*
X8056381Y16396429D02*
X8008762Y16491667D01*
X8008762Y16491667D02*
X7913524Y16539286D01*
X7913524Y16539286D02*
X7723048Y16539286D01*
X7723048Y16539286D02*
X7627810Y16491667D01*
X8056381Y15920239D02*
X7961143Y15872620D01*
X7961143Y15872620D02*
X7723048Y15872620D01*
X7723048Y15872620D02*
X7627810Y15920239D01*
X7627810Y15920239D02*
X7580191Y16015477D01*
X7580191Y16015477D02*
X7580191Y16110715D01*
X7580191Y16110715D02*
X7627810Y16205953D01*
X7627810Y16205953D02*
X7723048Y16253572D01*
X7723048Y16253572D02*
X7961143Y16253572D01*
X7961143Y16253572D02*
X8056381Y16301191D01*
X8961143Y15920239D02*
X8865905Y15872620D01*
X8865905Y15872620D02*
X8675429Y15872620D01*
X8675429Y15872620D02*
X8580191Y15920239D01*
X8580191Y15920239D02*
X8532572Y15967858D01*
X8532572Y15967858D02*
X8484953Y16063096D01*
X8484953Y16063096D02*
X8484953Y16348810D01*
X8484953Y16348810D02*
X8532572Y16444048D01*
X8532572Y16444048D02*
X8580191Y16491667D01*
X8580191Y16491667D02*
X8675429Y16539286D01*
X8675429Y16539286D02*
X8865905Y16539286D01*
X8865905Y16539286D02*
X8961143Y16491667D01*
X9389715Y15872620D02*
X9389715Y16872620D01*
X9484953Y16253572D02*
X9770667Y15872620D01*
X9770667Y16539286D02*
X9389715Y16158334D01*
X10723048Y15872620D02*
X10151620Y15872620D01*
X10437334Y15872620D02*
X10437334Y16872620D01*
X10437334Y16872620D02*
X10342096Y16729762D01*
X10342096Y16729762D02*
X10246858Y16634524D01*
X10246858Y16634524D02*
X10151620Y16586905D01*
D12*
%TO.C,J1*%
X14284000Y4420000D02*
X14284000Y10720000D01*
X19184000Y4420000D02*
X14284000Y4420000D01*
X14284000Y10720000D02*
X19184000Y10720000D01*
X19184000Y10720000D02*
X19184000Y4420000D01*
D13*
X19609000Y9520000D02*
G75*
G03*
X19609000Y9520000I-50000J0D01*
G01*
D14*
%TO.C,ToPowerPack1*%
X-51000Y15240000D02*
X1219000Y15240000D01*
X-51000Y13970000D02*
X-51000Y15240000D01*
X2261929Y11810000D02*
X2659000Y11810000D01*
X2261929Y11050000D02*
X2659000Y11050000D01*
X2261929Y9270000D02*
X2659000Y9270000D01*
X2261929Y8510000D02*
X2659000Y8510000D01*
X2261929Y6730000D02*
X2659000Y6730000D01*
X2261929Y5970000D02*
X2659000Y5970000D01*
X2261929Y4190000D02*
X2659000Y4190000D01*
X2261929Y3430000D02*
X2659000Y3430000D01*
X2261929Y1650000D02*
X2659000Y1650000D01*
X2261929Y890000D02*
X2659000Y890000D01*
X2329000Y14350000D02*
X2659000Y14350000D01*
X2329000Y13590000D02*
X2659000Y13590000D01*
X2659000Y15300000D02*
X2659000Y-60000D01*
X2659000Y12700000D02*
X5319000Y12700000D01*
X2659000Y10160000D02*
X5319000Y10160000D01*
X2659000Y7620000D02*
X5319000Y7620000D01*
X2659000Y5080000D02*
X5319000Y5080000D01*
X2659000Y2540000D02*
X5319000Y2540000D01*
X2659000Y-60000D02*
X5319000Y-60000D01*
X5319000Y15300000D02*
X2659000Y15300000D01*
X5319000Y14350000D02*
X11319000Y14350000D01*
X5319000Y14290000D02*
X11319000Y14290000D01*
X5319000Y14170000D02*
X11319000Y14170000D01*
X5319000Y14050000D02*
X11319000Y14050000D01*
X5319000Y13930000D02*
X11319000Y13930000D01*
X5319000Y13810000D02*
X11319000Y13810000D01*
X5319000Y13690000D02*
X11319000Y13690000D01*
X5319000Y11810000D02*
X11319000Y11810000D01*
X5319000Y9270000D02*
X11319000Y9270000D01*
X5319000Y6730000D02*
X11319000Y6730000D01*
X5319000Y4190000D02*
X11319000Y4190000D01*
X5319000Y1650000D02*
X11319000Y1650000D01*
X5319000Y-60000D02*
X5319000Y15300000D01*
X11319000Y14350000D02*
X11319000Y13590000D01*
X11319000Y13590000D02*
X5319000Y13590000D01*
X11319000Y11810000D02*
X11319000Y11050000D01*
X11319000Y11050000D02*
X5319000Y11050000D01*
X11319000Y9270000D02*
X11319000Y8510000D01*
X11319000Y8510000D02*
X5319000Y8510000D01*
X11319000Y6730000D02*
X11319000Y5970000D01*
X11319000Y5970000D02*
X5319000Y5970000D01*
X11319000Y4190000D02*
X11319000Y3430000D01*
X11319000Y3430000D02*
X5319000Y3430000D01*
X11319000Y1650000D02*
X11319000Y890000D01*
X11319000Y890000D02*
X5319000Y890000D01*
%TD*%
D15*
X6350000Y15240000D02*
X6350000Y10795000D01*
X6350000Y10795000D02*
X19634000Y10795000D01*
X6350000Y0D02*
X6350000Y4445000D01*
X0Y15240000D02*
X0Y0D01*
X6350000Y4445000D02*
X19634000Y4445000D01*
X0Y15240000D02*
X6350000Y15240000D01*
X0Y0D02*
X6350000Y0D01*
X19634000Y10795000D02*
X19634000Y4445000D01*
M02*
