%TF.GenerationSoftware,KiCad,Pcbnew,(7.0.0)*%
%TF.CreationDate,2024-06-17T14:15:37-04:00*%
%TF.ProjectId,Connector Bit,436f6e6e-6563-4746-9f72-204269742e6b,rev?*%
%TF.SameCoordinates,PX5f5e100PY6de6c40*%
%TF.FileFunction,Legend,Bot*%
%TF.FilePolarity,Positive*%
%FSLAX46Y46*%
G04 Gerber Fmt 4.6, Leading zero omitted, Abs format (unit mm)*
G04 Created by KiCad (PCBNEW (7.0.0)) date 2024-06-17 14:15:37*
%MOMM*%
%LPD*%
G01*
G04 APERTURE LIST*
%ADD10C,0.300000*%
%TA.AperFunction,Profile*%
%ADD11C,0.025400*%
%TD*%
G04 APERTURE END LIST*
D10*
X8594342Y8523886D02*
X7994342Y7666743D01*
X7565771Y8523886D02*
X7565771Y6723886D01*
X7565771Y6723886D02*
X8251485Y6723886D01*
X8251485Y6723886D02*
X8422914Y6809600D01*
X8422914Y6809600D02*
X8508628Y6895315D01*
X8508628Y6895315D02*
X8594342Y7066743D01*
X8594342Y7066743D02*
X8594342Y7323886D01*
X8594342Y7323886D02*
X8508628Y7495315D01*
X8508628Y7495315D02*
X8422914Y7581029D01*
X8422914Y7581029D02*
X8251485Y7666743D01*
X8251485Y7666743D02*
X7565771Y7666743D01*
X9365771Y8523886D02*
X9365771Y6723886D01*
X11165771Y6809600D02*
X10994343Y6723886D01*
X10994343Y6723886D02*
X10737200Y6723886D01*
X10737200Y6723886D02*
X10480057Y6809600D01*
X10480057Y6809600D02*
X10308628Y6981029D01*
X10308628Y6981029D02*
X10222914Y7152458D01*
X10222914Y7152458D02*
X10137200Y7495315D01*
X10137200Y7495315D02*
X10137200Y7752458D01*
X10137200Y7752458D02*
X10222914Y8095315D01*
X10222914Y8095315D02*
X10308628Y8266743D01*
X10308628Y8266743D02*
X10480057Y8438172D01*
X10480057Y8438172D02*
X10737200Y8523886D01*
X10737200Y8523886D02*
X10908628Y8523886D01*
X10908628Y8523886D02*
X11165771Y8438172D01*
X11165771Y8438172D02*
X11251485Y8352458D01*
X11251485Y8352458D02*
X11251485Y7752458D01*
X11251485Y7752458D02*
X10908628Y7752458D01*
X12022914Y8523886D02*
X12022914Y6723886D01*
X12022914Y7581029D02*
X13051485Y7581029D01*
X13051485Y8523886D02*
X13051485Y6723886D01*
X13651485Y6723886D02*
X14680057Y6723886D01*
X14165771Y8523886D02*
X14165771Y6723886D01*
D11*
X6350000Y15240000D02*
X6350000Y10795000D01*
X6350000Y10795000D02*
X19634000Y10795000D01*
X6350000Y0D02*
X6350000Y4445000D01*
X0Y15240000D02*
X0Y0D01*
X6350000Y4445000D02*
X19634000Y4445000D01*
X0Y15240000D02*
X6350000Y15240000D01*
X0Y0D02*
X6350000Y0D01*
X19634000Y10795000D02*
X19634000Y4445000D01*
M02*
