%TF.GenerationSoftware,KiCad,Pcbnew,(7.0.0)*%
%TF.CreationDate,2024-06-17T14:15:40-04:00*%
%TF.ProjectId,Connector Bit,436f6e6e-6563-4746-9f72-204269742e6b,rev?*%
%TF.SameCoordinates,PX5f5e100PY6de6c40*%
%TF.FileFunction,Drillmap*%
%TF.FilePolarity,Positive*%
%FSLAX45Y45*%
G04 Gerber Fmt 4.5, Leading zero omitted, Abs format (unit mm)*
G04 Created by KiCad (PCBNEW (7.0.0)) date 2024-06-17 14:15:40*
%MOMM*%
%LPD*%
G01*
G04 APERTURE LIST*
%ADD10C,0.025400*%
%ADD11C,0.200000*%
%ADD12C,0.060000*%
%ADD13C,0.100000*%
G04 APERTURE END LIST*
D10*
X635000Y1524000D02*
X635000Y1079500D01*
X635000Y1079500D02*
X1963400Y1079500D01*
X635000Y0D02*
X635000Y444500D01*
X0Y1524000D02*
X0Y0D01*
X635000Y444500D02*
X1963400Y444500D01*
X0Y1524000D02*
X635000Y1524000D01*
X0Y0D02*
X635000Y0D01*
X1963400Y1079500D02*
X1963400Y444500D01*
D11*
D12*
X1580900Y912000D02*
X1640900Y852000D01*
X1640900Y912000D02*
X1580900Y852000D01*
X1580900Y787000D02*
X1640900Y727000D01*
X1640900Y787000D02*
X1580900Y727000D01*
X1580900Y662000D02*
X1640900Y602000D01*
X1640900Y662000D02*
X1580900Y602000D01*
X1705900Y912000D02*
X1765900Y852000D01*
X1765900Y912000D02*
X1705900Y852000D01*
X1705900Y787000D02*
X1765900Y727000D01*
X1765900Y787000D02*
X1705900Y727000D01*
X1705900Y662000D02*
X1765900Y602000D01*
X1765900Y662000D02*
X1705900Y602000D01*
D13*
X171900Y1397000D02*
G75*
G03*
X171900Y1397000I-50000J0D01*
G01*
X171900Y1143000D02*
G75*
G03*
X171900Y1143000I-50000J0D01*
G01*
X171900Y889000D02*
G75*
G03*
X171900Y889000I-50000J0D01*
G01*
X171900Y635000D02*
G75*
G03*
X171900Y635000I-50000J0D01*
G01*
X171900Y381000D02*
G75*
G03*
X171900Y381000I-50000J0D01*
G01*
X171900Y127000D02*
G75*
G03*
X171900Y127000I-50000J0D01*
G01*
D11*
X246349Y-294746D02*
X246349Y-94746D01*
X246349Y-94746D02*
X293968Y-94746D01*
X293968Y-94746D02*
X322540Y-104270D01*
X322540Y-104270D02*
X341587Y-123318D01*
X341587Y-123318D02*
X351111Y-142365D01*
X351111Y-142365D02*
X360635Y-180460D01*
X360635Y-180460D02*
X360635Y-209032D01*
X360635Y-209032D02*
X351111Y-247127D01*
X351111Y-247127D02*
X341587Y-266175D01*
X341587Y-266175D02*
X322540Y-285222D01*
X322540Y-285222D02*
X293968Y-294746D01*
X293968Y-294746D02*
X246349Y-294746D01*
X446349Y-294746D02*
X446349Y-161413D01*
X446349Y-199508D02*
X455873Y-180460D01*
X455873Y-180460D02*
X465397Y-170937D01*
X465397Y-170937D02*
X484444Y-161413D01*
X484444Y-161413D02*
X503492Y-161413D01*
X570159Y-294746D02*
X570159Y-161413D01*
X570159Y-94746D02*
X560635Y-104270D01*
X560635Y-104270D02*
X570159Y-113794D01*
X570159Y-113794D02*
X579682Y-104270D01*
X579682Y-104270D02*
X570159Y-94746D01*
X570159Y-94746D02*
X570159Y-113794D01*
X693968Y-294746D02*
X674920Y-285222D01*
X674920Y-285222D02*
X665397Y-266175D01*
X665397Y-266175D02*
X665397Y-94746D01*
X798730Y-294746D02*
X779682Y-285222D01*
X779682Y-285222D02*
X770158Y-266175D01*
X770158Y-266175D02*
X770158Y-94746D01*
X994920Y-294746D02*
X994920Y-94746D01*
X994920Y-94746D02*
X1061587Y-237603D01*
X1061587Y-237603D02*
X1128254Y-94746D01*
X1128254Y-94746D02*
X1128254Y-294746D01*
X1309206Y-294746D02*
X1309206Y-189984D01*
X1309206Y-189984D02*
X1299682Y-170937D01*
X1299682Y-170937D02*
X1280635Y-161413D01*
X1280635Y-161413D02*
X1242539Y-161413D01*
X1242539Y-161413D02*
X1223492Y-170937D01*
X1309206Y-285222D02*
X1290159Y-294746D01*
X1290159Y-294746D02*
X1242539Y-294746D01*
X1242539Y-294746D02*
X1223492Y-285222D01*
X1223492Y-285222D02*
X1213968Y-266175D01*
X1213968Y-266175D02*
X1213968Y-247127D01*
X1213968Y-247127D02*
X1223492Y-228079D01*
X1223492Y-228079D02*
X1242539Y-218556D01*
X1242539Y-218556D02*
X1290159Y-218556D01*
X1290159Y-218556D02*
X1309206Y-209032D01*
X1404444Y-161413D02*
X1404444Y-361413D01*
X1404444Y-170937D02*
X1423492Y-161413D01*
X1423492Y-161413D02*
X1461587Y-161413D01*
X1461587Y-161413D02*
X1480635Y-170937D01*
X1480635Y-170937D02*
X1490158Y-180460D01*
X1490158Y-180460D02*
X1499682Y-199508D01*
X1499682Y-199508D02*
X1499682Y-256651D01*
X1499682Y-256651D02*
X1490158Y-275699D01*
X1490158Y-275699D02*
X1480635Y-285222D01*
X1480635Y-285222D02*
X1461587Y-294746D01*
X1461587Y-294746D02*
X1423492Y-294746D01*
X1423492Y-294746D02*
X1404444Y-285222D01*
X1585397Y-275699D02*
X1594920Y-285222D01*
X1594920Y-285222D02*
X1585397Y-294746D01*
X1585397Y-294746D02*
X1575873Y-285222D01*
X1575873Y-285222D02*
X1585397Y-275699D01*
X1585397Y-275699D02*
X1585397Y-294746D01*
X1585397Y-170937D02*
X1594920Y-180460D01*
X1594920Y-180460D02*
X1585397Y-189984D01*
X1585397Y-189984D02*
X1575873Y-180460D01*
X1575873Y-180460D02*
X1585397Y-170937D01*
X1585397Y-170937D02*
X1585397Y-189984D01*
D12*
X-61270Y-611270D02*
X-1270Y-671270D01*
X-1270Y-611270D02*
X-61270Y-671270D01*
D11*
X284444Y-514746D02*
X303492Y-514746D01*
X303492Y-514746D02*
X322540Y-524270D01*
X322540Y-524270D02*
X332063Y-533794D01*
X332063Y-533794D02*
X341587Y-552841D01*
X341587Y-552841D02*
X351111Y-590937D01*
X351111Y-590937D02*
X351111Y-638556D01*
X351111Y-638556D02*
X341587Y-676651D01*
X341587Y-676651D02*
X332063Y-695699D01*
X332063Y-695699D02*
X322540Y-705222D01*
X322540Y-705222D02*
X303492Y-714746D01*
X303492Y-714746D02*
X284444Y-714746D01*
X284444Y-714746D02*
X265397Y-705222D01*
X265397Y-705222D02*
X255873Y-695699D01*
X255873Y-695699D02*
X246349Y-676651D01*
X246349Y-676651D02*
X236825Y-638556D01*
X236825Y-638556D02*
X236825Y-590937D01*
X236825Y-590937D02*
X246349Y-552841D01*
X246349Y-552841D02*
X255873Y-533794D01*
X255873Y-533794D02*
X265397Y-524270D01*
X265397Y-524270D02*
X284444Y-514746D01*
X436825Y-695699D02*
X446349Y-705222D01*
X446349Y-705222D02*
X436825Y-714746D01*
X436825Y-714746D02*
X427301Y-705222D01*
X427301Y-705222D02*
X436825Y-695699D01*
X436825Y-695699D02*
X436825Y-714746D01*
X617778Y-514746D02*
X579682Y-514746D01*
X579682Y-514746D02*
X560635Y-524270D01*
X560635Y-524270D02*
X551111Y-533794D01*
X551111Y-533794D02*
X532063Y-562365D01*
X532063Y-562365D02*
X522539Y-600460D01*
X522539Y-600460D02*
X522539Y-676651D01*
X522539Y-676651D02*
X532063Y-695699D01*
X532063Y-695699D02*
X541587Y-705222D01*
X541587Y-705222D02*
X560635Y-714746D01*
X560635Y-714746D02*
X598730Y-714746D01*
X598730Y-714746D02*
X617778Y-705222D01*
X617778Y-705222D02*
X627301Y-695699D01*
X627301Y-695699D02*
X636825Y-676651D01*
X636825Y-676651D02*
X636825Y-629032D01*
X636825Y-629032D02*
X627301Y-609984D01*
X627301Y-609984D02*
X617778Y-600460D01*
X617778Y-600460D02*
X598730Y-590937D01*
X598730Y-590937D02*
X560635Y-590937D01*
X560635Y-590937D02*
X541587Y-600460D01*
X541587Y-600460D02*
X532063Y-609984D01*
X532063Y-609984D02*
X522539Y-629032D01*
X760635Y-514746D02*
X779682Y-514746D01*
X779682Y-514746D02*
X798730Y-524270D01*
X798730Y-524270D02*
X808254Y-533794D01*
X808254Y-533794D02*
X817778Y-552841D01*
X817778Y-552841D02*
X827301Y-590937D01*
X827301Y-590937D02*
X827301Y-638556D01*
X827301Y-638556D02*
X817778Y-676651D01*
X817778Y-676651D02*
X808254Y-695699D01*
X808254Y-695699D02*
X798730Y-705222D01*
X798730Y-705222D02*
X779682Y-714746D01*
X779682Y-714746D02*
X760635Y-714746D01*
X760635Y-714746D02*
X741587Y-705222D01*
X741587Y-705222D02*
X732063Y-695699D01*
X732063Y-695699D02*
X722539Y-676651D01*
X722539Y-676651D02*
X713016Y-638556D01*
X713016Y-638556D02*
X713016Y-590937D01*
X713016Y-590937D02*
X722539Y-552841D01*
X722539Y-552841D02*
X732063Y-533794D01*
X732063Y-533794D02*
X741587Y-524270D01*
X741587Y-524270D02*
X760635Y-514746D01*
X951111Y-514746D02*
X970159Y-514746D01*
X970159Y-514746D02*
X989206Y-524270D01*
X989206Y-524270D02*
X998730Y-533794D01*
X998730Y-533794D02*
X1008254Y-552841D01*
X1008254Y-552841D02*
X1017778Y-590937D01*
X1017778Y-590937D02*
X1017778Y-638556D01*
X1017778Y-638556D02*
X1008254Y-676651D01*
X1008254Y-676651D02*
X998730Y-695699D01*
X998730Y-695699D02*
X989206Y-705222D01*
X989206Y-705222D02*
X970159Y-714746D01*
X970159Y-714746D02*
X951111Y-714746D01*
X951111Y-714746D02*
X932063Y-705222D01*
X932063Y-705222D02*
X922539Y-695699D01*
X922539Y-695699D02*
X913016Y-676651D01*
X913016Y-676651D02*
X903492Y-638556D01*
X903492Y-638556D02*
X903492Y-590937D01*
X903492Y-590937D02*
X913016Y-552841D01*
X913016Y-552841D02*
X922539Y-533794D01*
X922539Y-533794D02*
X932063Y-524270D01*
X932063Y-524270D02*
X951111Y-514746D01*
X1103492Y-714746D02*
X1103492Y-581413D01*
X1103492Y-600460D02*
X1113016Y-590937D01*
X1113016Y-590937D02*
X1132063Y-581413D01*
X1132063Y-581413D02*
X1160635Y-581413D01*
X1160635Y-581413D02*
X1179682Y-590937D01*
X1179682Y-590937D02*
X1189206Y-609984D01*
X1189206Y-609984D02*
X1189206Y-714746D01*
X1189206Y-609984D02*
X1198730Y-590937D01*
X1198730Y-590937D02*
X1217778Y-581413D01*
X1217778Y-581413D02*
X1246349Y-581413D01*
X1246349Y-581413D02*
X1265397Y-590937D01*
X1265397Y-590937D02*
X1274921Y-609984D01*
X1274921Y-609984D02*
X1274921Y-714746D01*
X1370159Y-714746D02*
X1370159Y-581413D01*
X1370159Y-600460D02*
X1379682Y-590937D01*
X1379682Y-590937D02*
X1398730Y-581413D01*
X1398730Y-581413D02*
X1427301Y-581413D01*
X1427301Y-581413D02*
X1446349Y-590937D01*
X1446349Y-590937D02*
X1455873Y-609984D01*
X1455873Y-609984D02*
X1455873Y-714746D01*
X1455873Y-609984D02*
X1465397Y-590937D01*
X1465397Y-590937D02*
X1484444Y-581413D01*
X1484444Y-581413D02*
X1513016Y-581413D01*
X1513016Y-581413D02*
X1532063Y-590937D01*
X1532063Y-590937D02*
X1541587Y-609984D01*
X1541587Y-609984D02*
X1541587Y-714746D01*
X1899682Y-505222D02*
X1728254Y-762365D01*
X2124444Y-514746D02*
X2143492Y-514746D01*
X2143492Y-514746D02*
X2162540Y-524270D01*
X2162540Y-524270D02*
X2172063Y-533794D01*
X2172063Y-533794D02*
X2181587Y-552841D01*
X2181587Y-552841D02*
X2191111Y-590937D01*
X2191111Y-590937D02*
X2191111Y-638556D01*
X2191111Y-638556D02*
X2181587Y-676651D01*
X2181587Y-676651D02*
X2172063Y-695699D01*
X2172063Y-695699D02*
X2162540Y-705222D01*
X2162540Y-705222D02*
X2143492Y-714746D01*
X2143492Y-714746D02*
X2124444Y-714746D01*
X2124444Y-714746D02*
X2105397Y-705222D01*
X2105397Y-705222D02*
X2095873Y-695699D01*
X2095873Y-695699D02*
X2086349Y-676651D01*
X2086349Y-676651D02*
X2076825Y-638556D01*
X2076825Y-638556D02*
X2076825Y-590937D01*
X2076825Y-590937D02*
X2086349Y-552841D01*
X2086349Y-552841D02*
X2095873Y-533794D01*
X2095873Y-533794D02*
X2105397Y-524270D01*
X2105397Y-524270D02*
X2124444Y-514746D01*
X2276825Y-695699D02*
X2286349Y-705222D01*
X2286349Y-705222D02*
X2276825Y-714746D01*
X2276825Y-714746D02*
X2267302Y-705222D01*
X2267302Y-705222D02*
X2276825Y-695699D01*
X2276825Y-695699D02*
X2276825Y-714746D01*
X2410159Y-514746D02*
X2429206Y-514746D01*
X2429206Y-514746D02*
X2448254Y-524270D01*
X2448254Y-524270D02*
X2457778Y-533794D01*
X2457778Y-533794D02*
X2467302Y-552841D01*
X2467302Y-552841D02*
X2476825Y-590937D01*
X2476825Y-590937D02*
X2476825Y-638556D01*
X2476825Y-638556D02*
X2467302Y-676651D01*
X2467302Y-676651D02*
X2457778Y-695699D01*
X2457778Y-695699D02*
X2448254Y-705222D01*
X2448254Y-705222D02*
X2429206Y-714746D01*
X2429206Y-714746D02*
X2410159Y-714746D01*
X2410159Y-714746D02*
X2391111Y-705222D01*
X2391111Y-705222D02*
X2381587Y-695699D01*
X2381587Y-695699D02*
X2372063Y-676651D01*
X2372063Y-676651D02*
X2362540Y-638556D01*
X2362540Y-638556D02*
X2362540Y-590937D01*
X2362540Y-590937D02*
X2372063Y-552841D01*
X2372063Y-552841D02*
X2381587Y-533794D01*
X2381587Y-533794D02*
X2391111Y-524270D01*
X2391111Y-524270D02*
X2410159Y-514746D01*
X2553016Y-533794D02*
X2562540Y-524270D01*
X2562540Y-524270D02*
X2581587Y-514746D01*
X2581587Y-514746D02*
X2629206Y-514746D01*
X2629206Y-514746D02*
X2648254Y-524270D01*
X2648254Y-524270D02*
X2657778Y-533794D01*
X2657778Y-533794D02*
X2667302Y-552841D01*
X2667302Y-552841D02*
X2667302Y-571889D01*
X2667302Y-571889D02*
X2657778Y-600460D01*
X2657778Y-600460D02*
X2543492Y-714746D01*
X2543492Y-714746D02*
X2667302Y-714746D01*
X2733968Y-514746D02*
X2857778Y-514746D01*
X2857778Y-514746D02*
X2791111Y-590937D01*
X2791111Y-590937D02*
X2819682Y-590937D01*
X2819682Y-590937D02*
X2838730Y-600460D01*
X2838730Y-600460D02*
X2848254Y-609984D01*
X2848254Y-609984D02*
X2857778Y-629032D01*
X2857778Y-629032D02*
X2857778Y-676651D01*
X2857778Y-676651D02*
X2848254Y-695699D01*
X2848254Y-695699D02*
X2838730Y-705222D01*
X2838730Y-705222D02*
X2819682Y-714746D01*
X2819682Y-714746D02*
X2762540Y-714746D01*
X2762540Y-714746D02*
X2743492Y-705222D01*
X2743492Y-705222D02*
X2733968Y-695699D01*
X3029206Y-514746D02*
X2991111Y-514746D01*
X2991111Y-514746D02*
X2972063Y-524270D01*
X2972063Y-524270D02*
X2962540Y-533794D01*
X2962540Y-533794D02*
X2943492Y-562365D01*
X2943492Y-562365D02*
X2933968Y-600460D01*
X2933968Y-600460D02*
X2933968Y-676651D01*
X2933968Y-676651D02*
X2943492Y-695699D01*
X2943492Y-695699D02*
X2953016Y-705222D01*
X2953016Y-705222D02*
X2972063Y-714746D01*
X2972063Y-714746D02*
X3010159Y-714746D01*
X3010159Y-714746D02*
X3029206Y-705222D01*
X3029206Y-705222D02*
X3038730Y-695699D01*
X3038730Y-695699D02*
X3048254Y-676651D01*
X3048254Y-676651D02*
X3048254Y-629032D01*
X3048254Y-629032D02*
X3038730Y-609984D01*
X3038730Y-609984D02*
X3029206Y-600460D01*
X3029206Y-600460D02*
X3010159Y-590937D01*
X3010159Y-590937D02*
X2972063Y-590937D01*
X2972063Y-590937D02*
X2953016Y-600460D01*
X2953016Y-600460D02*
X2943492Y-609984D01*
X2943492Y-609984D02*
X2933968Y-629032D01*
X3124444Y-514746D02*
X3124444Y-552841D01*
X3200635Y-514746D02*
X3200635Y-552841D01*
X3463492Y-790937D02*
X3453968Y-781413D01*
X3453968Y-781413D02*
X3434921Y-752841D01*
X3434921Y-752841D02*
X3425397Y-733794D01*
X3425397Y-733794D02*
X3415873Y-705222D01*
X3415873Y-705222D02*
X3406349Y-657603D01*
X3406349Y-657603D02*
X3406349Y-619508D01*
X3406349Y-619508D02*
X3415873Y-571889D01*
X3415873Y-571889D02*
X3425397Y-543318D01*
X3425397Y-543318D02*
X3434921Y-524270D01*
X3434921Y-524270D02*
X3453968Y-495698D01*
X3453968Y-495698D02*
X3463492Y-486175D01*
X3625397Y-514746D02*
X3587301Y-514746D01*
X3587301Y-514746D02*
X3568254Y-524270D01*
X3568254Y-524270D02*
X3558730Y-533794D01*
X3558730Y-533794D02*
X3539682Y-562365D01*
X3539682Y-562365D02*
X3530159Y-600460D01*
X3530159Y-600460D02*
X3530159Y-676651D01*
X3530159Y-676651D02*
X3539682Y-695699D01*
X3539682Y-695699D02*
X3549206Y-705222D01*
X3549206Y-705222D02*
X3568254Y-714746D01*
X3568254Y-714746D02*
X3606349Y-714746D01*
X3606349Y-714746D02*
X3625397Y-705222D01*
X3625397Y-705222D02*
X3634921Y-695699D01*
X3634921Y-695699D02*
X3644444Y-676651D01*
X3644444Y-676651D02*
X3644444Y-629032D01*
X3644444Y-629032D02*
X3634921Y-609984D01*
X3634921Y-609984D02*
X3625397Y-600460D01*
X3625397Y-600460D02*
X3606349Y-590937D01*
X3606349Y-590937D02*
X3568254Y-590937D01*
X3568254Y-590937D02*
X3549206Y-600460D01*
X3549206Y-600460D02*
X3539682Y-609984D01*
X3539682Y-609984D02*
X3530159Y-629032D01*
X3850159Y-714746D02*
X3850159Y-514746D01*
X3935873Y-714746D02*
X3935873Y-609984D01*
X3935873Y-609984D02*
X3926349Y-590937D01*
X3926349Y-590937D02*
X3907302Y-581413D01*
X3907302Y-581413D02*
X3878730Y-581413D01*
X3878730Y-581413D02*
X3859682Y-590937D01*
X3859682Y-590937D02*
X3850159Y-600460D01*
X4059682Y-714746D02*
X4040635Y-705222D01*
X4040635Y-705222D02*
X4031111Y-695699D01*
X4031111Y-695699D02*
X4021587Y-676651D01*
X4021587Y-676651D02*
X4021587Y-619508D01*
X4021587Y-619508D02*
X4031111Y-600460D01*
X4031111Y-600460D02*
X4040635Y-590937D01*
X4040635Y-590937D02*
X4059682Y-581413D01*
X4059682Y-581413D02*
X4088254Y-581413D01*
X4088254Y-581413D02*
X4107302Y-590937D01*
X4107302Y-590937D02*
X4116825Y-600460D01*
X4116825Y-600460D02*
X4126349Y-619508D01*
X4126349Y-619508D02*
X4126349Y-676651D01*
X4126349Y-676651D02*
X4116825Y-695699D01*
X4116825Y-695699D02*
X4107302Y-705222D01*
X4107302Y-705222D02*
X4088254Y-714746D01*
X4088254Y-714746D02*
X4059682Y-714746D01*
X4240635Y-714746D02*
X4221587Y-705222D01*
X4221587Y-705222D02*
X4212064Y-686175D01*
X4212064Y-686175D02*
X4212064Y-514746D01*
X4393016Y-705222D02*
X4373968Y-714746D01*
X4373968Y-714746D02*
X4335873Y-714746D01*
X4335873Y-714746D02*
X4316825Y-705222D01*
X4316825Y-705222D02*
X4307302Y-686175D01*
X4307302Y-686175D02*
X4307302Y-609984D01*
X4307302Y-609984D02*
X4316825Y-590937D01*
X4316825Y-590937D02*
X4335873Y-581413D01*
X4335873Y-581413D02*
X4373968Y-581413D01*
X4373968Y-581413D02*
X4393016Y-590937D01*
X4393016Y-590937D02*
X4402540Y-609984D01*
X4402540Y-609984D02*
X4402540Y-629032D01*
X4402540Y-629032D02*
X4307302Y-648080D01*
X4478730Y-705222D02*
X4497778Y-714746D01*
X4497778Y-714746D02*
X4535873Y-714746D01*
X4535873Y-714746D02*
X4554921Y-705222D01*
X4554921Y-705222D02*
X4564445Y-686175D01*
X4564445Y-686175D02*
X4564445Y-676651D01*
X4564445Y-676651D02*
X4554921Y-657603D01*
X4554921Y-657603D02*
X4535873Y-648080D01*
X4535873Y-648080D02*
X4507302Y-648080D01*
X4507302Y-648080D02*
X4488254Y-638556D01*
X4488254Y-638556D02*
X4478730Y-619508D01*
X4478730Y-619508D02*
X4478730Y-609984D01*
X4478730Y-609984D02*
X4488254Y-590937D01*
X4488254Y-590937D02*
X4507302Y-581413D01*
X4507302Y-581413D02*
X4535873Y-581413D01*
X4535873Y-581413D02*
X4554921Y-590937D01*
X4631111Y-790937D02*
X4640635Y-781413D01*
X4640635Y-781413D02*
X4659683Y-752841D01*
X4659683Y-752841D02*
X4669206Y-733794D01*
X4669206Y-733794D02*
X4678730Y-705222D01*
X4678730Y-705222D02*
X4688254Y-657603D01*
X4688254Y-657603D02*
X4688254Y-619508D01*
X4688254Y-619508D02*
X4678730Y-571889D01*
X4678730Y-571889D02*
X4669206Y-543318D01*
X4669206Y-543318D02*
X4659683Y-524270D01*
X4659683Y-524270D02*
X4640635Y-495698D01*
X4640635Y-495698D02*
X4631111Y-486175D01*
D13*
X-1270Y-905270D02*
G75*
G03*
X-1270Y-905270I-50000J0D01*
G01*
D11*
X351111Y-978746D02*
X236825Y-978746D01*
X293968Y-978746D02*
X293968Y-778746D01*
X293968Y-778746D02*
X274920Y-807318D01*
X274920Y-807318D02*
X255873Y-826365D01*
X255873Y-826365D02*
X236825Y-835889D01*
X436825Y-959698D02*
X446349Y-969222D01*
X446349Y-969222D02*
X436825Y-978746D01*
X436825Y-978746D02*
X427301Y-969222D01*
X427301Y-969222D02*
X436825Y-959698D01*
X436825Y-959698D02*
X436825Y-978746D01*
X570159Y-778746D02*
X589206Y-778746D01*
X589206Y-778746D02*
X608254Y-788270D01*
X608254Y-788270D02*
X617778Y-797794D01*
X617778Y-797794D02*
X627301Y-816841D01*
X627301Y-816841D02*
X636825Y-854937D01*
X636825Y-854937D02*
X636825Y-902556D01*
X636825Y-902556D02*
X627301Y-940651D01*
X627301Y-940651D02*
X617778Y-959698D01*
X617778Y-959698D02*
X608254Y-969222D01*
X608254Y-969222D02*
X589206Y-978746D01*
X589206Y-978746D02*
X570159Y-978746D01*
X570159Y-978746D02*
X551111Y-969222D01*
X551111Y-969222D02*
X541587Y-959698D01*
X541587Y-959698D02*
X532063Y-940651D01*
X532063Y-940651D02*
X522539Y-902556D01*
X522539Y-902556D02*
X522539Y-854937D01*
X522539Y-854937D02*
X532063Y-816841D01*
X532063Y-816841D02*
X541587Y-797794D01*
X541587Y-797794D02*
X551111Y-788270D01*
X551111Y-788270D02*
X570159Y-778746D01*
X760635Y-778746D02*
X779682Y-778746D01*
X779682Y-778746D02*
X798730Y-788270D01*
X798730Y-788270D02*
X808254Y-797794D01*
X808254Y-797794D02*
X817778Y-816841D01*
X817778Y-816841D02*
X827301Y-854937D01*
X827301Y-854937D02*
X827301Y-902556D01*
X827301Y-902556D02*
X817778Y-940651D01*
X817778Y-940651D02*
X808254Y-959698D01*
X808254Y-959698D02*
X798730Y-969222D01*
X798730Y-969222D02*
X779682Y-978746D01*
X779682Y-978746D02*
X760635Y-978746D01*
X760635Y-978746D02*
X741587Y-969222D01*
X741587Y-969222D02*
X732063Y-959698D01*
X732063Y-959698D02*
X722539Y-940651D01*
X722539Y-940651D02*
X713016Y-902556D01*
X713016Y-902556D02*
X713016Y-854937D01*
X713016Y-854937D02*
X722539Y-816841D01*
X722539Y-816841D02*
X732063Y-797794D01*
X732063Y-797794D02*
X741587Y-788270D01*
X741587Y-788270D02*
X760635Y-778746D01*
X951111Y-778746D02*
X970159Y-778746D01*
X970159Y-778746D02*
X989206Y-788270D01*
X989206Y-788270D02*
X998730Y-797794D01*
X998730Y-797794D02*
X1008254Y-816841D01*
X1008254Y-816841D02*
X1017778Y-854937D01*
X1017778Y-854937D02*
X1017778Y-902556D01*
X1017778Y-902556D02*
X1008254Y-940651D01*
X1008254Y-940651D02*
X998730Y-959698D01*
X998730Y-959698D02*
X989206Y-969222D01*
X989206Y-969222D02*
X970159Y-978746D01*
X970159Y-978746D02*
X951111Y-978746D01*
X951111Y-978746D02*
X932063Y-969222D01*
X932063Y-969222D02*
X922539Y-959698D01*
X922539Y-959698D02*
X913016Y-940651D01*
X913016Y-940651D02*
X903492Y-902556D01*
X903492Y-902556D02*
X903492Y-854937D01*
X903492Y-854937D02*
X913016Y-816841D01*
X913016Y-816841D02*
X922539Y-797794D01*
X922539Y-797794D02*
X932063Y-788270D01*
X932063Y-788270D02*
X951111Y-778746D01*
X1103492Y-978746D02*
X1103492Y-845413D01*
X1103492Y-864460D02*
X1113016Y-854937D01*
X1113016Y-854937D02*
X1132063Y-845413D01*
X1132063Y-845413D02*
X1160635Y-845413D01*
X1160635Y-845413D02*
X1179682Y-854937D01*
X1179682Y-854937D02*
X1189206Y-873984D01*
X1189206Y-873984D02*
X1189206Y-978746D01*
X1189206Y-873984D02*
X1198730Y-854937D01*
X1198730Y-854937D02*
X1217778Y-845413D01*
X1217778Y-845413D02*
X1246349Y-845413D01*
X1246349Y-845413D02*
X1265397Y-854937D01*
X1265397Y-854937D02*
X1274921Y-873984D01*
X1274921Y-873984D02*
X1274921Y-978746D01*
X1370159Y-978746D02*
X1370159Y-845413D01*
X1370159Y-864460D02*
X1379682Y-854937D01*
X1379682Y-854937D02*
X1398730Y-845413D01*
X1398730Y-845413D02*
X1427301Y-845413D01*
X1427301Y-845413D02*
X1446349Y-854937D01*
X1446349Y-854937D02*
X1455873Y-873984D01*
X1455873Y-873984D02*
X1455873Y-978746D01*
X1455873Y-873984D02*
X1465397Y-854937D01*
X1465397Y-854937D02*
X1484444Y-845413D01*
X1484444Y-845413D02*
X1513016Y-845413D01*
X1513016Y-845413D02*
X1532063Y-854937D01*
X1532063Y-854937D02*
X1541587Y-873984D01*
X1541587Y-873984D02*
X1541587Y-978746D01*
X1899682Y-769222D02*
X1728254Y-1026365D01*
X2124444Y-778746D02*
X2143492Y-778746D01*
X2143492Y-778746D02*
X2162540Y-788270D01*
X2162540Y-788270D02*
X2172063Y-797794D01*
X2172063Y-797794D02*
X2181587Y-816841D01*
X2181587Y-816841D02*
X2191111Y-854937D01*
X2191111Y-854937D02*
X2191111Y-902556D01*
X2191111Y-902556D02*
X2181587Y-940651D01*
X2181587Y-940651D02*
X2172063Y-959698D01*
X2172063Y-959698D02*
X2162540Y-969222D01*
X2162540Y-969222D02*
X2143492Y-978746D01*
X2143492Y-978746D02*
X2124444Y-978746D01*
X2124444Y-978746D02*
X2105397Y-969222D01*
X2105397Y-969222D02*
X2095873Y-959698D01*
X2095873Y-959698D02*
X2086349Y-940651D01*
X2086349Y-940651D02*
X2076825Y-902556D01*
X2076825Y-902556D02*
X2076825Y-854937D01*
X2076825Y-854937D02*
X2086349Y-816841D01*
X2086349Y-816841D02*
X2095873Y-797794D01*
X2095873Y-797794D02*
X2105397Y-788270D01*
X2105397Y-788270D02*
X2124444Y-778746D01*
X2276825Y-959698D02*
X2286349Y-969222D01*
X2286349Y-969222D02*
X2276825Y-978746D01*
X2276825Y-978746D02*
X2267302Y-969222D01*
X2267302Y-969222D02*
X2276825Y-959698D01*
X2276825Y-959698D02*
X2276825Y-978746D01*
X2410159Y-778746D02*
X2429206Y-778746D01*
X2429206Y-778746D02*
X2448254Y-788270D01*
X2448254Y-788270D02*
X2457778Y-797794D01*
X2457778Y-797794D02*
X2467302Y-816841D01*
X2467302Y-816841D02*
X2476825Y-854937D01*
X2476825Y-854937D02*
X2476825Y-902556D01*
X2476825Y-902556D02*
X2467302Y-940651D01*
X2467302Y-940651D02*
X2457778Y-959698D01*
X2457778Y-959698D02*
X2448254Y-969222D01*
X2448254Y-969222D02*
X2429206Y-978746D01*
X2429206Y-978746D02*
X2410159Y-978746D01*
X2410159Y-978746D02*
X2391111Y-969222D01*
X2391111Y-969222D02*
X2381587Y-959698D01*
X2381587Y-959698D02*
X2372063Y-940651D01*
X2372063Y-940651D02*
X2362540Y-902556D01*
X2362540Y-902556D02*
X2362540Y-854937D01*
X2362540Y-854937D02*
X2372063Y-816841D01*
X2372063Y-816841D02*
X2381587Y-797794D01*
X2381587Y-797794D02*
X2391111Y-788270D01*
X2391111Y-788270D02*
X2410159Y-778746D01*
X2543492Y-778746D02*
X2667302Y-778746D01*
X2667302Y-778746D02*
X2600635Y-854937D01*
X2600635Y-854937D02*
X2629206Y-854937D01*
X2629206Y-854937D02*
X2648254Y-864460D01*
X2648254Y-864460D02*
X2657778Y-873984D01*
X2657778Y-873984D02*
X2667302Y-893032D01*
X2667302Y-893032D02*
X2667302Y-940651D01*
X2667302Y-940651D02*
X2657778Y-959698D01*
X2657778Y-959698D02*
X2648254Y-969222D01*
X2648254Y-969222D02*
X2629206Y-978746D01*
X2629206Y-978746D02*
X2572063Y-978746D01*
X2572063Y-978746D02*
X2553016Y-969222D01*
X2553016Y-969222D02*
X2543492Y-959698D01*
X2762540Y-978746D02*
X2800635Y-978746D01*
X2800635Y-978746D02*
X2819682Y-969222D01*
X2819682Y-969222D02*
X2829206Y-959698D01*
X2829206Y-959698D02*
X2848254Y-931127D01*
X2848254Y-931127D02*
X2857778Y-893032D01*
X2857778Y-893032D02*
X2857778Y-816841D01*
X2857778Y-816841D02*
X2848254Y-797794D01*
X2848254Y-797794D02*
X2838730Y-788270D01*
X2838730Y-788270D02*
X2819682Y-778746D01*
X2819682Y-778746D02*
X2781587Y-778746D01*
X2781587Y-778746D02*
X2762540Y-788270D01*
X2762540Y-788270D02*
X2753016Y-797794D01*
X2753016Y-797794D02*
X2743492Y-816841D01*
X2743492Y-816841D02*
X2743492Y-864460D01*
X2743492Y-864460D02*
X2753016Y-883508D01*
X2753016Y-883508D02*
X2762540Y-893032D01*
X2762540Y-893032D02*
X2781587Y-902556D01*
X2781587Y-902556D02*
X2819682Y-902556D01*
X2819682Y-902556D02*
X2838730Y-893032D01*
X2838730Y-893032D02*
X2848254Y-883508D01*
X2848254Y-883508D02*
X2857778Y-864460D01*
X3029206Y-845413D02*
X3029206Y-978746D01*
X2981587Y-769222D02*
X2933968Y-912079D01*
X2933968Y-912079D02*
X3057778Y-912079D01*
X3124444Y-778746D02*
X3124444Y-816841D01*
X3200635Y-778746D02*
X3200635Y-816841D01*
X3463492Y-1054937D02*
X3453968Y-1045413D01*
X3453968Y-1045413D02*
X3434921Y-1016841D01*
X3434921Y-1016841D02*
X3425397Y-997794D01*
X3425397Y-997794D02*
X3415873Y-969222D01*
X3415873Y-969222D02*
X3406349Y-921603D01*
X3406349Y-921603D02*
X3406349Y-883508D01*
X3406349Y-883508D02*
X3415873Y-835889D01*
X3415873Y-835889D02*
X3425397Y-807318D01*
X3425397Y-807318D02*
X3434921Y-788270D01*
X3434921Y-788270D02*
X3453968Y-759698D01*
X3453968Y-759698D02*
X3463492Y-750175D01*
X3625397Y-778746D02*
X3587301Y-778746D01*
X3587301Y-778746D02*
X3568254Y-788270D01*
X3568254Y-788270D02*
X3558730Y-797794D01*
X3558730Y-797794D02*
X3539682Y-826365D01*
X3539682Y-826365D02*
X3530159Y-864460D01*
X3530159Y-864460D02*
X3530159Y-940651D01*
X3530159Y-940651D02*
X3539682Y-959698D01*
X3539682Y-959698D02*
X3549206Y-969222D01*
X3549206Y-969222D02*
X3568254Y-978746D01*
X3568254Y-978746D02*
X3606349Y-978746D01*
X3606349Y-978746D02*
X3625397Y-969222D01*
X3625397Y-969222D02*
X3634921Y-959698D01*
X3634921Y-959698D02*
X3644444Y-940651D01*
X3644444Y-940651D02*
X3644444Y-893032D01*
X3644444Y-893032D02*
X3634921Y-873984D01*
X3634921Y-873984D02*
X3625397Y-864460D01*
X3625397Y-864460D02*
X3606349Y-854937D01*
X3606349Y-854937D02*
X3568254Y-854937D01*
X3568254Y-854937D02*
X3549206Y-864460D01*
X3549206Y-864460D02*
X3539682Y-873984D01*
X3539682Y-873984D02*
X3530159Y-893032D01*
X3850159Y-978746D02*
X3850159Y-778746D01*
X3935873Y-978746D02*
X3935873Y-873984D01*
X3935873Y-873984D02*
X3926349Y-854937D01*
X3926349Y-854937D02*
X3907302Y-845413D01*
X3907302Y-845413D02*
X3878730Y-845413D01*
X3878730Y-845413D02*
X3859682Y-854937D01*
X3859682Y-854937D02*
X3850159Y-864460D01*
X4059682Y-978746D02*
X4040635Y-969222D01*
X4040635Y-969222D02*
X4031111Y-959698D01*
X4031111Y-959698D02*
X4021587Y-940651D01*
X4021587Y-940651D02*
X4021587Y-883508D01*
X4021587Y-883508D02*
X4031111Y-864460D01*
X4031111Y-864460D02*
X4040635Y-854937D01*
X4040635Y-854937D02*
X4059682Y-845413D01*
X4059682Y-845413D02*
X4088254Y-845413D01*
X4088254Y-845413D02*
X4107302Y-854937D01*
X4107302Y-854937D02*
X4116825Y-864460D01*
X4116825Y-864460D02*
X4126349Y-883508D01*
X4126349Y-883508D02*
X4126349Y-940651D01*
X4126349Y-940651D02*
X4116825Y-959698D01*
X4116825Y-959698D02*
X4107302Y-969222D01*
X4107302Y-969222D02*
X4088254Y-978746D01*
X4088254Y-978746D02*
X4059682Y-978746D01*
X4240635Y-978746D02*
X4221587Y-969222D01*
X4221587Y-969222D02*
X4212064Y-950175D01*
X4212064Y-950175D02*
X4212064Y-778746D01*
X4393016Y-969222D02*
X4373968Y-978746D01*
X4373968Y-978746D02*
X4335873Y-978746D01*
X4335873Y-978746D02*
X4316825Y-969222D01*
X4316825Y-969222D02*
X4307302Y-950175D01*
X4307302Y-950175D02*
X4307302Y-873984D01*
X4307302Y-873984D02*
X4316825Y-854937D01*
X4316825Y-854937D02*
X4335873Y-845413D01*
X4335873Y-845413D02*
X4373968Y-845413D01*
X4373968Y-845413D02*
X4393016Y-854937D01*
X4393016Y-854937D02*
X4402540Y-873984D01*
X4402540Y-873984D02*
X4402540Y-893032D01*
X4402540Y-893032D02*
X4307302Y-912079D01*
X4478730Y-969222D02*
X4497778Y-978746D01*
X4497778Y-978746D02*
X4535873Y-978746D01*
X4535873Y-978746D02*
X4554921Y-969222D01*
X4554921Y-969222D02*
X4564445Y-950175D01*
X4564445Y-950175D02*
X4564445Y-940651D01*
X4564445Y-940651D02*
X4554921Y-921603D01*
X4554921Y-921603D02*
X4535873Y-912079D01*
X4535873Y-912079D02*
X4507302Y-912079D01*
X4507302Y-912079D02*
X4488254Y-902556D01*
X4488254Y-902556D02*
X4478730Y-883508D01*
X4478730Y-883508D02*
X4478730Y-873984D01*
X4478730Y-873984D02*
X4488254Y-854937D01*
X4488254Y-854937D02*
X4507302Y-845413D01*
X4507302Y-845413D02*
X4535873Y-845413D01*
X4535873Y-845413D02*
X4554921Y-854937D01*
X4631111Y-1054937D02*
X4640635Y-1045413D01*
X4640635Y-1045413D02*
X4659683Y-1016841D01*
X4659683Y-1016841D02*
X4669206Y-997794D01*
X4669206Y-997794D02*
X4678730Y-969222D01*
X4678730Y-969222D02*
X4688254Y-921603D01*
X4688254Y-921603D02*
X4688254Y-883508D01*
X4688254Y-883508D02*
X4678730Y-835889D01*
X4678730Y-835889D02*
X4669206Y-807318D01*
X4669206Y-807318D02*
X4659683Y-788270D01*
X4659683Y-788270D02*
X4640635Y-759698D01*
X4640635Y-759698D02*
X4631111Y-750175D01*
M02*
