%TF.GenerationSoftware,KiCad,Pcbnew,(7.0.0)*%
%TF.CreationDate,2024-06-17T09:17:14-04:00*%
%TF.ProjectId,BRGRavionics2.4.1,42524752-6176-4696-9f6e-696373322e34,rev?*%
%TF.SameCoordinates,PX429d390PY9157080*%
%TF.FileFunction,Soldermask,Top*%
%TF.FilePolarity,Negative*%
%FSLAX46Y46*%
G04 Gerber Fmt 4.6, Leading zero omitted, Abs format (unit mm)*
G04 Created by KiCad (PCBNEW (7.0.0)) date 2024-06-17 09:17:14*
%MOMM*%
%LPD*%
G01*
G04 APERTURE LIST*
G04 Aperture macros list*
%AMRoundRect*
0 Rectangle with rounded corners*
0 $1 Rounding radius*
0 $2 $3 $4 $5 $6 $7 $8 $9 X,Y pos of 4 corners*
0 Add a 4 corners polygon primitive as box body*
4,1,4,$2,$3,$4,$5,$6,$7,$8,$9,$2,$3,0*
0 Add four circle primitives for the rounded corners*
1,1,$1+$1,$2,$3*
1,1,$1+$1,$4,$5*
1,1,$1+$1,$6,$7*
1,1,$1+$1,$8,$9*
0 Add four rect primitives between the rounded corners*
20,1,$1+$1,$2,$3,$4,$5,0*
20,1,$1+$1,$4,$5,$6,$7,0*
20,1,$1+$1,$6,$7,$8,$9,0*
20,1,$1+$1,$8,$9,$2,$3,0*%
G04 Aperture macros list end*
%ADD10RoundRect,0.225000X0.225000X0.250000X-0.225000X0.250000X-0.225000X-0.250000X0.225000X-0.250000X0*%
%ADD11RoundRect,0.225000X-0.225000X-0.250000X0.225000X-0.250000X0.225000X0.250000X-0.225000X0.250000X0*%
%ADD12RoundRect,0.150000X0.150000X0.625000X-0.150000X0.625000X-0.150000X-0.625000X0.150000X-0.625000X0*%
%ADD13RoundRect,0.250000X0.350000X0.650000X-0.350000X0.650000X-0.350000X-0.650000X0.350000X-0.650000X0*%
%ADD14C,2.286000*%
%ADD15RoundRect,0.140000X-0.140000X-0.170000X0.140000X-0.170000X0.140000X0.170000X-0.140000X0.170000X0*%
%ADD16C,0.650000*%
%ADD17R,1.150000X0.300000*%
%ADD18R,2.000000X2.180000*%
%ADD19R,0.700000X0.650000*%
%ADD20R,0.650000X0.700000*%
%ADD21R,1.700000X1.700000*%
%ADD22O,1.700000X1.700000*%
%ADD23R,1.251000X1.251000*%
%ADD24C,1.251000*%
%ADD25C,0.404000*%
%ADD26RoundRect,0.150000X-0.150000X-0.700000X0.150000X-0.700000X0.150000X0.700000X-0.150000X0.700000X0*%
%ADD27RoundRect,0.250000X-0.250000X-1.100000X0.250000X-1.100000X0.250000X1.100000X-0.250000X1.100000X0*%
%ADD28R,0.600000X1.150000*%
%ADD29R,2.290000X5.080000*%
%ADD30R,2.420000X5.080000*%
%ADD31R,0.700000X2.500000*%
%ADD32R,1.500000X1.850000*%
%ADD33C,1.665000*%
%ADD34RoundRect,0.225000X0.250000X-0.225000X0.250000X0.225000X-0.250000X0.225000X-0.250000X-0.225000X0*%
%ADD35R,1.800000X0.800000*%
%ADD36R,2.100000X2.100000*%
%ADD37C,2.100000*%
%ADD38C,1.900000*%
%ADD39C,1.016000*%
%TA.AperFunction,Profile*%
%ADD40C,0.025400*%
%TD*%
%TA.AperFunction,Profile*%
%ADD41C,0.100000*%
%TD*%
G04 APERTURE END LIST*
D10*
%TO.C,C6*%
X19621800Y33959800D03*
X18071800Y33959800D03*
%TD*%
D11*
%TO.C,L1*%
X23659800Y33985200D03*
X25209800Y33985200D03*
%TD*%
D12*
%TO.C,RADIODIAG1*%
X40108000Y4119000D03*
X39108000Y4119000D03*
X38108000Y4119000D03*
X37108000Y4119000D03*
D13*
X41408000Y1594000D03*
X35808000Y1594000D03*
%TD*%
D14*
%TO.C,H4*%
X58724800Y3175000D03*
%TD*%
D10*
%TO.C,C10*%
X77864000Y27940000D03*
X76314000Y27940000D03*
%TD*%
D15*
%TO.C,D1*%
X20805200Y34239200D03*
X21765200Y34239200D03*
%TD*%
D14*
%TO.C,H1*%
X7924800Y47625000D03*
%TD*%
D16*
%TO.C,J3*%
X62703500Y4349000D03*
X62703500Y10129000D03*
D17*
X61628499Y3888999D03*
X61628499Y4688999D03*
X61628499Y5988999D03*
X61628499Y6988999D03*
X61628499Y7488999D03*
X61628499Y8488999D03*
X61628499Y9788999D03*
X61628499Y10588999D03*
X61628499Y10288999D03*
X61628499Y9488999D03*
X61628499Y8988999D03*
X61628499Y7988999D03*
X61628499Y6488999D03*
X61628499Y5488999D03*
X61628499Y4988999D03*
X61628499Y4188999D03*
D18*
X66133499Y2128999D03*
X66133499Y12348999D03*
X62203499Y2128999D03*
X62203499Y12348999D03*
%TD*%
D19*
%TO.C,U2*%
X4825999Y34556999D03*
X3555999Y34556999D03*
X2285999Y34556999D03*
D20*
X1455999Y35386999D03*
X1455999Y36656999D03*
X1455999Y37926999D03*
D19*
X2285999Y38756999D03*
X3555999Y38756999D03*
X4825999Y38756999D03*
D20*
X5655999Y37926999D03*
X5655999Y36656999D03*
X5655999Y35386999D03*
%TD*%
D11*
%TO.C,C7*%
X26707800Y33985200D03*
X28257800Y33985200D03*
%TD*%
%TO.C,C3*%
X3416000Y44450000D03*
X4966000Y44450000D03*
%TD*%
D21*
%TO.C,J4*%
X65531999Y49387999D03*
D22*
X65531999Y46847999D03*
X65531999Y44307999D03*
%TD*%
D11*
%TO.C,C9*%
X33515000Y10287000D03*
X35065000Y10287000D03*
%TD*%
D23*
%TO.C,U3*%
X9651999Y46010999D03*
D24*
X12192000Y46011000D03*
X14732000Y46011000D03*
X14732000Y34761000D03*
X12192000Y34761000D03*
X9652000Y34761000D03*
%TD*%
D11*
%TO.C,C8*%
X33642000Y12065000D03*
X35192000Y12065000D03*
%TD*%
D25*
%TO.C,U1*%
X4591000Y47517000D03*
X4591000Y47117000D03*
X4591000Y46717000D03*
X4191000Y47517000D03*
X4191000Y47117000D03*
X4191000Y46717000D03*
X3791000Y47517000D03*
X3791000Y47117000D03*
X3791000Y46717000D03*
%TD*%
D26*
%TO.C,RADIOSERIAL1*%
X12496000Y5406000D03*
X13746000Y5406000D03*
X14996000Y5406000D03*
X16246000Y5406000D03*
X17496000Y5406000D03*
X18746000Y5406000D03*
D27*
X10646000Y2206000D03*
X20596000Y2206000D03*
%TD*%
D28*
%TO.C,IC2*%
X62798999Y46003999D03*
X61848999Y46003999D03*
X60898999Y46003999D03*
X60898999Y43403999D03*
X61848999Y43403999D03*
X62798999Y43403999D03*
%TD*%
D29*
%TO.C,J1*%
X23621999Y39184999D03*
D30*
X28001999Y39184999D03*
X19241999Y39184999D03*
%TD*%
D31*
%TO.C,POWERPACK1*%
X60979999Y36503999D03*
X62229999Y36503999D03*
X63479999Y36503999D03*
X60979999Y40203999D03*
X62229999Y40203999D03*
X63479999Y40203999D03*
D32*
X58829999Y38353999D03*
X65629999Y38353999D03*
%TD*%
D14*
%TO.C,H2*%
X7924800Y3175000D03*
%TD*%
D33*
%TO.C,IC1*%
X7493000Y15621000D03*
X10033000Y15621000D03*
X12573000Y15621000D03*
X15113000Y15621000D03*
X17653000Y15621000D03*
X20193000Y15621000D03*
X22733000Y15621000D03*
X25273000Y15621000D03*
X27813000Y15621000D03*
X30353000Y15621000D03*
X32893000Y15621000D03*
X35433000Y15621000D03*
X35433000Y30861000D03*
X32893000Y30861000D03*
X30353000Y30861000D03*
X27813000Y30861000D03*
X25273000Y30861000D03*
X22733000Y30861000D03*
X20193000Y30861000D03*
X17653000Y30861000D03*
X15113000Y30861000D03*
X12573000Y30861000D03*
X10033000Y30861000D03*
X40513000Y15621000D03*
X43053000Y15621000D03*
X45593000Y15621000D03*
X48133000Y15621000D03*
X50673000Y15621000D03*
X53213000Y15621000D03*
X55753000Y15621000D03*
X58293000Y15621000D03*
X60833000Y15621000D03*
X60833000Y30861000D03*
X58293000Y30861000D03*
X55753000Y30861000D03*
X53213000Y30861000D03*
X50673000Y30861000D03*
X48133000Y30861000D03*
X45593000Y30861000D03*
X43053000Y30861000D03*
X40513000Y30861000D03*
X37973000Y15621000D03*
X7493000Y30861000D03*
X2413000Y30861000D03*
X4953000Y15621000D03*
X37973000Y30861000D03*
X4953000Y30861000D03*
X2413000Y15621000D03*
%TD*%
D34*
%TO.C,C1*%
X1270000Y46342000D03*
X1270000Y47892000D03*
%TD*%
D10*
%TO.C,C5*%
X11951000Y48514000D03*
X10401000Y48514000D03*
%TD*%
D35*
%TO.C,U4*%
X31744399Y49214799D03*
X31744399Y48114799D03*
X31744399Y47014799D03*
X31744399Y45914799D03*
X31744399Y44814799D03*
X31744399Y43714799D03*
X31744399Y42614799D03*
X31744399Y39614799D03*
X31744399Y38514799D03*
X31744399Y37414799D03*
X31744399Y36314799D03*
X31744399Y35214799D03*
X43744399Y35214799D03*
X43744399Y36314799D03*
X43744399Y37414799D03*
X43744399Y38514799D03*
X43744399Y39614799D03*
X43744399Y42614799D03*
X43744399Y43714799D03*
X43744399Y44814799D03*
X43744399Y45914799D03*
X43744399Y47014799D03*
X43744399Y48114799D03*
X43744399Y49214799D03*
%TD*%
D11*
%TO.C,C4*%
X4813000Y40894000D03*
X6363000Y40894000D03*
%TD*%
D10*
%TO.C,C2*%
X4712000Y49784000D03*
X3162000Y49784000D03*
%TD*%
D36*
%TO.C,J2*%
X26923999Y3809999D03*
D37*
X24384000Y3810000D03*
%TD*%
D14*
%TO.C,H3*%
X58724800Y47625000D03*
%TD*%
D38*
%TO.C,J5*%
X88103000Y33025000D03*
X88103000Y17775000D03*
D39*
X84653000Y19775000D03*
X84653000Y21025000D03*
X84653000Y22275000D03*
X84653000Y23525000D03*
X84653000Y24775000D03*
X84653000Y26025000D03*
X84653000Y27275000D03*
X84653000Y28525000D03*
X84653000Y29775000D03*
X84653000Y31025000D03*
X85903000Y19775000D03*
X85903000Y21025000D03*
X85903000Y22275000D03*
X85903000Y23525000D03*
X85903000Y24775000D03*
X85903000Y26025000D03*
X85903000Y27275000D03*
X85903000Y28525000D03*
X85903000Y29775000D03*
X85903000Y31025000D03*
%TD*%
D40*
X17145000Y50800000D02*
X0Y50800000D01*
X29845000Y41910000D02*
X29845000Y50800000D01*
D41*
X67310000Y34290000D02*
X67310000Y50800000D01*
D40*
X17145000Y41910000D02*
X17145000Y50800000D01*
X0Y0D02*
X67310000Y0D01*
X91059000Y16510000D02*
X91059000Y34290000D01*
D41*
X67310000Y16510000D02*
X67310000Y0D01*
X91059000Y34290000D02*
X67310000Y34290000D01*
D40*
X29845000Y50800000D02*
X67310000Y50800000D01*
X0Y50800000D02*
X0Y0D01*
D41*
X91059000Y16510000D02*
X67310000Y16510000D01*
D40*
X17145000Y41910000D02*
X29845000Y41910000D01*
M02*
