%TF.GenerationSoftware,KiCad,Pcbnew,(7.0.0)*%
%TF.CreationDate,2024-06-17T09:17:14-04:00*%
%TF.ProjectId,BRGRavionics2.4.1,42524752-6176-4696-9f6e-696373322e34,rev?*%
%TF.SameCoordinates,PX429d390PY9157080*%
%TF.FileFunction,Legend,Bot*%
%TF.FilePolarity,Positive*%
%FSLAX46Y46*%
G04 Gerber Fmt 4.6, Leading zero omitted, Abs format (unit mm)*
G04 Created by KiCad (PCBNEW (7.0.0)) date 2024-06-17 09:17:14*
%MOMM*%
%LPD*%
G01*
G04 APERTURE LIST*
%ADD10C,0.203200*%
%ADD11C,0.120000*%
%ADD12C,0.100000*%
%ADD13C,0.200000*%
%ADD14C,0.250000*%
%TA.AperFunction,Profile*%
%ADD15C,0.025400*%
%TD*%
%TA.AperFunction,Profile*%
%ADD16C,0.100000*%
%TD*%
G04 APERTURE END LIST*
D10*
%TO.C,R6*%
X25891973Y24595667D02*
X25287211Y25019001D01*
X25891973Y25321382D02*
X24621973Y25321382D01*
X24621973Y25321382D02*
X24621973Y24837572D01*
X24621973Y24837572D02*
X24682450Y24716620D01*
X24682450Y24716620D02*
X24742926Y24656143D01*
X24742926Y24656143D02*
X24863878Y24595667D01*
X24863878Y24595667D02*
X25045307Y24595667D01*
X25045307Y24595667D02*
X25166259Y24656143D01*
X25166259Y24656143D02*
X25226735Y24716620D01*
X25226735Y24716620D02*
X25287211Y24837572D01*
X25287211Y24837572D02*
X25287211Y25321382D01*
X24621973Y23507096D02*
X24621973Y23749001D01*
X24621973Y23749001D02*
X24682450Y23869953D01*
X24682450Y23869953D02*
X24742926Y23930429D01*
X24742926Y23930429D02*
X24924354Y24051382D01*
X24924354Y24051382D02*
X25166259Y24111858D01*
X25166259Y24111858D02*
X25650069Y24111858D01*
X25650069Y24111858D02*
X25771021Y24051382D01*
X25771021Y24051382D02*
X25831497Y23990905D01*
X25831497Y23990905D02*
X25891973Y23869953D01*
X25891973Y23869953D02*
X25891973Y23628048D01*
X25891973Y23628048D02*
X25831497Y23507096D01*
X25831497Y23507096D02*
X25771021Y23446620D01*
X25771021Y23446620D02*
X25650069Y23386143D01*
X25650069Y23386143D02*
X25347688Y23386143D01*
X25347688Y23386143D02*
X25226735Y23446620D01*
X25226735Y23446620D02*
X25166259Y23507096D01*
X25166259Y23507096D02*
X25105783Y23628048D01*
X25105783Y23628048D02*
X25105783Y23869953D01*
X25105783Y23869953D02*
X25166259Y23990905D01*
X25166259Y23990905D02*
X25226735Y24051382D01*
X25226735Y24051382D02*
X25347688Y24111858D01*
%TO.C,C16*%
X52581628Y18374179D02*
X52642104Y18313703D01*
X52642104Y18313703D02*
X52823533Y18253227D01*
X52823533Y18253227D02*
X52944485Y18253227D01*
X52944485Y18253227D02*
X53125914Y18313703D01*
X53125914Y18313703D02*
X53246866Y18434655D01*
X53246866Y18434655D02*
X53307343Y18555608D01*
X53307343Y18555608D02*
X53367819Y18797512D01*
X53367819Y18797512D02*
X53367819Y18978941D01*
X53367819Y18978941D02*
X53307343Y19220846D01*
X53307343Y19220846D02*
X53246866Y19341798D01*
X53246866Y19341798D02*
X53125914Y19462750D01*
X53125914Y19462750D02*
X52944485Y19523227D01*
X52944485Y19523227D02*
X52823533Y19523227D01*
X52823533Y19523227D02*
X52642104Y19462750D01*
X52642104Y19462750D02*
X52581628Y19402274D01*
X51372104Y18253227D02*
X52097819Y18253227D01*
X51734962Y18253227D02*
X51734962Y19523227D01*
X51734962Y19523227D02*
X51855914Y19341798D01*
X51855914Y19341798D02*
X51976866Y19220846D01*
X51976866Y19220846D02*
X52097819Y19160370D01*
X50283533Y19523227D02*
X50525438Y19523227D01*
X50525438Y19523227D02*
X50646390Y19462750D01*
X50646390Y19462750D02*
X50706866Y19402274D01*
X50706866Y19402274D02*
X50827819Y19220846D01*
X50827819Y19220846D02*
X50888295Y18978941D01*
X50888295Y18978941D02*
X50888295Y18495131D01*
X50888295Y18495131D02*
X50827819Y18374179D01*
X50827819Y18374179D02*
X50767342Y18313703D01*
X50767342Y18313703D02*
X50646390Y18253227D01*
X50646390Y18253227D02*
X50404485Y18253227D01*
X50404485Y18253227D02*
X50283533Y18313703D01*
X50283533Y18313703D02*
X50223057Y18374179D01*
X50223057Y18374179D02*
X50162580Y18495131D01*
X50162580Y18495131D02*
X50162580Y18797512D01*
X50162580Y18797512D02*
X50223057Y18918465D01*
X50223057Y18918465D02*
X50283533Y18978941D01*
X50283533Y18978941D02*
X50404485Y19039417D01*
X50404485Y19039417D02*
X50646390Y19039417D01*
X50646390Y19039417D02*
X50767342Y18978941D01*
X50767342Y18978941D02*
X50827819Y18918465D01*
X50827819Y18918465D02*
X50888295Y18797512D01*
%TO.C,C17*%
X48123021Y25657629D02*
X48183497Y25718105D01*
X48183497Y25718105D02*
X48243973Y25899534D01*
X48243973Y25899534D02*
X48243973Y26020486D01*
X48243973Y26020486D02*
X48183497Y26201915D01*
X48183497Y26201915D02*
X48062545Y26322867D01*
X48062545Y26322867D02*
X47941592Y26383344D01*
X47941592Y26383344D02*
X47699688Y26443820D01*
X47699688Y26443820D02*
X47518259Y26443820D01*
X47518259Y26443820D02*
X47276354Y26383344D01*
X47276354Y26383344D02*
X47155402Y26322867D01*
X47155402Y26322867D02*
X47034450Y26201915D01*
X47034450Y26201915D02*
X46973973Y26020486D01*
X46973973Y26020486D02*
X46973973Y25899534D01*
X46973973Y25899534D02*
X47034450Y25718105D01*
X47034450Y25718105D02*
X47094926Y25657629D01*
X48243973Y24448105D02*
X48243973Y25173820D01*
X48243973Y24810963D02*
X46973973Y24810963D01*
X46973973Y24810963D02*
X47155402Y24931915D01*
X47155402Y24931915D02*
X47276354Y25052867D01*
X47276354Y25052867D02*
X47336830Y25173820D01*
X46973973Y24024772D02*
X46973973Y23178105D01*
X46973973Y23178105D02*
X48243973Y23722391D01*
%TO.C,C32*%
X3356428Y43215379D02*
X3416904Y43154903D01*
X3416904Y43154903D02*
X3598333Y43094427D01*
X3598333Y43094427D02*
X3719285Y43094427D01*
X3719285Y43094427D02*
X3900714Y43154903D01*
X3900714Y43154903D02*
X4021666Y43275855D01*
X4021666Y43275855D02*
X4082143Y43396808D01*
X4082143Y43396808D02*
X4142619Y43638712D01*
X4142619Y43638712D02*
X4142619Y43820141D01*
X4142619Y43820141D02*
X4082143Y44062046D01*
X4082143Y44062046D02*
X4021666Y44182998D01*
X4021666Y44182998D02*
X3900714Y44303950D01*
X3900714Y44303950D02*
X3719285Y44364427D01*
X3719285Y44364427D02*
X3598333Y44364427D01*
X3598333Y44364427D02*
X3416904Y44303950D01*
X3416904Y44303950D02*
X3356428Y44243474D01*
X2933095Y44364427D02*
X2146904Y44364427D01*
X2146904Y44364427D02*
X2570238Y43880617D01*
X2570238Y43880617D02*
X2388809Y43880617D01*
X2388809Y43880617D02*
X2267857Y43820141D01*
X2267857Y43820141D02*
X2207381Y43759665D01*
X2207381Y43759665D02*
X2146904Y43638712D01*
X2146904Y43638712D02*
X2146904Y43336331D01*
X2146904Y43336331D02*
X2207381Y43215379D01*
X2207381Y43215379D02*
X2267857Y43154903D01*
X2267857Y43154903D02*
X2388809Y43094427D01*
X2388809Y43094427D02*
X2751666Y43094427D01*
X2751666Y43094427D02*
X2872619Y43154903D01*
X2872619Y43154903D02*
X2933095Y43215379D01*
X1663095Y44243474D02*
X1602619Y44303950D01*
X1602619Y44303950D02*
X1481666Y44364427D01*
X1481666Y44364427D02*
X1179285Y44364427D01*
X1179285Y44364427D02*
X1058333Y44303950D01*
X1058333Y44303950D02*
X997857Y44243474D01*
X997857Y44243474D02*
X937380Y44122522D01*
X937380Y44122522D02*
X937380Y44001570D01*
X937380Y44001570D02*
X997857Y43820141D01*
X997857Y43820141D02*
X1723571Y43094427D01*
X1723571Y43094427D02*
X937380Y43094427D01*
%TO.C,C29*%
X9583621Y26597429D02*
X9644097Y26657905D01*
X9644097Y26657905D02*
X9704573Y26839334D01*
X9704573Y26839334D02*
X9704573Y26960286D01*
X9704573Y26960286D02*
X9644097Y27141715D01*
X9644097Y27141715D02*
X9523145Y27262667D01*
X9523145Y27262667D02*
X9402192Y27323144D01*
X9402192Y27323144D02*
X9160288Y27383620D01*
X9160288Y27383620D02*
X8978859Y27383620D01*
X8978859Y27383620D02*
X8736954Y27323144D01*
X8736954Y27323144D02*
X8616002Y27262667D01*
X8616002Y27262667D02*
X8495050Y27141715D01*
X8495050Y27141715D02*
X8434573Y26960286D01*
X8434573Y26960286D02*
X8434573Y26839334D01*
X8434573Y26839334D02*
X8495050Y26657905D01*
X8495050Y26657905D02*
X8555526Y26597429D01*
X8555526Y26113620D02*
X8495050Y26053144D01*
X8495050Y26053144D02*
X8434573Y25932191D01*
X8434573Y25932191D02*
X8434573Y25629810D01*
X8434573Y25629810D02*
X8495050Y25508858D01*
X8495050Y25508858D02*
X8555526Y25448382D01*
X8555526Y25448382D02*
X8676478Y25387905D01*
X8676478Y25387905D02*
X8797430Y25387905D01*
X8797430Y25387905D02*
X8978859Y25448382D01*
X8978859Y25448382D02*
X9704573Y26174096D01*
X9704573Y26174096D02*
X9704573Y25387905D01*
X9704573Y24783143D02*
X9704573Y24541239D01*
X9704573Y24541239D02*
X9644097Y24420286D01*
X9644097Y24420286D02*
X9583621Y24359810D01*
X9583621Y24359810D02*
X9402192Y24238858D01*
X9402192Y24238858D02*
X9160288Y24178381D01*
X9160288Y24178381D02*
X8676478Y24178381D01*
X8676478Y24178381D02*
X8555526Y24238858D01*
X8555526Y24238858D02*
X8495050Y24299334D01*
X8495050Y24299334D02*
X8434573Y24420286D01*
X8434573Y24420286D02*
X8434573Y24662191D01*
X8434573Y24662191D02*
X8495050Y24783143D01*
X8495050Y24783143D02*
X8555526Y24843620D01*
X8555526Y24843620D02*
X8676478Y24904096D01*
X8676478Y24904096D02*
X8978859Y24904096D01*
X8978859Y24904096D02*
X9099811Y24843620D01*
X9099811Y24843620D02*
X9160288Y24783143D01*
X9160288Y24783143D02*
X9220764Y24662191D01*
X9220764Y24662191D02*
X9220764Y24420286D01*
X9220764Y24420286D02*
X9160288Y24299334D01*
X9160288Y24299334D02*
X9099811Y24238858D01*
X9099811Y24238858D02*
X8978859Y24178381D01*
%TO.C,OSDCOMM1*%
X17112343Y8626627D02*
X16870438Y8626627D01*
X16870438Y8626627D02*
X16749486Y8566150D01*
X16749486Y8566150D02*
X16628533Y8445198D01*
X16628533Y8445198D02*
X16568057Y8203293D01*
X16568057Y8203293D02*
X16568057Y7779960D01*
X16568057Y7779960D02*
X16628533Y7538055D01*
X16628533Y7538055D02*
X16749486Y7417103D01*
X16749486Y7417103D02*
X16870438Y7356627D01*
X16870438Y7356627D02*
X17112343Y7356627D01*
X17112343Y7356627D02*
X17233295Y7417103D01*
X17233295Y7417103D02*
X17354248Y7538055D01*
X17354248Y7538055D02*
X17414724Y7779960D01*
X17414724Y7779960D02*
X17414724Y8203293D01*
X17414724Y8203293D02*
X17354248Y8445198D01*
X17354248Y8445198D02*
X17233295Y8566150D01*
X17233295Y8566150D02*
X17112343Y8626627D01*
X16084248Y7417103D02*
X15902819Y7356627D01*
X15902819Y7356627D02*
X15600438Y7356627D01*
X15600438Y7356627D02*
X15479486Y7417103D01*
X15479486Y7417103D02*
X15419010Y7477579D01*
X15419010Y7477579D02*
X15358533Y7598531D01*
X15358533Y7598531D02*
X15358533Y7719484D01*
X15358533Y7719484D02*
X15419010Y7840436D01*
X15419010Y7840436D02*
X15479486Y7900912D01*
X15479486Y7900912D02*
X15600438Y7961389D01*
X15600438Y7961389D02*
X15842343Y8021865D01*
X15842343Y8021865D02*
X15963295Y8082341D01*
X15963295Y8082341D02*
X16023772Y8142817D01*
X16023772Y8142817D02*
X16084248Y8263770D01*
X16084248Y8263770D02*
X16084248Y8384722D01*
X16084248Y8384722D02*
X16023772Y8505674D01*
X16023772Y8505674D02*
X15963295Y8566150D01*
X15963295Y8566150D02*
X15842343Y8626627D01*
X15842343Y8626627D02*
X15539962Y8626627D01*
X15539962Y8626627D02*
X15358533Y8566150D01*
X14814248Y7356627D02*
X14814248Y8626627D01*
X14814248Y8626627D02*
X14511867Y8626627D01*
X14511867Y8626627D02*
X14330438Y8566150D01*
X14330438Y8566150D02*
X14209486Y8445198D01*
X14209486Y8445198D02*
X14149009Y8324246D01*
X14149009Y8324246D02*
X14088533Y8082341D01*
X14088533Y8082341D02*
X14088533Y7900912D01*
X14088533Y7900912D02*
X14149009Y7659008D01*
X14149009Y7659008D02*
X14209486Y7538055D01*
X14209486Y7538055D02*
X14330438Y7417103D01*
X14330438Y7417103D02*
X14511867Y7356627D01*
X14511867Y7356627D02*
X14814248Y7356627D01*
X12818533Y7477579D02*
X12879009Y7417103D01*
X12879009Y7417103D02*
X13060438Y7356627D01*
X13060438Y7356627D02*
X13181390Y7356627D01*
X13181390Y7356627D02*
X13362819Y7417103D01*
X13362819Y7417103D02*
X13483771Y7538055D01*
X13483771Y7538055D02*
X13544248Y7659008D01*
X13544248Y7659008D02*
X13604724Y7900912D01*
X13604724Y7900912D02*
X13604724Y8082341D01*
X13604724Y8082341D02*
X13544248Y8324246D01*
X13544248Y8324246D02*
X13483771Y8445198D01*
X13483771Y8445198D02*
X13362819Y8566150D01*
X13362819Y8566150D02*
X13181390Y8626627D01*
X13181390Y8626627D02*
X13060438Y8626627D01*
X13060438Y8626627D02*
X12879009Y8566150D01*
X12879009Y8566150D02*
X12818533Y8505674D01*
X12032343Y8626627D02*
X11790438Y8626627D01*
X11790438Y8626627D02*
X11669486Y8566150D01*
X11669486Y8566150D02*
X11548533Y8445198D01*
X11548533Y8445198D02*
X11488057Y8203293D01*
X11488057Y8203293D02*
X11488057Y7779960D01*
X11488057Y7779960D02*
X11548533Y7538055D01*
X11548533Y7538055D02*
X11669486Y7417103D01*
X11669486Y7417103D02*
X11790438Y7356627D01*
X11790438Y7356627D02*
X12032343Y7356627D01*
X12032343Y7356627D02*
X12153295Y7417103D01*
X12153295Y7417103D02*
X12274248Y7538055D01*
X12274248Y7538055D02*
X12334724Y7779960D01*
X12334724Y7779960D02*
X12334724Y8203293D01*
X12334724Y8203293D02*
X12274248Y8445198D01*
X12274248Y8445198D02*
X12153295Y8566150D01*
X12153295Y8566150D02*
X12032343Y8626627D01*
X10943772Y7356627D02*
X10943772Y8626627D01*
X10943772Y8626627D02*
X10520438Y7719484D01*
X10520438Y7719484D02*
X10097105Y8626627D01*
X10097105Y8626627D02*
X10097105Y7356627D01*
X9492343Y7356627D02*
X9492343Y8626627D01*
X9492343Y8626627D02*
X9069009Y7719484D01*
X9069009Y7719484D02*
X8645676Y8626627D01*
X8645676Y8626627D02*
X8645676Y7356627D01*
X7375675Y7356627D02*
X8101390Y7356627D01*
X7738533Y7356627D02*
X7738533Y8626627D01*
X7738533Y8626627D02*
X7859485Y8445198D01*
X7859485Y8445198D02*
X7980437Y8324246D01*
X7980437Y8324246D02*
X8101390Y8263770D01*
%TO.C,J5*%
X81365573Y19727333D02*
X82272716Y19727333D01*
X82272716Y19727333D02*
X82454145Y19787810D01*
X82454145Y19787810D02*
X82575097Y19908762D01*
X82575097Y19908762D02*
X82635573Y20090191D01*
X82635573Y20090191D02*
X82635573Y20211143D01*
X81365573Y18517810D02*
X81365573Y19122572D01*
X81365573Y19122572D02*
X81970335Y19183048D01*
X81970335Y19183048D02*
X81909859Y19122572D01*
X81909859Y19122572D02*
X81849383Y19001619D01*
X81849383Y19001619D02*
X81849383Y18699238D01*
X81849383Y18699238D02*
X81909859Y18578286D01*
X81909859Y18578286D02*
X81970335Y18517810D01*
X81970335Y18517810D02*
X82091288Y18457333D01*
X82091288Y18457333D02*
X82393669Y18457333D01*
X82393669Y18457333D02*
X82514621Y18517810D01*
X82514621Y18517810D02*
X82575097Y18578286D01*
X82575097Y18578286D02*
X82635573Y18699238D01*
X82635573Y18699238D02*
X82635573Y19001619D01*
X82635573Y19001619D02*
X82575097Y19122572D01*
X82575097Y19122572D02*
X82514621Y19183048D01*
%TO.C,R10*%
X20761173Y24667029D02*
X20156411Y25090363D01*
X20761173Y25392744D02*
X19491173Y25392744D01*
X19491173Y25392744D02*
X19491173Y24908934D01*
X19491173Y24908934D02*
X19551650Y24787982D01*
X19551650Y24787982D02*
X19612126Y24727505D01*
X19612126Y24727505D02*
X19733078Y24667029D01*
X19733078Y24667029D02*
X19914507Y24667029D01*
X19914507Y24667029D02*
X20035459Y24727505D01*
X20035459Y24727505D02*
X20095935Y24787982D01*
X20095935Y24787982D02*
X20156411Y24908934D01*
X20156411Y24908934D02*
X20156411Y25392744D01*
X20761173Y23457505D02*
X20761173Y24183220D01*
X20761173Y23820363D02*
X19491173Y23820363D01*
X19491173Y23820363D02*
X19672602Y23941315D01*
X19672602Y23941315D02*
X19793554Y24062267D01*
X19793554Y24062267D02*
X19854030Y24183220D01*
X19491173Y22671315D02*
X19491173Y22550362D01*
X19491173Y22550362D02*
X19551650Y22429410D01*
X19551650Y22429410D02*
X19612126Y22368934D01*
X19612126Y22368934D02*
X19733078Y22308458D01*
X19733078Y22308458D02*
X19974983Y22247981D01*
X19974983Y22247981D02*
X20277364Y22247981D01*
X20277364Y22247981D02*
X20519269Y22308458D01*
X20519269Y22308458D02*
X20640221Y22368934D01*
X20640221Y22368934D02*
X20700697Y22429410D01*
X20700697Y22429410D02*
X20761173Y22550362D01*
X20761173Y22550362D02*
X20761173Y22671315D01*
X20761173Y22671315D02*
X20700697Y22792267D01*
X20700697Y22792267D02*
X20640221Y22852743D01*
X20640221Y22852743D02*
X20519269Y22913220D01*
X20519269Y22913220D02*
X20277364Y22973696D01*
X20277364Y22973696D02*
X19974983Y22973696D01*
X19974983Y22973696D02*
X19733078Y22913220D01*
X19733078Y22913220D02*
X19612126Y22852743D01*
X19612126Y22852743D02*
X19551650Y22792267D01*
X19551650Y22792267D02*
X19491173Y22671315D01*
%TO.C,C23*%
X28819021Y12805229D02*
X28879497Y12865705D01*
X28879497Y12865705D02*
X28939973Y13047134D01*
X28939973Y13047134D02*
X28939973Y13168086D01*
X28939973Y13168086D02*
X28879497Y13349515D01*
X28879497Y13349515D02*
X28758545Y13470467D01*
X28758545Y13470467D02*
X28637592Y13530944D01*
X28637592Y13530944D02*
X28395688Y13591420D01*
X28395688Y13591420D02*
X28214259Y13591420D01*
X28214259Y13591420D02*
X27972354Y13530944D01*
X27972354Y13530944D02*
X27851402Y13470467D01*
X27851402Y13470467D02*
X27730450Y13349515D01*
X27730450Y13349515D02*
X27669973Y13168086D01*
X27669973Y13168086D02*
X27669973Y13047134D01*
X27669973Y13047134D02*
X27730450Y12865705D01*
X27730450Y12865705D02*
X27790926Y12805229D01*
X27790926Y12321420D02*
X27730450Y12260944D01*
X27730450Y12260944D02*
X27669973Y12139991D01*
X27669973Y12139991D02*
X27669973Y11837610D01*
X27669973Y11837610D02*
X27730450Y11716658D01*
X27730450Y11716658D02*
X27790926Y11656182D01*
X27790926Y11656182D02*
X27911878Y11595705D01*
X27911878Y11595705D02*
X28032830Y11595705D01*
X28032830Y11595705D02*
X28214259Y11656182D01*
X28214259Y11656182D02*
X28939973Y12381896D01*
X28939973Y12381896D02*
X28939973Y11595705D01*
X27669973Y11172372D02*
X27669973Y10386181D01*
X27669973Y10386181D02*
X28153783Y10809515D01*
X28153783Y10809515D02*
X28153783Y10628086D01*
X28153783Y10628086D02*
X28214259Y10507134D01*
X28214259Y10507134D02*
X28274735Y10446658D01*
X28274735Y10446658D02*
X28395688Y10386181D01*
X28395688Y10386181D02*
X28698069Y10386181D01*
X28698069Y10386181D02*
X28819021Y10446658D01*
X28819021Y10446658D02*
X28879497Y10507134D01*
X28879497Y10507134D02*
X28939973Y10628086D01*
X28939973Y10628086D02*
X28939973Y10990943D01*
X28939973Y10990943D02*
X28879497Y11111896D01*
X28879497Y11111896D02*
X28819021Y11172372D01*
%TO.C,C31*%
X7674428Y416379D02*
X7734904Y355903D01*
X7734904Y355903D02*
X7916333Y295427D01*
X7916333Y295427D02*
X8037285Y295427D01*
X8037285Y295427D02*
X8218714Y355903D01*
X8218714Y355903D02*
X8339666Y476855D01*
X8339666Y476855D02*
X8400143Y597808D01*
X8400143Y597808D02*
X8460619Y839712D01*
X8460619Y839712D02*
X8460619Y1021141D01*
X8460619Y1021141D02*
X8400143Y1263046D01*
X8400143Y1263046D02*
X8339666Y1383998D01*
X8339666Y1383998D02*
X8218714Y1504950D01*
X8218714Y1504950D02*
X8037285Y1565427D01*
X8037285Y1565427D02*
X7916333Y1565427D01*
X7916333Y1565427D02*
X7734904Y1504950D01*
X7734904Y1504950D02*
X7674428Y1444474D01*
X7251095Y1565427D02*
X6464904Y1565427D01*
X6464904Y1565427D02*
X6888238Y1081617D01*
X6888238Y1081617D02*
X6706809Y1081617D01*
X6706809Y1081617D02*
X6585857Y1021141D01*
X6585857Y1021141D02*
X6525381Y960665D01*
X6525381Y960665D02*
X6464904Y839712D01*
X6464904Y839712D02*
X6464904Y537331D01*
X6464904Y537331D02*
X6525381Y416379D01*
X6525381Y416379D02*
X6585857Y355903D01*
X6585857Y355903D02*
X6706809Y295427D01*
X6706809Y295427D02*
X7069666Y295427D01*
X7069666Y295427D02*
X7190619Y355903D01*
X7190619Y355903D02*
X7251095Y416379D01*
X5255380Y295427D02*
X5981095Y295427D01*
X5618238Y295427D02*
X5618238Y1565427D01*
X5618238Y1565427D02*
X5739190Y1383998D01*
X5739190Y1383998D02*
X5860142Y1263046D01*
X5860142Y1263046D02*
X5981095Y1202570D01*
%TO.C,R5*%
X29676573Y6358467D02*
X29071811Y6781801D01*
X29676573Y7084182D02*
X28406573Y7084182D01*
X28406573Y7084182D02*
X28406573Y6600372D01*
X28406573Y6600372D02*
X28467050Y6479420D01*
X28467050Y6479420D02*
X28527526Y6418943D01*
X28527526Y6418943D02*
X28648478Y6358467D01*
X28648478Y6358467D02*
X28829907Y6358467D01*
X28829907Y6358467D02*
X28950859Y6418943D01*
X28950859Y6418943D02*
X29011335Y6479420D01*
X29011335Y6479420D02*
X29071811Y6600372D01*
X29071811Y6600372D02*
X29071811Y7084182D01*
X28406573Y5209420D02*
X28406573Y5814182D01*
X28406573Y5814182D02*
X29011335Y5874658D01*
X29011335Y5874658D02*
X28950859Y5814182D01*
X28950859Y5814182D02*
X28890383Y5693229D01*
X28890383Y5693229D02*
X28890383Y5390848D01*
X28890383Y5390848D02*
X28950859Y5269896D01*
X28950859Y5269896D02*
X29011335Y5209420D01*
X29011335Y5209420D02*
X29132288Y5148943D01*
X29132288Y5148943D02*
X29434669Y5148943D01*
X29434669Y5148943D02*
X29555621Y5209420D01*
X29555621Y5209420D02*
X29616097Y5269896D01*
X29616097Y5269896D02*
X29676573Y5390848D01*
X29676573Y5390848D02*
X29676573Y5693229D01*
X29676573Y5693229D02*
X29616097Y5814182D01*
X29616097Y5814182D02*
X29555621Y5874658D01*
%TO.C,IC5*%
X5430762Y26698427D02*
X5430762Y27968427D01*
X4100285Y26819379D02*
X4160761Y26758903D01*
X4160761Y26758903D02*
X4342190Y26698427D01*
X4342190Y26698427D02*
X4463142Y26698427D01*
X4463142Y26698427D02*
X4644571Y26758903D01*
X4644571Y26758903D02*
X4765523Y26879855D01*
X4765523Y26879855D02*
X4826000Y27000808D01*
X4826000Y27000808D02*
X4886476Y27242712D01*
X4886476Y27242712D02*
X4886476Y27424141D01*
X4886476Y27424141D02*
X4826000Y27666046D01*
X4826000Y27666046D02*
X4765523Y27786998D01*
X4765523Y27786998D02*
X4644571Y27907950D01*
X4644571Y27907950D02*
X4463142Y27968427D01*
X4463142Y27968427D02*
X4342190Y27968427D01*
X4342190Y27968427D02*
X4160761Y27907950D01*
X4160761Y27907950D02*
X4100285Y27847474D01*
X2951238Y27968427D02*
X3556000Y27968427D01*
X3556000Y27968427D02*
X3616476Y27363665D01*
X3616476Y27363665D02*
X3556000Y27424141D01*
X3556000Y27424141D02*
X3435047Y27484617D01*
X3435047Y27484617D02*
X3132666Y27484617D01*
X3132666Y27484617D02*
X3011714Y27424141D01*
X3011714Y27424141D02*
X2951238Y27363665D01*
X2951238Y27363665D02*
X2890761Y27242712D01*
X2890761Y27242712D02*
X2890761Y26940331D01*
X2890761Y26940331D02*
X2951238Y26819379D01*
X2951238Y26819379D02*
X3011714Y26758903D01*
X3011714Y26758903D02*
X3132666Y26698427D01*
X3132666Y26698427D02*
X3435047Y26698427D01*
X3435047Y26698427D02*
X3556000Y26758903D01*
X3556000Y26758903D02*
X3616476Y26819379D01*
%TO.C,C13*%
X76977421Y24336829D02*
X77037897Y24397305D01*
X77037897Y24397305D02*
X77098373Y24578734D01*
X77098373Y24578734D02*
X77098373Y24699686D01*
X77098373Y24699686D02*
X77037897Y24881115D01*
X77037897Y24881115D02*
X76916945Y25002067D01*
X76916945Y25002067D02*
X76795992Y25062544D01*
X76795992Y25062544D02*
X76554088Y25123020D01*
X76554088Y25123020D02*
X76372659Y25123020D01*
X76372659Y25123020D02*
X76130754Y25062544D01*
X76130754Y25062544D02*
X76009802Y25002067D01*
X76009802Y25002067D02*
X75888850Y24881115D01*
X75888850Y24881115D02*
X75828373Y24699686D01*
X75828373Y24699686D02*
X75828373Y24578734D01*
X75828373Y24578734D02*
X75888850Y24397305D01*
X75888850Y24397305D02*
X75949326Y24336829D01*
X77098373Y23127305D02*
X77098373Y23853020D01*
X77098373Y23490163D02*
X75828373Y23490163D01*
X75828373Y23490163D02*
X76009802Y23611115D01*
X76009802Y23611115D02*
X76130754Y23732067D01*
X76130754Y23732067D02*
X76191230Y23853020D01*
X75828373Y22703972D02*
X75828373Y21917781D01*
X75828373Y21917781D02*
X76312183Y22341115D01*
X76312183Y22341115D02*
X76312183Y22159686D01*
X76312183Y22159686D02*
X76372659Y22038734D01*
X76372659Y22038734D02*
X76433135Y21978258D01*
X76433135Y21978258D02*
X76554088Y21917781D01*
X76554088Y21917781D02*
X76856469Y21917781D01*
X76856469Y21917781D02*
X76977421Y21978258D01*
X76977421Y21978258D02*
X77037897Y22038734D01*
X77037897Y22038734D02*
X77098373Y22159686D01*
X77098373Y22159686D02*
X77098373Y22522543D01*
X77098373Y22522543D02*
X77037897Y22643496D01*
X77037897Y22643496D02*
X76977421Y22703972D01*
%TO.C,C20*%
X25618621Y19739429D02*
X25679097Y19799905D01*
X25679097Y19799905D02*
X25739573Y19981334D01*
X25739573Y19981334D02*
X25739573Y20102286D01*
X25739573Y20102286D02*
X25679097Y20283715D01*
X25679097Y20283715D02*
X25558145Y20404667D01*
X25558145Y20404667D02*
X25437192Y20465144D01*
X25437192Y20465144D02*
X25195288Y20525620D01*
X25195288Y20525620D02*
X25013859Y20525620D01*
X25013859Y20525620D02*
X24771954Y20465144D01*
X24771954Y20465144D02*
X24651002Y20404667D01*
X24651002Y20404667D02*
X24530050Y20283715D01*
X24530050Y20283715D02*
X24469573Y20102286D01*
X24469573Y20102286D02*
X24469573Y19981334D01*
X24469573Y19981334D02*
X24530050Y19799905D01*
X24530050Y19799905D02*
X24590526Y19739429D01*
X24590526Y19255620D02*
X24530050Y19195144D01*
X24530050Y19195144D02*
X24469573Y19074191D01*
X24469573Y19074191D02*
X24469573Y18771810D01*
X24469573Y18771810D02*
X24530050Y18650858D01*
X24530050Y18650858D02*
X24590526Y18590382D01*
X24590526Y18590382D02*
X24711478Y18529905D01*
X24711478Y18529905D02*
X24832430Y18529905D01*
X24832430Y18529905D02*
X25013859Y18590382D01*
X25013859Y18590382D02*
X25739573Y19316096D01*
X25739573Y19316096D02*
X25739573Y18529905D01*
X24469573Y17743715D02*
X24469573Y17622762D01*
X24469573Y17622762D02*
X24530050Y17501810D01*
X24530050Y17501810D02*
X24590526Y17441334D01*
X24590526Y17441334D02*
X24711478Y17380858D01*
X24711478Y17380858D02*
X24953383Y17320381D01*
X24953383Y17320381D02*
X25255764Y17320381D01*
X25255764Y17320381D02*
X25497669Y17380858D01*
X25497669Y17380858D02*
X25618621Y17441334D01*
X25618621Y17441334D02*
X25679097Y17501810D01*
X25679097Y17501810D02*
X25739573Y17622762D01*
X25739573Y17622762D02*
X25739573Y17743715D01*
X25739573Y17743715D02*
X25679097Y17864667D01*
X25679097Y17864667D02*
X25618621Y17925143D01*
X25618621Y17925143D02*
X25497669Y17985620D01*
X25497669Y17985620D02*
X25255764Y18046096D01*
X25255764Y18046096D02*
X24953383Y18046096D01*
X24953383Y18046096D02*
X24711478Y17985620D01*
X24711478Y17985620D02*
X24590526Y17925143D01*
X24590526Y17925143D02*
X24530050Y17864667D01*
X24530050Y17864667D02*
X24469573Y17743715D01*
%TO.C,C18*%
X42497828Y26629179D02*
X42558304Y26568703D01*
X42558304Y26568703D02*
X42739733Y26508227D01*
X42739733Y26508227D02*
X42860685Y26508227D01*
X42860685Y26508227D02*
X43042114Y26568703D01*
X43042114Y26568703D02*
X43163066Y26689655D01*
X43163066Y26689655D02*
X43223543Y26810608D01*
X43223543Y26810608D02*
X43284019Y27052512D01*
X43284019Y27052512D02*
X43284019Y27233941D01*
X43284019Y27233941D02*
X43223543Y27475846D01*
X43223543Y27475846D02*
X43163066Y27596798D01*
X43163066Y27596798D02*
X43042114Y27717750D01*
X43042114Y27717750D02*
X42860685Y27778227D01*
X42860685Y27778227D02*
X42739733Y27778227D01*
X42739733Y27778227D02*
X42558304Y27717750D01*
X42558304Y27717750D02*
X42497828Y27657274D01*
X41288304Y26508227D02*
X42014019Y26508227D01*
X41651162Y26508227D02*
X41651162Y27778227D01*
X41651162Y27778227D02*
X41772114Y27596798D01*
X41772114Y27596798D02*
X41893066Y27475846D01*
X41893066Y27475846D02*
X42014019Y27415370D01*
X40562590Y27233941D02*
X40683542Y27294417D01*
X40683542Y27294417D02*
X40744019Y27354893D01*
X40744019Y27354893D02*
X40804495Y27475846D01*
X40804495Y27475846D02*
X40804495Y27536322D01*
X40804495Y27536322D02*
X40744019Y27657274D01*
X40744019Y27657274D02*
X40683542Y27717750D01*
X40683542Y27717750D02*
X40562590Y27778227D01*
X40562590Y27778227D02*
X40320685Y27778227D01*
X40320685Y27778227D02*
X40199733Y27717750D01*
X40199733Y27717750D02*
X40139257Y27657274D01*
X40139257Y27657274D02*
X40078780Y27536322D01*
X40078780Y27536322D02*
X40078780Y27475846D01*
X40078780Y27475846D02*
X40139257Y27354893D01*
X40139257Y27354893D02*
X40199733Y27294417D01*
X40199733Y27294417D02*
X40320685Y27233941D01*
X40320685Y27233941D02*
X40562590Y27233941D01*
X40562590Y27233941D02*
X40683542Y27173465D01*
X40683542Y27173465D02*
X40744019Y27112989D01*
X40744019Y27112989D02*
X40804495Y26992036D01*
X40804495Y26992036D02*
X40804495Y26750131D01*
X40804495Y26750131D02*
X40744019Y26629179D01*
X40744019Y26629179D02*
X40683542Y26568703D01*
X40683542Y26568703D02*
X40562590Y26508227D01*
X40562590Y26508227D02*
X40320685Y26508227D01*
X40320685Y26508227D02*
X40199733Y26568703D01*
X40199733Y26568703D02*
X40139257Y26629179D01*
X40139257Y26629179D02*
X40078780Y26750131D01*
X40078780Y26750131D02*
X40078780Y26992036D01*
X40078780Y26992036D02*
X40139257Y27112989D01*
X40139257Y27112989D02*
X40199733Y27173465D01*
X40199733Y27173465D02*
X40320685Y27233941D01*
%TO.C,C26*%
X20882428Y10906579D02*
X20942904Y10846103D01*
X20942904Y10846103D02*
X21124333Y10785627D01*
X21124333Y10785627D02*
X21245285Y10785627D01*
X21245285Y10785627D02*
X21426714Y10846103D01*
X21426714Y10846103D02*
X21547666Y10967055D01*
X21547666Y10967055D02*
X21608143Y11088008D01*
X21608143Y11088008D02*
X21668619Y11329912D01*
X21668619Y11329912D02*
X21668619Y11511341D01*
X21668619Y11511341D02*
X21608143Y11753246D01*
X21608143Y11753246D02*
X21547666Y11874198D01*
X21547666Y11874198D02*
X21426714Y11995150D01*
X21426714Y11995150D02*
X21245285Y12055627D01*
X21245285Y12055627D02*
X21124333Y12055627D01*
X21124333Y12055627D02*
X20942904Y11995150D01*
X20942904Y11995150D02*
X20882428Y11934674D01*
X20398619Y11934674D02*
X20338143Y11995150D01*
X20338143Y11995150D02*
X20217190Y12055627D01*
X20217190Y12055627D02*
X19914809Y12055627D01*
X19914809Y12055627D02*
X19793857Y11995150D01*
X19793857Y11995150D02*
X19733381Y11934674D01*
X19733381Y11934674D02*
X19672904Y11813722D01*
X19672904Y11813722D02*
X19672904Y11692770D01*
X19672904Y11692770D02*
X19733381Y11511341D01*
X19733381Y11511341D02*
X20459095Y10785627D01*
X20459095Y10785627D02*
X19672904Y10785627D01*
X18584333Y12055627D02*
X18826238Y12055627D01*
X18826238Y12055627D02*
X18947190Y11995150D01*
X18947190Y11995150D02*
X19007666Y11934674D01*
X19007666Y11934674D02*
X19128619Y11753246D01*
X19128619Y11753246D02*
X19189095Y11511341D01*
X19189095Y11511341D02*
X19189095Y11027531D01*
X19189095Y11027531D02*
X19128619Y10906579D01*
X19128619Y10906579D02*
X19068142Y10846103D01*
X19068142Y10846103D02*
X18947190Y10785627D01*
X18947190Y10785627D02*
X18705285Y10785627D01*
X18705285Y10785627D02*
X18584333Y10846103D01*
X18584333Y10846103D02*
X18523857Y10906579D01*
X18523857Y10906579D02*
X18463380Y11027531D01*
X18463380Y11027531D02*
X18463380Y11329912D01*
X18463380Y11329912D02*
X18523857Y11450865D01*
X18523857Y11450865D02*
X18584333Y11511341D01*
X18584333Y11511341D02*
X18705285Y11571817D01*
X18705285Y11571817D02*
X18947190Y11571817D01*
X18947190Y11571817D02*
X19068142Y11511341D01*
X19068142Y11511341D02*
X19128619Y11450865D01*
X19128619Y11450865D02*
X19189095Y11329912D01*
%TO.C,C24*%
X29924828Y8239579D02*
X29985304Y8179103D01*
X29985304Y8179103D02*
X30166733Y8118627D01*
X30166733Y8118627D02*
X30287685Y8118627D01*
X30287685Y8118627D02*
X30469114Y8179103D01*
X30469114Y8179103D02*
X30590066Y8300055D01*
X30590066Y8300055D02*
X30650543Y8421008D01*
X30650543Y8421008D02*
X30711019Y8662912D01*
X30711019Y8662912D02*
X30711019Y8844341D01*
X30711019Y8844341D02*
X30650543Y9086246D01*
X30650543Y9086246D02*
X30590066Y9207198D01*
X30590066Y9207198D02*
X30469114Y9328150D01*
X30469114Y9328150D02*
X30287685Y9388627D01*
X30287685Y9388627D02*
X30166733Y9388627D01*
X30166733Y9388627D02*
X29985304Y9328150D01*
X29985304Y9328150D02*
X29924828Y9267674D01*
X29441019Y9267674D02*
X29380543Y9328150D01*
X29380543Y9328150D02*
X29259590Y9388627D01*
X29259590Y9388627D02*
X28957209Y9388627D01*
X28957209Y9388627D02*
X28836257Y9328150D01*
X28836257Y9328150D02*
X28775781Y9267674D01*
X28775781Y9267674D02*
X28715304Y9146722D01*
X28715304Y9146722D02*
X28715304Y9025770D01*
X28715304Y9025770D02*
X28775781Y8844341D01*
X28775781Y8844341D02*
X29501495Y8118627D01*
X29501495Y8118627D02*
X28715304Y8118627D01*
X27626733Y8965293D02*
X27626733Y8118627D01*
X27929114Y9449103D02*
X28231495Y8541960D01*
X28231495Y8541960D02*
X27445304Y8541960D01*
%TO.C,C22*%
X28234821Y19510829D02*
X28295297Y19571305D01*
X28295297Y19571305D02*
X28355773Y19752734D01*
X28355773Y19752734D02*
X28355773Y19873686D01*
X28355773Y19873686D02*
X28295297Y20055115D01*
X28295297Y20055115D02*
X28174345Y20176067D01*
X28174345Y20176067D02*
X28053392Y20236544D01*
X28053392Y20236544D02*
X27811488Y20297020D01*
X27811488Y20297020D02*
X27630059Y20297020D01*
X27630059Y20297020D02*
X27388154Y20236544D01*
X27388154Y20236544D02*
X27267202Y20176067D01*
X27267202Y20176067D02*
X27146250Y20055115D01*
X27146250Y20055115D02*
X27085773Y19873686D01*
X27085773Y19873686D02*
X27085773Y19752734D01*
X27085773Y19752734D02*
X27146250Y19571305D01*
X27146250Y19571305D02*
X27206726Y19510829D01*
X27206726Y19027020D02*
X27146250Y18966544D01*
X27146250Y18966544D02*
X27085773Y18845591D01*
X27085773Y18845591D02*
X27085773Y18543210D01*
X27085773Y18543210D02*
X27146250Y18422258D01*
X27146250Y18422258D02*
X27206726Y18361782D01*
X27206726Y18361782D02*
X27327678Y18301305D01*
X27327678Y18301305D02*
X27448630Y18301305D01*
X27448630Y18301305D02*
X27630059Y18361782D01*
X27630059Y18361782D02*
X28355773Y19087496D01*
X28355773Y19087496D02*
X28355773Y18301305D01*
X27206726Y17817496D02*
X27146250Y17757020D01*
X27146250Y17757020D02*
X27085773Y17636067D01*
X27085773Y17636067D02*
X27085773Y17333686D01*
X27085773Y17333686D02*
X27146250Y17212734D01*
X27146250Y17212734D02*
X27206726Y17152258D01*
X27206726Y17152258D02*
X27327678Y17091781D01*
X27327678Y17091781D02*
X27448630Y17091781D01*
X27448630Y17091781D02*
X27630059Y17152258D01*
X27630059Y17152258D02*
X28355773Y17877972D01*
X28355773Y17877972D02*
X28355773Y17091781D01*
%TO.C,R1*%
X71738973Y19769667D02*
X71134211Y20193001D01*
X71738973Y20495382D02*
X70468973Y20495382D01*
X70468973Y20495382D02*
X70468973Y20011572D01*
X70468973Y20011572D02*
X70529450Y19890620D01*
X70529450Y19890620D02*
X70589926Y19830143D01*
X70589926Y19830143D02*
X70710878Y19769667D01*
X70710878Y19769667D02*
X70892307Y19769667D01*
X70892307Y19769667D02*
X71013259Y19830143D01*
X71013259Y19830143D02*
X71073735Y19890620D01*
X71073735Y19890620D02*
X71134211Y20011572D01*
X71134211Y20011572D02*
X71134211Y20495382D01*
X71738973Y18560143D02*
X71738973Y19285858D01*
X71738973Y18923001D02*
X70468973Y18923001D01*
X70468973Y18923001D02*
X70650402Y19043953D01*
X70650402Y19043953D02*
X70771354Y19164905D01*
X70771354Y19164905D02*
X70831830Y19285858D01*
%TO.C,U7*%
X32285819Y26355827D02*
X32285819Y25327731D01*
X32285819Y25327731D02*
X32225342Y25206779D01*
X32225342Y25206779D02*
X32164866Y25146303D01*
X32164866Y25146303D02*
X32043914Y25085827D01*
X32043914Y25085827D02*
X31802009Y25085827D01*
X31802009Y25085827D02*
X31681057Y25146303D01*
X31681057Y25146303D02*
X31620580Y25206779D01*
X31620580Y25206779D02*
X31560104Y25327731D01*
X31560104Y25327731D02*
X31560104Y26355827D01*
X31076295Y26355827D02*
X30229628Y26355827D01*
X30229628Y26355827D02*
X30773914Y25085827D01*
%TO.C,C33*%
X3762828Y19872779D02*
X3823304Y19812303D01*
X3823304Y19812303D02*
X4004733Y19751827D01*
X4004733Y19751827D02*
X4125685Y19751827D01*
X4125685Y19751827D02*
X4307114Y19812303D01*
X4307114Y19812303D02*
X4428066Y19933255D01*
X4428066Y19933255D02*
X4488543Y20054208D01*
X4488543Y20054208D02*
X4549019Y20296112D01*
X4549019Y20296112D02*
X4549019Y20477541D01*
X4549019Y20477541D02*
X4488543Y20719446D01*
X4488543Y20719446D02*
X4428066Y20840398D01*
X4428066Y20840398D02*
X4307114Y20961350D01*
X4307114Y20961350D02*
X4125685Y21021827D01*
X4125685Y21021827D02*
X4004733Y21021827D01*
X4004733Y21021827D02*
X3823304Y20961350D01*
X3823304Y20961350D02*
X3762828Y20900874D01*
X3339495Y21021827D02*
X2553304Y21021827D01*
X2553304Y21021827D02*
X2976638Y20538017D01*
X2976638Y20538017D02*
X2795209Y20538017D01*
X2795209Y20538017D02*
X2674257Y20477541D01*
X2674257Y20477541D02*
X2613781Y20417065D01*
X2613781Y20417065D02*
X2553304Y20296112D01*
X2553304Y20296112D02*
X2553304Y19993731D01*
X2553304Y19993731D02*
X2613781Y19872779D01*
X2613781Y19872779D02*
X2674257Y19812303D01*
X2674257Y19812303D02*
X2795209Y19751827D01*
X2795209Y19751827D02*
X3158066Y19751827D01*
X3158066Y19751827D02*
X3279019Y19812303D01*
X3279019Y19812303D02*
X3339495Y19872779D01*
X2129971Y21021827D02*
X1343780Y21021827D01*
X1343780Y21021827D02*
X1767114Y20538017D01*
X1767114Y20538017D02*
X1585685Y20538017D01*
X1585685Y20538017D02*
X1464733Y20477541D01*
X1464733Y20477541D02*
X1404257Y20417065D01*
X1404257Y20417065D02*
X1343780Y20296112D01*
X1343780Y20296112D02*
X1343780Y19993731D01*
X1343780Y19993731D02*
X1404257Y19872779D01*
X1404257Y19872779D02*
X1464733Y19812303D01*
X1464733Y19812303D02*
X1585685Y19751827D01*
X1585685Y19751827D02*
X1948542Y19751827D01*
X1948542Y19751827D02*
X2069495Y19812303D01*
X2069495Y19812303D02*
X2129971Y19872779D01*
%TO.C,R9*%
X23351973Y24595667D02*
X22747211Y25019001D01*
X23351973Y25321382D02*
X22081973Y25321382D01*
X22081973Y25321382D02*
X22081973Y24837572D01*
X22081973Y24837572D02*
X22142450Y24716620D01*
X22142450Y24716620D02*
X22202926Y24656143D01*
X22202926Y24656143D02*
X22323878Y24595667D01*
X22323878Y24595667D02*
X22505307Y24595667D01*
X22505307Y24595667D02*
X22626259Y24656143D01*
X22626259Y24656143D02*
X22686735Y24716620D01*
X22686735Y24716620D02*
X22747211Y24837572D01*
X22747211Y24837572D02*
X22747211Y25321382D01*
X23351973Y23990905D02*
X23351973Y23749001D01*
X23351973Y23749001D02*
X23291497Y23628048D01*
X23291497Y23628048D02*
X23231021Y23567572D01*
X23231021Y23567572D02*
X23049592Y23446620D01*
X23049592Y23446620D02*
X22807688Y23386143D01*
X22807688Y23386143D02*
X22323878Y23386143D01*
X22323878Y23386143D02*
X22202926Y23446620D01*
X22202926Y23446620D02*
X22142450Y23507096D01*
X22142450Y23507096D02*
X22081973Y23628048D01*
X22081973Y23628048D02*
X22081973Y23869953D01*
X22081973Y23869953D02*
X22142450Y23990905D01*
X22142450Y23990905D02*
X22202926Y24051382D01*
X22202926Y24051382D02*
X22323878Y24111858D01*
X22323878Y24111858D02*
X22626259Y24111858D01*
X22626259Y24111858D02*
X22747211Y24051382D01*
X22747211Y24051382D02*
X22807688Y23990905D01*
X22807688Y23990905D02*
X22868164Y23869953D01*
X22868164Y23869953D02*
X22868164Y23628048D01*
X22868164Y23628048D02*
X22807688Y23507096D01*
X22807688Y23507096D02*
X22747211Y23446620D01*
X22747211Y23446620D02*
X22626259Y23386143D01*
%TO.C,C25*%
X23485021Y12754429D02*
X23545497Y12814905D01*
X23545497Y12814905D02*
X23605973Y12996334D01*
X23605973Y12996334D02*
X23605973Y13117286D01*
X23605973Y13117286D02*
X23545497Y13298715D01*
X23545497Y13298715D02*
X23424545Y13419667D01*
X23424545Y13419667D02*
X23303592Y13480144D01*
X23303592Y13480144D02*
X23061688Y13540620D01*
X23061688Y13540620D02*
X22880259Y13540620D01*
X22880259Y13540620D02*
X22638354Y13480144D01*
X22638354Y13480144D02*
X22517402Y13419667D01*
X22517402Y13419667D02*
X22396450Y13298715D01*
X22396450Y13298715D02*
X22335973Y13117286D01*
X22335973Y13117286D02*
X22335973Y12996334D01*
X22335973Y12996334D02*
X22396450Y12814905D01*
X22396450Y12814905D02*
X22456926Y12754429D01*
X22456926Y12270620D02*
X22396450Y12210144D01*
X22396450Y12210144D02*
X22335973Y12089191D01*
X22335973Y12089191D02*
X22335973Y11786810D01*
X22335973Y11786810D02*
X22396450Y11665858D01*
X22396450Y11665858D02*
X22456926Y11605382D01*
X22456926Y11605382D02*
X22577878Y11544905D01*
X22577878Y11544905D02*
X22698830Y11544905D01*
X22698830Y11544905D02*
X22880259Y11605382D01*
X22880259Y11605382D02*
X23605973Y12331096D01*
X23605973Y12331096D02*
X23605973Y11544905D01*
X22335973Y10395858D02*
X22335973Y11000620D01*
X22335973Y11000620D02*
X22940735Y11061096D01*
X22940735Y11061096D02*
X22880259Y11000620D01*
X22880259Y11000620D02*
X22819783Y10879667D01*
X22819783Y10879667D02*
X22819783Y10577286D01*
X22819783Y10577286D02*
X22880259Y10456334D01*
X22880259Y10456334D02*
X22940735Y10395858D01*
X22940735Y10395858D02*
X23061688Y10335381D01*
X23061688Y10335381D02*
X23364069Y10335381D01*
X23364069Y10335381D02*
X23485021Y10395858D01*
X23485021Y10395858D02*
X23545497Y10456334D01*
X23545497Y10456334D02*
X23605973Y10577286D01*
X23605973Y10577286D02*
X23605973Y10879667D01*
X23605973Y10879667D02*
X23545497Y11000620D01*
X23545497Y11000620D02*
X23485021Y11061096D01*
%TO.C,R4*%
X28508173Y24646467D02*
X27903411Y25069801D01*
X28508173Y25372182D02*
X27238173Y25372182D01*
X27238173Y25372182D02*
X27238173Y24888372D01*
X27238173Y24888372D02*
X27298650Y24767420D01*
X27298650Y24767420D02*
X27359126Y24706943D01*
X27359126Y24706943D02*
X27480078Y24646467D01*
X27480078Y24646467D02*
X27661507Y24646467D01*
X27661507Y24646467D02*
X27782459Y24706943D01*
X27782459Y24706943D02*
X27842935Y24767420D01*
X27842935Y24767420D02*
X27903411Y24888372D01*
X27903411Y24888372D02*
X27903411Y25372182D01*
X27661507Y23557896D02*
X28508173Y23557896D01*
X27177697Y23860277D02*
X28084840Y24162658D01*
X28084840Y24162658D02*
X28084840Y23376467D01*
%TO.C,C15*%
X49824821Y25581429D02*
X49885297Y25641905D01*
X49885297Y25641905D02*
X49945773Y25823334D01*
X49945773Y25823334D02*
X49945773Y25944286D01*
X49945773Y25944286D02*
X49885297Y26125715D01*
X49885297Y26125715D02*
X49764345Y26246667D01*
X49764345Y26246667D02*
X49643392Y26307144D01*
X49643392Y26307144D02*
X49401488Y26367620D01*
X49401488Y26367620D02*
X49220059Y26367620D01*
X49220059Y26367620D02*
X48978154Y26307144D01*
X48978154Y26307144D02*
X48857202Y26246667D01*
X48857202Y26246667D02*
X48736250Y26125715D01*
X48736250Y26125715D02*
X48675773Y25944286D01*
X48675773Y25944286D02*
X48675773Y25823334D01*
X48675773Y25823334D02*
X48736250Y25641905D01*
X48736250Y25641905D02*
X48796726Y25581429D01*
X49945773Y24371905D02*
X49945773Y25097620D01*
X49945773Y24734763D02*
X48675773Y24734763D01*
X48675773Y24734763D02*
X48857202Y24855715D01*
X48857202Y24855715D02*
X48978154Y24976667D01*
X48978154Y24976667D02*
X49038630Y25097620D01*
X48675773Y23222858D02*
X48675773Y23827620D01*
X48675773Y23827620D02*
X49280535Y23888096D01*
X49280535Y23888096D02*
X49220059Y23827620D01*
X49220059Y23827620D02*
X49159583Y23706667D01*
X49159583Y23706667D02*
X49159583Y23404286D01*
X49159583Y23404286D02*
X49220059Y23283334D01*
X49220059Y23283334D02*
X49280535Y23222858D01*
X49280535Y23222858D02*
X49401488Y23162381D01*
X49401488Y23162381D02*
X49703869Y23162381D01*
X49703869Y23162381D02*
X49824821Y23222858D01*
X49824821Y23222858D02*
X49885297Y23283334D01*
X49885297Y23283334D02*
X49945773Y23404286D01*
X49945773Y23404286D02*
X49945773Y23706667D01*
X49945773Y23706667D02*
X49885297Y23827620D01*
X49885297Y23827620D02*
X49824821Y23888096D01*
%TO.C,EXTRAI1*%
X6557735Y42029744D02*
X6557735Y41606410D01*
X7222973Y41424982D02*
X7222973Y42029744D01*
X7222973Y42029744D02*
X5952973Y42029744D01*
X5952973Y42029744D02*
X5952973Y41424982D01*
X5952973Y41001648D02*
X7222973Y40154981D01*
X5952973Y40154981D02*
X7222973Y41001648D01*
X5952973Y39852600D02*
X5952973Y39126886D01*
X7222973Y39489743D02*
X5952973Y39489743D01*
X7222973Y37977838D02*
X6618211Y38401172D01*
X7222973Y38703553D02*
X5952973Y38703553D01*
X5952973Y38703553D02*
X5952973Y38219743D01*
X5952973Y38219743D02*
X6013450Y38098791D01*
X6013450Y38098791D02*
X6073926Y38038314D01*
X6073926Y38038314D02*
X6194878Y37977838D01*
X6194878Y37977838D02*
X6376307Y37977838D01*
X6376307Y37977838D02*
X6497259Y38038314D01*
X6497259Y38038314D02*
X6557735Y38098791D01*
X6557735Y38098791D02*
X6618211Y38219743D01*
X6618211Y38219743D02*
X6618211Y38703553D01*
X6860116Y37494029D02*
X6860116Y36889267D01*
X7222973Y37614981D02*
X5952973Y37191648D01*
X5952973Y37191648D02*
X7222973Y36768314D01*
X7222973Y36344982D02*
X5952973Y36344982D01*
X7222973Y35074981D02*
X7222973Y35800696D01*
X7222973Y35437839D02*
X5952973Y35437839D01*
X5952973Y35437839D02*
X6134402Y35558791D01*
X6134402Y35558791D02*
X6255354Y35679743D01*
X6255354Y35679743D02*
X6315830Y35800696D01*
%TO.C,U6*%
X35079819Y3089427D02*
X35079819Y2061331D01*
X35079819Y2061331D02*
X35019342Y1940379D01*
X35019342Y1940379D02*
X34958866Y1879903D01*
X34958866Y1879903D02*
X34837914Y1819427D01*
X34837914Y1819427D02*
X34596009Y1819427D01*
X34596009Y1819427D02*
X34475057Y1879903D01*
X34475057Y1879903D02*
X34414580Y1940379D01*
X34414580Y1940379D02*
X34354104Y2061331D01*
X34354104Y2061331D02*
X34354104Y3089427D01*
X33205057Y3089427D02*
X33446962Y3089427D01*
X33446962Y3089427D02*
X33567914Y3028950D01*
X33567914Y3028950D02*
X33628390Y2968474D01*
X33628390Y2968474D02*
X33749343Y2787046D01*
X33749343Y2787046D02*
X33809819Y2545141D01*
X33809819Y2545141D02*
X33809819Y2061331D01*
X33809819Y2061331D02*
X33749343Y1940379D01*
X33749343Y1940379D02*
X33688866Y1879903D01*
X33688866Y1879903D02*
X33567914Y1819427D01*
X33567914Y1819427D02*
X33326009Y1819427D01*
X33326009Y1819427D02*
X33205057Y1879903D01*
X33205057Y1879903D02*
X33144581Y1940379D01*
X33144581Y1940379D02*
X33084104Y2061331D01*
X33084104Y2061331D02*
X33084104Y2363712D01*
X33084104Y2363712D02*
X33144581Y2484665D01*
X33144581Y2484665D02*
X33205057Y2545141D01*
X33205057Y2545141D02*
X33326009Y2605617D01*
X33326009Y2605617D02*
X33567914Y2605617D01*
X33567914Y2605617D02*
X33688866Y2545141D01*
X33688866Y2545141D02*
X33749343Y2484665D01*
X33749343Y2484665D02*
X33809819Y2363712D01*
%TO.C,C28*%
X16361228Y28127779D02*
X16421704Y28067303D01*
X16421704Y28067303D02*
X16603133Y28006827D01*
X16603133Y28006827D02*
X16724085Y28006827D01*
X16724085Y28006827D02*
X16905514Y28067303D01*
X16905514Y28067303D02*
X17026466Y28188255D01*
X17026466Y28188255D02*
X17086943Y28309208D01*
X17086943Y28309208D02*
X17147419Y28551112D01*
X17147419Y28551112D02*
X17147419Y28732541D01*
X17147419Y28732541D02*
X17086943Y28974446D01*
X17086943Y28974446D02*
X17026466Y29095398D01*
X17026466Y29095398D02*
X16905514Y29216350D01*
X16905514Y29216350D02*
X16724085Y29276827D01*
X16724085Y29276827D02*
X16603133Y29276827D01*
X16603133Y29276827D02*
X16421704Y29216350D01*
X16421704Y29216350D02*
X16361228Y29155874D01*
X15877419Y29155874D02*
X15816943Y29216350D01*
X15816943Y29216350D02*
X15695990Y29276827D01*
X15695990Y29276827D02*
X15393609Y29276827D01*
X15393609Y29276827D02*
X15272657Y29216350D01*
X15272657Y29216350D02*
X15212181Y29155874D01*
X15212181Y29155874D02*
X15151704Y29034922D01*
X15151704Y29034922D02*
X15151704Y28913970D01*
X15151704Y28913970D02*
X15212181Y28732541D01*
X15212181Y28732541D02*
X15937895Y28006827D01*
X15937895Y28006827D02*
X15151704Y28006827D01*
X14425990Y28732541D02*
X14546942Y28793017D01*
X14546942Y28793017D02*
X14607419Y28853493D01*
X14607419Y28853493D02*
X14667895Y28974446D01*
X14667895Y28974446D02*
X14667895Y29034922D01*
X14667895Y29034922D02*
X14607419Y29155874D01*
X14607419Y29155874D02*
X14546942Y29216350D01*
X14546942Y29216350D02*
X14425990Y29276827D01*
X14425990Y29276827D02*
X14184085Y29276827D01*
X14184085Y29276827D02*
X14063133Y29216350D01*
X14063133Y29216350D02*
X14002657Y29155874D01*
X14002657Y29155874D02*
X13942180Y29034922D01*
X13942180Y29034922D02*
X13942180Y28974446D01*
X13942180Y28974446D02*
X14002657Y28853493D01*
X14002657Y28853493D02*
X14063133Y28793017D01*
X14063133Y28793017D02*
X14184085Y28732541D01*
X14184085Y28732541D02*
X14425990Y28732541D01*
X14425990Y28732541D02*
X14546942Y28672065D01*
X14546942Y28672065D02*
X14607419Y28611589D01*
X14607419Y28611589D02*
X14667895Y28490636D01*
X14667895Y28490636D02*
X14667895Y28248731D01*
X14667895Y28248731D02*
X14607419Y28127779D01*
X14607419Y28127779D02*
X14546942Y28067303D01*
X14546942Y28067303D02*
X14425990Y28006827D01*
X14425990Y28006827D02*
X14184085Y28006827D01*
X14184085Y28006827D02*
X14063133Y28067303D01*
X14063133Y28067303D02*
X14002657Y28127779D01*
X14002657Y28127779D02*
X13942180Y28248731D01*
X13942180Y28248731D02*
X13942180Y28490636D01*
X13942180Y28490636D02*
X14002657Y28611589D01*
X14002657Y28611589D02*
X14063133Y28672065D01*
X14063133Y28672065D02*
X14184085Y28732541D01*
%TO.C,C21*%
X27892828Y21320579D02*
X27953304Y21260103D01*
X27953304Y21260103D02*
X28134733Y21199627D01*
X28134733Y21199627D02*
X28255685Y21199627D01*
X28255685Y21199627D02*
X28437114Y21260103D01*
X28437114Y21260103D02*
X28558066Y21381055D01*
X28558066Y21381055D02*
X28618543Y21502008D01*
X28618543Y21502008D02*
X28679019Y21743912D01*
X28679019Y21743912D02*
X28679019Y21925341D01*
X28679019Y21925341D02*
X28618543Y22167246D01*
X28618543Y22167246D02*
X28558066Y22288198D01*
X28558066Y22288198D02*
X28437114Y22409150D01*
X28437114Y22409150D02*
X28255685Y22469627D01*
X28255685Y22469627D02*
X28134733Y22469627D01*
X28134733Y22469627D02*
X27953304Y22409150D01*
X27953304Y22409150D02*
X27892828Y22348674D01*
X27409019Y22348674D02*
X27348543Y22409150D01*
X27348543Y22409150D02*
X27227590Y22469627D01*
X27227590Y22469627D02*
X26925209Y22469627D01*
X26925209Y22469627D02*
X26804257Y22409150D01*
X26804257Y22409150D02*
X26743781Y22348674D01*
X26743781Y22348674D02*
X26683304Y22227722D01*
X26683304Y22227722D02*
X26683304Y22106770D01*
X26683304Y22106770D02*
X26743781Y21925341D01*
X26743781Y21925341D02*
X27469495Y21199627D01*
X27469495Y21199627D02*
X26683304Y21199627D01*
X25473780Y21199627D02*
X26199495Y21199627D01*
X25836638Y21199627D02*
X25836638Y22469627D01*
X25836638Y22469627D02*
X25957590Y22288198D01*
X25957590Y22288198D02*
X26078542Y22167246D01*
X26078542Y22167246D02*
X26199495Y22106770D01*
%TO.C,R3*%
X63203666Y28522427D02*
X63627000Y29127189D01*
X63929381Y28522427D02*
X63929381Y29792427D01*
X63929381Y29792427D02*
X63445571Y29792427D01*
X63445571Y29792427D02*
X63324619Y29731950D01*
X63324619Y29731950D02*
X63264142Y29671474D01*
X63264142Y29671474D02*
X63203666Y29550522D01*
X63203666Y29550522D02*
X63203666Y29369093D01*
X63203666Y29369093D02*
X63264142Y29248141D01*
X63264142Y29248141D02*
X63324619Y29187665D01*
X63324619Y29187665D02*
X63445571Y29127189D01*
X63445571Y29127189D02*
X63929381Y29127189D01*
X62780333Y29792427D02*
X61994142Y29792427D01*
X61994142Y29792427D02*
X62417476Y29308617D01*
X62417476Y29308617D02*
X62236047Y29308617D01*
X62236047Y29308617D02*
X62115095Y29248141D01*
X62115095Y29248141D02*
X62054619Y29187665D01*
X62054619Y29187665D02*
X61994142Y29066712D01*
X61994142Y29066712D02*
X61994142Y28764331D01*
X61994142Y28764331D02*
X62054619Y28643379D01*
X62054619Y28643379D02*
X62115095Y28582903D01*
X62115095Y28582903D02*
X62236047Y28522427D01*
X62236047Y28522427D02*
X62598904Y28522427D01*
X62598904Y28522427D02*
X62719857Y28582903D01*
X62719857Y28582903D02*
X62780333Y28643379D01*
%TO.C,R2*%
X65515973Y15578667D02*
X64911211Y16002001D01*
X65515973Y16304382D02*
X64245973Y16304382D01*
X64245973Y16304382D02*
X64245973Y15820572D01*
X64245973Y15820572D02*
X64306450Y15699620D01*
X64306450Y15699620D02*
X64366926Y15639143D01*
X64366926Y15639143D02*
X64487878Y15578667D01*
X64487878Y15578667D02*
X64669307Y15578667D01*
X64669307Y15578667D02*
X64790259Y15639143D01*
X64790259Y15639143D02*
X64850735Y15699620D01*
X64850735Y15699620D02*
X64911211Y15820572D01*
X64911211Y15820572D02*
X64911211Y16304382D01*
X64366926Y15094858D02*
X64306450Y15034382D01*
X64306450Y15034382D02*
X64245973Y14913429D01*
X64245973Y14913429D02*
X64245973Y14611048D01*
X64245973Y14611048D02*
X64306450Y14490096D01*
X64306450Y14490096D02*
X64366926Y14429620D01*
X64366926Y14429620D02*
X64487878Y14369143D01*
X64487878Y14369143D02*
X64608830Y14369143D01*
X64608830Y14369143D02*
X64790259Y14429620D01*
X64790259Y14429620D02*
X65515973Y15155334D01*
X65515973Y15155334D02*
X65515973Y14369143D01*
%TO.C,IC3*%
X71877162Y29149827D02*
X71877162Y30419827D01*
X70546685Y29270779D02*
X70607161Y29210303D01*
X70607161Y29210303D02*
X70788590Y29149827D01*
X70788590Y29149827D02*
X70909542Y29149827D01*
X70909542Y29149827D02*
X71090971Y29210303D01*
X71090971Y29210303D02*
X71211923Y29331255D01*
X71211923Y29331255D02*
X71272400Y29452208D01*
X71272400Y29452208D02*
X71332876Y29694112D01*
X71332876Y29694112D02*
X71332876Y29875541D01*
X71332876Y29875541D02*
X71272400Y30117446D01*
X71272400Y30117446D02*
X71211923Y30238398D01*
X71211923Y30238398D02*
X71090971Y30359350D01*
X71090971Y30359350D02*
X70909542Y30419827D01*
X70909542Y30419827D02*
X70788590Y30419827D01*
X70788590Y30419827D02*
X70607161Y30359350D01*
X70607161Y30359350D02*
X70546685Y30298874D01*
X70123352Y30419827D02*
X69337161Y30419827D01*
X69337161Y30419827D02*
X69760495Y29936017D01*
X69760495Y29936017D02*
X69579066Y29936017D01*
X69579066Y29936017D02*
X69458114Y29875541D01*
X69458114Y29875541D02*
X69397638Y29815065D01*
X69397638Y29815065D02*
X69337161Y29694112D01*
X69337161Y29694112D02*
X69337161Y29391731D01*
X69337161Y29391731D02*
X69397638Y29270779D01*
X69397638Y29270779D02*
X69458114Y29210303D01*
X69458114Y29210303D02*
X69579066Y29149827D01*
X69579066Y29149827D02*
X69941923Y29149827D01*
X69941923Y29149827D02*
X70062876Y29210303D01*
X70062876Y29210303D02*
X70123352Y29270779D01*
%TO.C,C19*%
X42447028Y24901979D02*
X42507504Y24841503D01*
X42507504Y24841503D02*
X42688933Y24781027D01*
X42688933Y24781027D02*
X42809885Y24781027D01*
X42809885Y24781027D02*
X42991314Y24841503D01*
X42991314Y24841503D02*
X43112266Y24962455D01*
X43112266Y24962455D02*
X43172743Y25083408D01*
X43172743Y25083408D02*
X43233219Y25325312D01*
X43233219Y25325312D02*
X43233219Y25506741D01*
X43233219Y25506741D02*
X43172743Y25748646D01*
X43172743Y25748646D02*
X43112266Y25869598D01*
X43112266Y25869598D02*
X42991314Y25990550D01*
X42991314Y25990550D02*
X42809885Y26051027D01*
X42809885Y26051027D02*
X42688933Y26051027D01*
X42688933Y26051027D02*
X42507504Y25990550D01*
X42507504Y25990550D02*
X42447028Y25930074D01*
X41237504Y24781027D02*
X41963219Y24781027D01*
X41600362Y24781027D02*
X41600362Y26051027D01*
X41600362Y26051027D02*
X41721314Y25869598D01*
X41721314Y25869598D02*
X41842266Y25748646D01*
X41842266Y25748646D02*
X41963219Y25688170D01*
X40632742Y24781027D02*
X40390838Y24781027D01*
X40390838Y24781027D02*
X40269885Y24841503D01*
X40269885Y24841503D02*
X40209409Y24901979D01*
X40209409Y24901979D02*
X40088457Y25083408D01*
X40088457Y25083408D02*
X40027980Y25325312D01*
X40027980Y25325312D02*
X40027980Y25809122D01*
X40027980Y25809122D02*
X40088457Y25930074D01*
X40088457Y25930074D02*
X40148933Y25990550D01*
X40148933Y25990550D02*
X40269885Y26051027D01*
X40269885Y26051027D02*
X40511790Y26051027D01*
X40511790Y26051027D02*
X40632742Y25990550D01*
X40632742Y25990550D02*
X40693219Y25930074D01*
X40693219Y25930074D02*
X40753695Y25809122D01*
X40753695Y25809122D02*
X40753695Y25506741D01*
X40753695Y25506741D02*
X40693219Y25385789D01*
X40693219Y25385789D02*
X40632742Y25325312D01*
X40632742Y25325312D02*
X40511790Y25264836D01*
X40511790Y25264836D02*
X40269885Y25264836D01*
X40269885Y25264836D02*
X40148933Y25325312D01*
X40148933Y25325312D02*
X40088457Y25385789D01*
X40088457Y25385789D02*
X40027980Y25506741D01*
%TO.C,U8*%
X37372773Y20678020D02*
X38400869Y20678020D01*
X38400869Y20678020D02*
X38521821Y20617543D01*
X38521821Y20617543D02*
X38582297Y20557067D01*
X38582297Y20557067D02*
X38642773Y20436115D01*
X38642773Y20436115D02*
X38642773Y20194210D01*
X38642773Y20194210D02*
X38582297Y20073258D01*
X38582297Y20073258D02*
X38521821Y20012781D01*
X38521821Y20012781D02*
X38400869Y19952305D01*
X38400869Y19952305D02*
X37372773Y19952305D01*
X37917059Y19166115D02*
X37856583Y19287067D01*
X37856583Y19287067D02*
X37796107Y19347544D01*
X37796107Y19347544D02*
X37675154Y19408020D01*
X37675154Y19408020D02*
X37614678Y19408020D01*
X37614678Y19408020D02*
X37493726Y19347544D01*
X37493726Y19347544D02*
X37433250Y19287067D01*
X37433250Y19287067D02*
X37372773Y19166115D01*
X37372773Y19166115D02*
X37372773Y18924210D01*
X37372773Y18924210D02*
X37433250Y18803258D01*
X37433250Y18803258D02*
X37493726Y18742782D01*
X37493726Y18742782D02*
X37614678Y18682305D01*
X37614678Y18682305D02*
X37675154Y18682305D01*
X37675154Y18682305D02*
X37796107Y18742782D01*
X37796107Y18742782D02*
X37856583Y18803258D01*
X37856583Y18803258D02*
X37917059Y18924210D01*
X37917059Y18924210D02*
X37917059Y19166115D01*
X37917059Y19166115D02*
X37977535Y19287067D01*
X37977535Y19287067D02*
X38038011Y19347544D01*
X38038011Y19347544D02*
X38158964Y19408020D01*
X38158964Y19408020D02*
X38400869Y19408020D01*
X38400869Y19408020D02*
X38521821Y19347544D01*
X38521821Y19347544D02*
X38582297Y19287067D01*
X38582297Y19287067D02*
X38642773Y19166115D01*
X38642773Y19166115D02*
X38642773Y18924210D01*
X38642773Y18924210D02*
X38582297Y18803258D01*
X38582297Y18803258D02*
X38521821Y18742782D01*
X38521821Y18742782D02*
X38400869Y18682305D01*
X38400869Y18682305D02*
X38158964Y18682305D01*
X38158964Y18682305D02*
X38038011Y18742782D01*
X38038011Y18742782D02*
X37977535Y18803258D01*
X37977535Y18803258D02*
X37917059Y18924210D01*
%TO.C,C34*%
X1463221Y8893629D02*
X1523697Y8954105D01*
X1523697Y8954105D02*
X1584173Y9135534D01*
X1584173Y9135534D02*
X1584173Y9256486D01*
X1584173Y9256486D02*
X1523697Y9437915D01*
X1523697Y9437915D02*
X1402745Y9558867D01*
X1402745Y9558867D02*
X1281792Y9619344D01*
X1281792Y9619344D02*
X1039888Y9679820D01*
X1039888Y9679820D02*
X858459Y9679820D01*
X858459Y9679820D02*
X616554Y9619344D01*
X616554Y9619344D02*
X495602Y9558867D01*
X495602Y9558867D02*
X374650Y9437915D01*
X374650Y9437915D02*
X314173Y9256486D01*
X314173Y9256486D02*
X314173Y9135534D01*
X314173Y9135534D02*
X374650Y8954105D01*
X374650Y8954105D02*
X435126Y8893629D01*
X314173Y8470296D02*
X314173Y7684105D01*
X314173Y7684105D02*
X797983Y8107439D01*
X797983Y8107439D02*
X797983Y7926010D01*
X797983Y7926010D02*
X858459Y7805058D01*
X858459Y7805058D02*
X918935Y7744582D01*
X918935Y7744582D02*
X1039888Y7684105D01*
X1039888Y7684105D02*
X1342269Y7684105D01*
X1342269Y7684105D02*
X1463221Y7744582D01*
X1463221Y7744582D02*
X1523697Y7805058D01*
X1523697Y7805058D02*
X1584173Y7926010D01*
X1584173Y7926010D02*
X1584173Y8288867D01*
X1584173Y8288867D02*
X1523697Y8409820D01*
X1523697Y8409820D02*
X1463221Y8470296D01*
X737507Y6595534D02*
X1584173Y6595534D01*
X253697Y6897915D02*
X1160840Y7200296D01*
X1160840Y7200296D02*
X1160840Y6414105D01*
%TO.C,R8*%
X23148773Y5698067D02*
X22544011Y6121401D01*
X23148773Y6423782D02*
X21878773Y6423782D01*
X21878773Y6423782D02*
X21878773Y5939972D01*
X21878773Y5939972D02*
X21939250Y5819020D01*
X21939250Y5819020D02*
X21999726Y5758543D01*
X21999726Y5758543D02*
X22120678Y5698067D01*
X22120678Y5698067D02*
X22302107Y5698067D01*
X22302107Y5698067D02*
X22423059Y5758543D01*
X22423059Y5758543D02*
X22483535Y5819020D01*
X22483535Y5819020D02*
X22544011Y5939972D01*
X22544011Y5939972D02*
X22544011Y6423782D01*
X22423059Y4972353D02*
X22362583Y5093305D01*
X22362583Y5093305D02*
X22302107Y5153782D01*
X22302107Y5153782D02*
X22181154Y5214258D01*
X22181154Y5214258D02*
X22120678Y5214258D01*
X22120678Y5214258D02*
X21999726Y5153782D01*
X21999726Y5153782D02*
X21939250Y5093305D01*
X21939250Y5093305D02*
X21878773Y4972353D01*
X21878773Y4972353D02*
X21878773Y4730448D01*
X21878773Y4730448D02*
X21939250Y4609496D01*
X21939250Y4609496D02*
X21999726Y4549020D01*
X21999726Y4549020D02*
X22120678Y4488543D01*
X22120678Y4488543D02*
X22181154Y4488543D01*
X22181154Y4488543D02*
X22302107Y4549020D01*
X22302107Y4549020D02*
X22362583Y4609496D01*
X22362583Y4609496D02*
X22423059Y4730448D01*
X22423059Y4730448D02*
X22423059Y4972353D01*
X22423059Y4972353D02*
X22483535Y5093305D01*
X22483535Y5093305D02*
X22544011Y5153782D01*
X22544011Y5153782D02*
X22664964Y5214258D01*
X22664964Y5214258D02*
X22906869Y5214258D01*
X22906869Y5214258D02*
X23027821Y5153782D01*
X23027821Y5153782D02*
X23088297Y5093305D01*
X23088297Y5093305D02*
X23148773Y4972353D01*
X23148773Y4972353D02*
X23148773Y4730448D01*
X23148773Y4730448D02*
X23088297Y4609496D01*
X23088297Y4609496D02*
X23027821Y4549020D01*
X23027821Y4549020D02*
X22906869Y4488543D01*
X22906869Y4488543D02*
X22664964Y4488543D01*
X22664964Y4488543D02*
X22544011Y4549020D01*
X22544011Y4549020D02*
X22483535Y4609496D01*
X22483535Y4609496D02*
X22423059Y4730448D01*
%TO.C,IC4*%
X60497962Y17719827D02*
X60497962Y18989827D01*
X59167485Y17840779D02*
X59227961Y17780303D01*
X59227961Y17780303D02*
X59409390Y17719827D01*
X59409390Y17719827D02*
X59530342Y17719827D01*
X59530342Y17719827D02*
X59711771Y17780303D01*
X59711771Y17780303D02*
X59832723Y17901255D01*
X59832723Y17901255D02*
X59893200Y18022208D01*
X59893200Y18022208D02*
X59953676Y18264112D01*
X59953676Y18264112D02*
X59953676Y18445541D01*
X59953676Y18445541D02*
X59893200Y18687446D01*
X59893200Y18687446D02*
X59832723Y18808398D01*
X59832723Y18808398D02*
X59711771Y18929350D01*
X59711771Y18929350D02*
X59530342Y18989827D01*
X59530342Y18989827D02*
X59409390Y18989827D01*
X59409390Y18989827D02*
X59227961Y18929350D01*
X59227961Y18929350D02*
X59167485Y18868874D01*
X58078914Y18566493D02*
X58078914Y17719827D01*
X58381295Y19050303D02*
X58683676Y18143160D01*
X58683676Y18143160D02*
X57897485Y18143160D01*
%TO.C,U5*%
X41157373Y21440020D02*
X42185469Y21440020D01*
X42185469Y21440020D02*
X42306421Y21379543D01*
X42306421Y21379543D02*
X42366897Y21319067D01*
X42366897Y21319067D02*
X42427373Y21198115D01*
X42427373Y21198115D02*
X42427373Y20956210D01*
X42427373Y20956210D02*
X42366897Y20835258D01*
X42366897Y20835258D02*
X42306421Y20774781D01*
X42306421Y20774781D02*
X42185469Y20714305D01*
X42185469Y20714305D02*
X41157373Y20714305D01*
X41157373Y19504782D02*
X41157373Y20109544D01*
X41157373Y20109544D02*
X41762135Y20170020D01*
X41762135Y20170020D02*
X41701659Y20109544D01*
X41701659Y20109544D02*
X41641183Y19988591D01*
X41641183Y19988591D02*
X41641183Y19686210D01*
X41641183Y19686210D02*
X41701659Y19565258D01*
X41701659Y19565258D02*
X41762135Y19504782D01*
X41762135Y19504782D02*
X41883088Y19444305D01*
X41883088Y19444305D02*
X42185469Y19444305D01*
X42185469Y19444305D02*
X42306421Y19504782D01*
X42306421Y19504782D02*
X42366897Y19565258D01*
X42366897Y19565258D02*
X42427373Y19686210D01*
X42427373Y19686210D02*
X42427373Y19988591D01*
X42427373Y19988591D02*
X42366897Y20109544D01*
X42366897Y20109544D02*
X42306421Y20170020D01*
%TO.C,R7*%
X26856266Y33137627D02*
X27279600Y33742389D01*
X27581981Y33137627D02*
X27581981Y34407627D01*
X27581981Y34407627D02*
X27098171Y34407627D01*
X27098171Y34407627D02*
X26977219Y34347150D01*
X26977219Y34347150D02*
X26916742Y34286674D01*
X26916742Y34286674D02*
X26856266Y34165722D01*
X26856266Y34165722D02*
X26856266Y33984293D01*
X26856266Y33984293D02*
X26916742Y33863341D01*
X26916742Y33863341D02*
X26977219Y33802865D01*
X26977219Y33802865D02*
X27098171Y33742389D01*
X27098171Y33742389D02*
X27581981Y33742389D01*
X26432933Y34407627D02*
X25586266Y34407627D01*
X25586266Y34407627D02*
X26130552Y33137627D01*
%TO.C,C27*%
X17148628Y32598179D02*
X17209104Y32537703D01*
X17209104Y32537703D02*
X17390533Y32477227D01*
X17390533Y32477227D02*
X17511485Y32477227D01*
X17511485Y32477227D02*
X17692914Y32537703D01*
X17692914Y32537703D02*
X17813866Y32658655D01*
X17813866Y32658655D02*
X17874343Y32779608D01*
X17874343Y32779608D02*
X17934819Y33021512D01*
X17934819Y33021512D02*
X17934819Y33202941D01*
X17934819Y33202941D02*
X17874343Y33444846D01*
X17874343Y33444846D02*
X17813866Y33565798D01*
X17813866Y33565798D02*
X17692914Y33686750D01*
X17692914Y33686750D02*
X17511485Y33747227D01*
X17511485Y33747227D02*
X17390533Y33747227D01*
X17390533Y33747227D02*
X17209104Y33686750D01*
X17209104Y33686750D02*
X17148628Y33626274D01*
X16664819Y33626274D02*
X16604343Y33686750D01*
X16604343Y33686750D02*
X16483390Y33747227D01*
X16483390Y33747227D02*
X16181009Y33747227D01*
X16181009Y33747227D02*
X16060057Y33686750D01*
X16060057Y33686750D02*
X15999581Y33626274D01*
X15999581Y33626274D02*
X15939104Y33505322D01*
X15939104Y33505322D02*
X15939104Y33384370D01*
X15939104Y33384370D02*
X15999581Y33202941D01*
X15999581Y33202941D02*
X16725295Y32477227D01*
X16725295Y32477227D02*
X15939104Y32477227D01*
X15515771Y33747227D02*
X14669104Y33747227D01*
X14669104Y33747227D02*
X15213390Y32477227D01*
%TO.C,C11*%
X80558821Y24311429D02*
X80619297Y24371905D01*
X80619297Y24371905D02*
X80679773Y24553334D01*
X80679773Y24553334D02*
X80679773Y24674286D01*
X80679773Y24674286D02*
X80619297Y24855715D01*
X80619297Y24855715D02*
X80498345Y24976667D01*
X80498345Y24976667D02*
X80377392Y25037144D01*
X80377392Y25037144D02*
X80135488Y25097620D01*
X80135488Y25097620D02*
X79954059Y25097620D01*
X79954059Y25097620D02*
X79712154Y25037144D01*
X79712154Y25037144D02*
X79591202Y24976667D01*
X79591202Y24976667D02*
X79470250Y24855715D01*
X79470250Y24855715D02*
X79409773Y24674286D01*
X79409773Y24674286D02*
X79409773Y24553334D01*
X79409773Y24553334D02*
X79470250Y24371905D01*
X79470250Y24371905D02*
X79530726Y24311429D01*
X80679773Y23101905D02*
X80679773Y23827620D01*
X80679773Y23464763D02*
X79409773Y23464763D01*
X79409773Y23464763D02*
X79591202Y23585715D01*
X79591202Y23585715D02*
X79712154Y23706667D01*
X79712154Y23706667D02*
X79772630Y23827620D01*
X80679773Y21892381D02*
X80679773Y22618096D01*
X80679773Y22255239D02*
X79409773Y22255239D01*
X79409773Y22255239D02*
X79591202Y22376191D01*
X79591202Y22376191D02*
X79712154Y22497143D01*
X79712154Y22497143D02*
X79772630Y22618096D01*
%TO.C,U10*%
X5053573Y5636382D02*
X6081669Y5636382D01*
X6081669Y5636382D02*
X6202621Y5575905D01*
X6202621Y5575905D02*
X6263097Y5515429D01*
X6263097Y5515429D02*
X6323573Y5394477D01*
X6323573Y5394477D02*
X6323573Y5152572D01*
X6323573Y5152572D02*
X6263097Y5031620D01*
X6263097Y5031620D02*
X6202621Y4971143D01*
X6202621Y4971143D02*
X6081669Y4910667D01*
X6081669Y4910667D02*
X5053573Y4910667D01*
X6323573Y3640667D02*
X6323573Y4366382D01*
X6323573Y4003525D02*
X5053573Y4003525D01*
X5053573Y4003525D02*
X5235002Y4124477D01*
X5235002Y4124477D02*
X5355954Y4245429D01*
X5355954Y4245429D02*
X5416430Y4366382D01*
X5053573Y2854477D02*
X5053573Y2733524D01*
X5053573Y2733524D02*
X5114050Y2612572D01*
X5114050Y2612572D02*
X5174526Y2552096D01*
X5174526Y2552096D02*
X5295478Y2491620D01*
X5295478Y2491620D02*
X5537383Y2431143D01*
X5537383Y2431143D02*
X5839764Y2431143D01*
X5839764Y2431143D02*
X6081669Y2491620D01*
X6081669Y2491620D02*
X6202621Y2552096D01*
X6202621Y2552096D02*
X6263097Y2612572D01*
X6263097Y2612572D02*
X6323573Y2733524D01*
X6323573Y2733524D02*
X6323573Y2854477D01*
X6323573Y2854477D02*
X6263097Y2975429D01*
X6263097Y2975429D02*
X6202621Y3035905D01*
X6202621Y3035905D02*
X6081669Y3096382D01*
X6081669Y3096382D02*
X5839764Y3156858D01*
X5839764Y3156858D02*
X5537383Y3156858D01*
X5537383Y3156858D02*
X5295478Y3096382D01*
X5295478Y3096382D02*
X5174526Y3035905D01*
X5174526Y3035905D02*
X5114050Y2975429D01*
X5114050Y2975429D02*
X5053573Y2854477D01*
%TO.C,U9*%
X13845419Y23257027D02*
X13845419Y22228931D01*
X13845419Y22228931D02*
X13784942Y22107979D01*
X13784942Y22107979D02*
X13724466Y22047503D01*
X13724466Y22047503D02*
X13603514Y21987027D01*
X13603514Y21987027D02*
X13361609Y21987027D01*
X13361609Y21987027D02*
X13240657Y22047503D01*
X13240657Y22047503D02*
X13180180Y22107979D01*
X13180180Y22107979D02*
X13119704Y22228931D01*
X13119704Y22228931D02*
X13119704Y23257027D01*
X12454466Y21987027D02*
X12212562Y21987027D01*
X12212562Y21987027D02*
X12091609Y22047503D01*
X12091609Y22047503D02*
X12031133Y22107979D01*
X12031133Y22107979D02*
X11910181Y22289408D01*
X11910181Y22289408D02*
X11849704Y22531312D01*
X11849704Y22531312D02*
X11849704Y23015122D01*
X11849704Y23015122D02*
X11910181Y23136074D01*
X11910181Y23136074D02*
X11970657Y23196550D01*
X11970657Y23196550D02*
X12091609Y23257027D01*
X12091609Y23257027D02*
X12333514Y23257027D01*
X12333514Y23257027D02*
X12454466Y23196550D01*
X12454466Y23196550D02*
X12514943Y23136074D01*
X12514943Y23136074D02*
X12575419Y23015122D01*
X12575419Y23015122D02*
X12575419Y22712741D01*
X12575419Y22712741D02*
X12514943Y22591789D01*
X12514943Y22591789D02*
X12454466Y22531312D01*
X12454466Y22531312D02*
X12333514Y22470836D01*
X12333514Y22470836D02*
X12091609Y22470836D01*
X12091609Y22470836D02*
X11970657Y22531312D01*
X11970657Y22531312D02*
X11910181Y22591789D01*
X11910181Y22591789D02*
X11849704Y22712741D01*
%TO.C,C14*%
X58613221Y45418829D02*
X58673697Y45479305D01*
X58673697Y45479305D02*
X58734173Y45660734D01*
X58734173Y45660734D02*
X58734173Y45781686D01*
X58734173Y45781686D02*
X58673697Y45963115D01*
X58673697Y45963115D02*
X58552745Y46084067D01*
X58552745Y46084067D02*
X58431792Y46144544D01*
X58431792Y46144544D02*
X58189888Y46205020D01*
X58189888Y46205020D02*
X58008459Y46205020D01*
X58008459Y46205020D02*
X57766554Y46144544D01*
X57766554Y46144544D02*
X57645602Y46084067D01*
X57645602Y46084067D02*
X57524650Y45963115D01*
X57524650Y45963115D02*
X57464173Y45781686D01*
X57464173Y45781686D02*
X57464173Y45660734D01*
X57464173Y45660734D02*
X57524650Y45479305D01*
X57524650Y45479305D02*
X57585126Y45418829D01*
X58734173Y44209305D02*
X58734173Y44935020D01*
X58734173Y44572163D02*
X57464173Y44572163D01*
X57464173Y44572163D02*
X57645602Y44693115D01*
X57645602Y44693115D02*
X57766554Y44814067D01*
X57766554Y44814067D02*
X57827030Y44935020D01*
X57887507Y43120734D02*
X58734173Y43120734D01*
X57403697Y43423115D02*
X58310840Y43725496D01*
X58310840Y43725496D02*
X58310840Y42939305D01*
%TO.C,C12*%
X78831621Y24336829D02*
X78892097Y24397305D01*
X78892097Y24397305D02*
X78952573Y24578734D01*
X78952573Y24578734D02*
X78952573Y24699686D01*
X78952573Y24699686D02*
X78892097Y24881115D01*
X78892097Y24881115D02*
X78771145Y25002067D01*
X78771145Y25002067D02*
X78650192Y25062544D01*
X78650192Y25062544D02*
X78408288Y25123020D01*
X78408288Y25123020D02*
X78226859Y25123020D01*
X78226859Y25123020D02*
X77984954Y25062544D01*
X77984954Y25062544D02*
X77864002Y25002067D01*
X77864002Y25002067D02*
X77743050Y24881115D01*
X77743050Y24881115D02*
X77682573Y24699686D01*
X77682573Y24699686D02*
X77682573Y24578734D01*
X77682573Y24578734D02*
X77743050Y24397305D01*
X77743050Y24397305D02*
X77803526Y24336829D01*
X78952573Y23127305D02*
X78952573Y23853020D01*
X78952573Y23490163D02*
X77682573Y23490163D01*
X77682573Y23490163D02*
X77864002Y23611115D01*
X77864002Y23611115D02*
X77984954Y23732067D01*
X77984954Y23732067D02*
X78045430Y23853020D01*
X77803526Y22643496D02*
X77743050Y22583020D01*
X77743050Y22583020D02*
X77682573Y22462067D01*
X77682573Y22462067D02*
X77682573Y22159686D01*
X77682573Y22159686D02*
X77743050Y22038734D01*
X77743050Y22038734D02*
X77803526Y21978258D01*
X77803526Y21978258D02*
X77924478Y21917781D01*
X77924478Y21917781D02*
X78045430Y21917781D01*
X78045430Y21917781D02*
X78226859Y21978258D01*
X78226859Y21978258D02*
X78952573Y22703972D01*
X78952573Y22703972D02*
X78952573Y21917781D01*
%TO.C,C30*%
X4480428Y8215379D02*
X4540904Y8154903D01*
X4540904Y8154903D02*
X4722333Y8094427D01*
X4722333Y8094427D02*
X4843285Y8094427D01*
X4843285Y8094427D02*
X5024714Y8154903D01*
X5024714Y8154903D02*
X5145666Y8275855D01*
X5145666Y8275855D02*
X5206143Y8396808D01*
X5206143Y8396808D02*
X5266619Y8638712D01*
X5266619Y8638712D02*
X5266619Y8820141D01*
X5266619Y8820141D02*
X5206143Y9062046D01*
X5206143Y9062046D02*
X5145666Y9182998D01*
X5145666Y9182998D02*
X5024714Y9303950D01*
X5024714Y9303950D02*
X4843285Y9364427D01*
X4843285Y9364427D02*
X4722333Y9364427D01*
X4722333Y9364427D02*
X4540904Y9303950D01*
X4540904Y9303950D02*
X4480428Y9243474D01*
X4057095Y9364427D02*
X3270904Y9364427D01*
X3270904Y9364427D02*
X3694238Y8880617D01*
X3694238Y8880617D02*
X3512809Y8880617D01*
X3512809Y8880617D02*
X3391857Y8820141D01*
X3391857Y8820141D02*
X3331381Y8759665D01*
X3331381Y8759665D02*
X3270904Y8638712D01*
X3270904Y8638712D02*
X3270904Y8336331D01*
X3270904Y8336331D02*
X3331381Y8215379D01*
X3331381Y8215379D02*
X3391857Y8154903D01*
X3391857Y8154903D02*
X3512809Y8094427D01*
X3512809Y8094427D02*
X3875666Y8094427D01*
X3875666Y8094427D02*
X3996619Y8154903D01*
X3996619Y8154903D02*
X4057095Y8215379D01*
X2484714Y9364427D02*
X2363761Y9364427D01*
X2363761Y9364427D02*
X2242809Y9303950D01*
X2242809Y9303950D02*
X2182333Y9243474D01*
X2182333Y9243474D02*
X2121857Y9122522D01*
X2121857Y9122522D02*
X2061380Y8880617D01*
X2061380Y8880617D02*
X2061380Y8578236D01*
X2061380Y8578236D02*
X2121857Y8336331D01*
X2121857Y8336331D02*
X2182333Y8215379D01*
X2182333Y8215379D02*
X2242809Y8154903D01*
X2242809Y8154903D02*
X2363761Y8094427D01*
X2363761Y8094427D02*
X2484714Y8094427D01*
X2484714Y8094427D02*
X2605666Y8154903D01*
X2605666Y8154903D02*
X2666142Y8215379D01*
X2666142Y8215379D02*
X2726619Y8336331D01*
X2726619Y8336331D02*
X2787095Y8578236D01*
X2787095Y8578236D02*
X2787095Y8880617D01*
X2787095Y8880617D02*
X2726619Y9122522D01*
X2726619Y9122522D02*
X2666142Y9243474D01*
X2666142Y9243474D02*
X2605666Y9303950D01*
X2605666Y9303950D02*
X2484714Y9364427D01*
D11*
%TO.C,R6*%
X25795500Y27669258D02*
X25795500Y27194742D01*
X24750500Y27669258D02*
X24750500Y27194742D01*
%TO.C,C16*%
X48119420Y19306000D02*
X48400580Y19306000D01*
X48119420Y18286000D02*
X48400580Y18286000D01*
%TO.C,C17*%
X46988000Y21195420D02*
X46988000Y21476580D01*
X48008000Y21195420D02*
X48008000Y21476580D01*
%TO.C,C32*%
X2272420Y42547000D02*
X2553580Y42547000D01*
X2272420Y41527000D02*
X2553580Y41527000D01*
%TO.C,C29*%
X11178000Y25921580D02*
X11178000Y25640420D01*
X10158000Y25921580D02*
X10158000Y25640420D01*
%TO.C,OSDCOMM1*%
X21106000Y3816000D02*
X21106000Y5266000D01*
X21106000Y5266000D02*
X19306000Y5266000D01*
X19836000Y996000D02*
X11406000Y996000D01*
X19306000Y5266000D02*
X19306000Y6256000D01*
X10136000Y3816000D02*
X10136000Y5266000D01*
X10136000Y5266000D02*
X11936000Y5266000D01*
D12*
%TO.C,J5*%
X90853000Y33800000D02*
X84653000Y33800000D01*
X90853000Y17000000D02*
X90853000Y33800000D01*
X84653000Y17000000D02*
X90853000Y17000000D01*
D13*
X84103000Y19025000D02*
G75*
G03*
X84103000Y19025000I-50000J0D01*
G01*
D11*
%TO.C,R10*%
X20715500Y27542258D02*
X20715500Y27067742D01*
X19670500Y27542258D02*
X19670500Y27067742D01*
%TO.C,C23*%
X26033000Y11162420D02*
X26033000Y11443580D01*
X27053000Y11162420D02*
X27053000Y11443580D01*
%TO.C,C31*%
X3804580Y906000D02*
X3523420Y906000D01*
X3804580Y1926000D02*
X3523420Y1926000D01*
%TO.C,R5*%
X26401500Y6239742D02*
X26401500Y6714258D01*
X27446500Y6239742D02*
X27446500Y6714258D01*
%TO.C,IC5*%
X4191000Y23205000D02*
X4991000Y23205000D01*
X4191000Y23205000D02*
X3391000Y23205000D01*
X4191000Y26325000D02*
X5991000Y26325000D01*
X4191000Y26325000D02*
X3391000Y26325000D01*
%TO.C,C13*%
X76964000Y27318580D02*
X76964000Y27037420D01*
X75944000Y27318580D02*
X75944000Y27037420D01*
%TO.C,C20*%
X32006000Y19317580D02*
X32006000Y19036420D01*
X30986000Y19317580D02*
X30986000Y19036420D01*
%TO.C,C18*%
X38086420Y27561000D02*
X38367580Y27561000D01*
X38086420Y26541000D02*
X38367580Y26541000D01*
%TO.C,C26*%
X20777252Y7276000D02*
X19354748Y7276000D01*
X20777252Y9996000D02*
X19354748Y9996000D01*
%TO.C,C24*%
X25921580Y8380000D02*
X25640420Y8380000D01*
X25921580Y9400000D02*
X25640420Y9400000D01*
%TO.C,C22*%
X29974000Y19317580D02*
X29974000Y19036420D01*
X28954000Y19317580D02*
X28954000Y19036420D01*
%TO.C,R1*%
X68692500Y19447742D02*
X68692500Y19922258D01*
X69737500Y19447742D02*
X69737500Y19922258D01*
D12*
%TO.C,U7*%
X32971000Y26674000D02*
X32971000Y26674000D01*
X33071000Y26674000D02*
X33071000Y26674000D01*
X33071000Y26674000D02*
G75*
G03*
X32971000Y26674000I-50000J0D01*
G01*
X32971000Y26674000D02*
G75*
G03*
X33071000Y26674000I50000J0D01*
G01*
D11*
%TO.C,C33*%
X2704220Y22811200D02*
X2985380Y22811200D01*
X2704220Y21791200D02*
X2985380Y21791200D01*
%TO.C,R9*%
X23255500Y27669258D02*
X23255500Y27194742D01*
X22210500Y27669258D02*
X22210500Y27194742D01*
%TO.C,C25*%
X24255000Y11162420D02*
X24255000Y11443580D01*
X25275000Y11162420D02*
X25275000Y11443580D01*
%TO.C,R4*%
X28335500Y27669258D02*
X28335500Y27194742D01*
X27290500Y27669258D02*
X27290500Y27194742D01*
%TO.C,C15*%
X48766000Y21195420D02*
X48766000Y21476580D01*
X49786000Y21195420D02*
X49786000Y21476580D01*
%TO.C,EXTRAI1*%
X3904000Y40194000D02*
X3904000Y39144000D01*
X2754000Y40194000D02*
X3904000Y40194000D01*
X3904000Y39144000D02*
X4894000Y39144000D01*
X784000Y39024000D02*
X784000Y35144000D01*
X3904000Y33974000D02*
X3904000Y35024000D01*
X2754000Y33974000D02*
X3904000Y33974000D01*
D13*
%TO.C,U6*%
X31267000Y3907000D02*
X32742000Y3907000D01*
X33092000Y8932000D02*
X33092000Y3932000D01*
X33092000Y3932000D02*
X36792000Y3932000D01*
X36792000Y8932000D02*
X33092000Y8932000D01*
X36792000Y3932000D02*
X36792000Y8932000D01*
D11*
%TO.C,C28*%
X12192580Y27684000D02*
X11911420Y27684000D01*
X12192580Y28704000D02*
X11911420Y28704000D01*
%TO.C,C21*%
X30620580Y21207000D02*
X30339420Y21207000D01*
X30620580Y22227000D02*
X30339420Y22227000D01*
%TO.C,R3*%
X63229258Y27036500D02*
X62754742Y27036500D01*
X63229258Y28081500D02*
X62754742Y28081500D01*
%TO.C,R2*%
X67070500Y15604258D02*
X67070500Y15129742D01*
X66025500Y15604258D02*
X66025500Y15129742D01*
D13*
%TO.C,IC3*%
X66937000Y22804000D02*
X68412000Y22804000D01*
D11*
%TO.C,C19*%
X38086420Y26037000D02*
X38367580Y26037000D01*
X38086420Y25017000D02*
X38367580Y25017000D01*
D12*
%TO.C,U8*%
X35244000Y17846000D02*
X35244000Y17846000D01*
X35344000Y17846000D02*
X35344000Y17846000D01*
X33294000Y18246000D02*
X33294000Y18946000D01*
X33444000Y18246000D02*
X33294000Y18246000D01*
X35544000Y18246000D02*
X35794000Y18246000D01*
X35794000Y18246000D02*
X35794000Y18946000D01*
X33294000Y20546000D02*
X33294000Y21246000D01*
X35794000Y20546000D02*
X35794000Y21246000D01*
X33294000Y21246000D02*
X33544000Y21246000D01*
X35794000Y21246000D02*
X35544000Y21246000D01*
X35344000Y17846000D02*
G75*
G03*
X35244000Y17846000I-50000J0D01*
G01*
X35244000Y17846000D02*
G75*
G03*
X35344000Y17846000I50000J0D01*
G01*
D11*
%TO.C,C34*%
X1983200Y4731580D02*
X1983200Y4450420D01*
X963200Y4731580D02*
X963200Y4450420D01*
%TO.C,R8*%
X23861500Y6239742D02*
X23861500Y6714258D01*
X24906500Y6239742D02*
X24906500Y6714258D01*
D13*
%TO.C,IC4*%
X61218800Y17130400D02*
X62743800Y17130400D01*
X63093800Y22160400D02*
X63093800Y17260400D01*
X63093800Y17260400D02*
X66293800Y17260400D01*
X66293800Y22160400D02*
X63093800Y22160400D01*
X66293800Y17260400D02*
X66293800Y22160400D01*
D12*
%TO.C,U5*%
X44004000Y22347000D02*
X44004000Y22347000D01*
X43904000Y22347000D02*
X43904000Y22347000D01*
X45954000Y21947000D02*
X45954000Y21247000D01*
X45804000Y21947000D02*
X45954000Y21947000D01*
X43704000Y21947000D02*
X43454000Y21947000D01*
X43454000Y21947000D02*
X43454000Y21247000D01*
X45954000Y19647000D02*
X45954000Y18947000D01*
X43454000Y19647000D02*
X43454000Y18947000D01*
X45954000Y18947000D02*
X45704000Y18947000D01*
X43454000Y18947000D02*
X43704000Y18947000D01*
X43904000Y22347000D02*
G75*
G03*
X44004000Y22347000I50000J0D01*
G01*
X44004000Y22347000D02*
G75*
G03*
X43904000Y22347000I-50000J0D01*
G01*
D11*
%TO.C,R7*%
X24011658Y33462700D02*
X23537142Y33462700D01*
X24011658Y34507700D02*
X23537142Y34507700D01*
%TO.C,C27*%
X19698580Y33424400D02*
X19417420Y33424400D01*
X19698580Y34444400D02*
X19417420Y34444400D01*
%TO.C,C11*%
X79246000Y27037420D02*
X79246000Y27318580D01*
X80266000Y27037420D02*
X80266000Y27318580D01*
%TO.C,U10*%
X3297000Y3424000D02*
X3617000Y3424000D01*
X3297000Y3424000D02*
X3297000Y3744000D01*
X4577000Y3424000D02*
X4257000Y3424000D01*
X4577000Y3424000D02*
X4577000Y3744000D01*
X3297000Y4704000D02*
X3297000Y4384000D01*
X3297000Y4704000D02*
X3617000Y4704000D01*
X4577000Y4704000D02*
X4577000Y4384000D01*
X4577000Y4704000D02*
X4257000Y4704000D01*
D14*
X4462000Y2920000D02*
G75*
G03*
X4462000Y2920000I-125000J0D01*
G01*
D12*
%TO.C,U9*%
X12831000Y27481000D02*
X12831000Y27481000D01*
X12831000Y27381000D02*
X12831000Y27381000D01*
X12831000Y27381000D02*
G75*
G03*
X12831000Y27481000I0J50000D01*
G01*
X12831000Y27481000D02*
G75*
G03*
X12831000Y27381000I0J-50000D01*
G01*
D11*
%TO.C,C14*%
X63209000Y45415252D02*
X63209000Y43992748D01*
X60489000Y45415252D02*
X60489000Y43992748D01*
%TO.C,C12*%
X78742000Y27318580D02*
X78742000Y27037420D01*
X77722000Y27318580D02*
X77722000Y27037420D01*
%TO.C,C30*%
X3804580Y6621000D02*
X3523420Y6621000D01*
X3804580Y7641000D02*
X3523420Y7641000D01*
%TD*%
D15*
X17145000Y50800000D02*
X0Y50800000D01*
X29845000Y41910000D02*
X29845000Y50800000D01*
D16*
X67310000Y34290000D02*
X67310000Y50800000D01*
D15*
X17145000Y41910000D02*
X17145000Y50800000D01*
X0Y0D02*
X67310000Y0D01*
X91059000Y16510000D02*
X91059000Y34290000D01*
D16*
X67310000Y16510000D02*
X67310000Y0D01*
X91059000Y34290000D02*
X67310000Y34290000D01*
D15*
X29845000Y50800000D02*
X67310000Y50800000D01*
X0Y50800000D02*
X0Y0D01*
D16*
X91059000Y16510000D02*
X67310000Y16510000D01*
D15*
X17145000Y41910000D02*
X29845000Y41910000D01*
M02*
