%TF.GenerationSoftware,KiCad,Pcbnew,7.0.10*%
%TF.CreationDate,2024-06-17T16:45:55-04:00*%
%TF.ProjectId,MidInterface1.1.1,4d696449-6e74-4657-9266-616365312e31,rev?*%
%TF.SameCoordinates,PX772dc40PY4d83c00*%
%TF.FileFunction,Copper,L1,Top*%
%TF.FilePolarity,Positive*%
%FSLAX46Y46*%
G04 Gerber Fmt 4.6, Leading zero omitted, Abs format (unit mm)*
G04 Created by KiCad (PCBNEW 7.0.10) date 2024-06-17 16:45:55*
%MOMM*%
%LPD*%
G01*
G04 APERTURE LIST*
G04 Aperture macros list*
%AMRoundRect*
0 Rectangle with rounded corners*
0 $1 Rounding radius*
0 $2 $3 $4 $5 $6 $7 $8 $9 X,Y pos of 4 corners*
0 Add a 4 corners polygon primitive as box body*
4,1,4,$2,$3,$4,$5,$6,$7,$8,$9,$2,$3,0*
0 Add four circle primitives for the rounded corners*
1,1,$1+$1,$2,$3*
1,1,$1+$1,$4,$5*
1,1,$1+$1,$6,$7*
1,1,$1+$1,$8,$9*
0 Add four rect primitives between the rounded corners*
20,1,$1+$1,$2,$3,$4,$5,0*
20,1,$1+$1,$4,$5,$6,$7,0*
20,1,$1+$1,$6,$7,$8,$9,0*
20,1,$1+$1,$8,$9,$2,$3,0*%
G04 Aperture macros list end*
%TA.AperFunction,ComponentPad*%
%ADD10C,2.600000*%
%TD*%
%TA.AperFunction,ComponentPad*%
%ADD11C,3.000000*%
%TD*%
%TA.AperFunction,SMDPad,CuDef*%
%ADD12R,2.500000X0.700000*%
%TD*%
%TA.AperFunction,SMDPad,CuDef*%
%ADD13RoundRect,0.200000X0.275000X-0.200000X0.275000X0.200000X-0.275000X0.200000X-0.275000X-0.200000X0*%
%TD*%
%TA.AperFunction,ComponentPad*%
%ADD14R,1.700000X1.700000*%
%TD*%
%TA.AperFunction,ComponentPad*%
%ADD15O,1.700000X1.700000*%
%TD*%
%TA.AperFunction,ComponentPad*%
%ADD16R,1.200000X1.200000*%
%TD*%
%TA.AperFunction,ComponentPad*%
%ADD17C,1.200000*%
%TD*%
%TA.AperFunction,ComponentPad*%
%ADD18C,3.450000*%
%TD*%
%TA.AperFunction,ViaPad*%
%ADD19C,0.800000*%
%TD*%
%TA.AperFunction,Conductor*%
%ADD20C,0.350000*%
%TD*%
%TA.AperFunction,Conductor*%
%ADD21C,0.200000*%
%TD*%
%TA.AperFunction,Conductor*%
%ADD22C,0.250000*%
%TD*%
%TA.AperFunction,Profile*%
%ADD23C,0.025400*%
%TD*%
G04 APERTURE END LIST*
D10*
%TO.P,H2,11*%
%TO.N,GND*%
X18978000Y12000400D03*
%TD*%
D11*
%TO.P,H1,11*%
%TO.N,GND*%
X18978000Y31050400D03*
%TD*%
D12*
%TO.P,J1,1,1*%
%TO.N,GND*%
X17128000Y15900400D03*
%TO.P,J1,2,2*%
%TO.N,/USB D-*%
X17128000Y17150400D03*
%TO.P,J1,3,3*%
%TO.N,/USB D+*%
X17128000Y18400400D03*
%TO.P,J1,4,4*%
%TO.N,+5V*%
X17128000Y19650400D03*
%TO.P,J1,5,5*%
%TO.N,/Limit Switch*%
X17128000Y20900400D03*
%TO.P,J1,6,6*%
%TO.N,/M+*%
X17128000Y22150400D03*
%TO.P,J1,7,7*%
%TO.N,/M-*%
X17128000Y23400400D03*
%TO.P,J1,8,8*%
%TO.N,/Encoder A*%
X17128000Y24650400D03*
%TO.P,J1,9,9*%
%TO.N,/Encoder B*%
X17128000Y25900400D03*
%TO.P,J1,10,10*%
%TO.N,+BATT*%
X17128000Y27150400D03*
%TO.P,J1,11,11*%
%TO.N,/CAN-L*%
X20828000Y15900400D03*
%TO.P,J1,12,12*%
%TO.N,/CAN-H*%
X20828000Y17150400D03*
%TO.P,J1,13,13*%
%TO.N,VBUS*%
X20828000Y18400400D03*
%TO.P,J1,14,14*%
%TO.N,unconnected-(J1-Pad14)*%
X20828000Y19650400D03*
%TO.P,J1,15,15*%
%TO.N,unconnected-(J1-Pad15)*%
X20828000Y20900400D03*
%TO.P,J1,16,16*%
%TO.N,unconnected-(J1-Pad16)*%
X20828000Y22150400D03*
%TO.P,J1,17,17*%
%TO.N,unconnected-(J1-Pad17)*%
X20828000Y23400400D03*
%TO.P,J1,18,18*%
%TO.N,unconnected-(J1-Pad18)*%
X20828000Y24650400D03*
%TO.P,J1,19,19*%
%TO.N,unconnected-(J1-Pad19)*%
X20828000Y25900400D03*
%TO.P,J1,20,20*%
%TO.N,+3.3V*%
X20828000Y27150400D03*
%TD*%
D13*
%TO.P,R1,1*%
%TO.N,/Limit Switch*%
X12369800Y3340600D03*
%TO.P,R1,2*%
%TO.N,+3.3V*%
X12369800Y4990600D03*
%TD*%
D14*
%TO.P,J3,1,Pin_1*%
%TO.N,/Limit Switch*%
X10160000Y2032000D03*
D15*
%TO.P,J3,2,Pin_2*%
%TO.N,GND*%
X10160000Y4572000D03*
%TD*%
D16*
%TO.P,J2,1,VBUS*%
%TO.N,VBUS*%
X11176000Y19304000D03*
D17*
%TO.P,J2,2,D-*%
%TO.N,/USB D-*%
X11176000Y16804000D03*
%TO.P,J2,3,D+*%
%TO.N,/USB D+*%
X11176000Y14804000D03*
%TO.P,J2,4,GND*%
%TO.N,GND*%
X11176000Y12304000D03*
%TO.P,J2,5,SSRX-*%
%TO.N,+5V*%
X9676000Y11804000D03*
%TO.P,J2,6,SSRX+*%
%TO.N,+BATT*%
X9676000Y13804000D03*
%TO.P,J2,7,GND_DRAIN*%
%TO.N,GND*%
X9676000Y15804000D03*
%TO.P,J2,8,SSTX-*%
%TO.N,/CAN-H*%
X9676000Y17804000D03*
%TO.P,J2,9,SSTX+*%
%TO.N,/CAN-L*%
X9676000Y19804000D03*
D18*
%TO.P,J2,MH1,MH1*%
%TO.N,GND*%
X11176000Y22374000D03*
%TO.P,J2,MH2,MH2*%
X11176000Y9234000D03*
%TD*%
D19*
%TO.N,GND*%
X3429000Y13970000D03*
X12827000Y14859000D03*
X5080000Y15570200D03*
X14478000Y16256000D03*
%TO.N,/USB D-*%
X15367000Y17221525D03*
%TO.N,/USB D+*%
X13426000Y17054000D03*
%TO.N,+5V*%
X9906000Y25273000D03*
%TO.N,/Limit Switch*%
X15036800Y20955000D03*
%TO.N,/M+*%
X18948400Y22098000D03*
%TO.N,/M-*%
X18897600Y23469600D03*
%TO.N,/Encoder A*%
X3657600Y11963400D03*
%TO.N,/Encoder B*%
X6731000Y12979400D03*
%TO.N,+BATT*%
X14986000Y27100400D03*
%TO.N,+3.3V*%
X13278442Y5573601D03*
X20218400Y28219400D03*
%TO.N,VBUS*%
X18966114Y18929509D03*
%TD*%
D20*
%TO.N,GND*%
X9676000Y15804000D02*
X12090400Y15798800D01*
D21*
%TO.N,/USB D-*%
X15438125Y17150400D02*
X17128000Y17150400D01*
X15367000Y17221525D02*
X15438125Y17150400D01*
%TO.N,/USB D+*%
X14772400Y18400400D02*
X17128000Y18400400D01*
X13426000Y17054000D02*
X14772400Y18400400D01*
D22*
%TO.N,+5V*%
X14261000Y23331000D02*
X14261000Y20664000D01*
X12319000Y25273000D02*
X14261000Y23331000D01*
X9906000Y25273000D02*
X12319000Y25273000D01*
X15274600Y19650400D02*
X17128000Y19650400D01*
X14261000Y20664000D02*
X15274600Y19650400D01*
%TO.N,/Limit Switch*%
X11468600Y3340600D02*
X10160000Y2032000D01*
X12369800Y3340600D02*
X11468600Y3340600D01*
X17128000Y20900400D02*
X15036800Y20955000D01*
%TO.N,/M+*%
X18977998Y22148800D02*
X18976398Y22150400D01*
X18948400Y22098000D02*
X17128000Y22150400D01*
X18976398Y22150400D02*
X18948400Y22098000D01*
%TO.N,/M-*%
X17128000Y23400400D02*
X18897600Y23469600D01*
%TO.N,/Encoder A*%
X8509000Y21031200D02*
X8509000Y25654000D01*
X18770600Y28346400D02*
X19202400Y27914600D01*
X7736000Y15381400D02*
X7736000Y19293000D01*
X19202400Y25824800D02*
X18028000Y24650400D01*
X8102600Y20624800D02*
X8509000Y21031200D01*
X4318000Y11963400D02*
X7736000Y15381400D01*
X8102600Y19659600D02*
X8102600Y20624800D01*
X11201400Y28346400D02*
X18770600Y28346400D01*
X19202400Y27914600D02*
X19202400Y25824800D01*
X7736000Y19293000D02*
X8102600Y19659600D01*
X8509000Y25654000D02*
X11201400Y28346400D01*
X3657600Y11963400D02*
X4318000Y11963400D01*
%TO.N,/Encoder B*%
X18503900Y27838400D02*
X18719800Y27622500D01*
X18719800Y27622500D02*
X18719800Y26136800D01*
X18483400Y25900400D02*
X17128000Y25900400D01*
X6756400Y12979400D02*
X8186000Y14409000D01*
X9017000Y20777200D02*
X9017000Y25463500D01*
X11391900Y27838400D02*
X18503900Y27838400D01*
X8186000Y19029198D02*
X8610600Y19453798D01*
X9017000Y25463500D02*
X11391900Y27838400D01*
X8610600Y20370800D02*
X9017000Y20777200D01*
X8186000Y14409000D02*
X8186000Y19029198D01*
X18719800Y26136800D02*
X18483400Y25900400D01*
X8610600Y19453798D02*
X8610600Y20370800D01*
X6731000Y12979400D02*
X6756400Y12979400D01*
%TO.N,+BATT*%
X14986000Y27100400D02*
X17078000Y27100400D01*
X17078000Y27100400D02*
X17128000Y27150400D01*
%TO.N,/CAN-L*%
X9144000Y12827000D02*
X10287000Y12827000D01*
X9676000Y19804000D02*
X8636000Y18764000D01*
X11176000Y13716000D02*
X18643600Y13716000D01*
X18643600Y13716000D02*
X20828000Y15900400D01*
X8636000Y18764000D02*
X8636000Y13335000D01*
X10287000Y12827000D02*
X11176000Y13716000D01*
X8636000Y13335000D02*
X9144000Y12827000D01*
%TO.N,/CAN-H*%
X14042295Y15225400D02*
X12864000Y16403695D01*
X11484148Y17804000D02*
X9676000Y17804000D01*
X19050000Y15572400D02*
X18703000Y15225400D01*
X19050000Y16194400D02*
X19050000Y15572400D01*
X20828000Y17150400D02*
X20006000Y17150400D01*
X20006000Y17150400D02*
X19050000Y16194400D01*
X12864000Y16424148D02*
X11484148Y17804000D01*
X12864000Y16403695D02*
X12864000Y16424148D01*
X18703000Y15225400D02*
X14042295Y15225400D01*
%TO.N,+3.3V*%
X13278442Y5573601D02*
X12369800Y4990600D01*
X20218400Y27330400D02*
X20218400Y28219400D01*
X20828000Y27150400D02*
X20218400Y27330400D01*
%TO.N,VBUS*%
X18966114Y18929509D02*
X19195891Y18929509D01*
X19725000Y18400400D02*
X20828000Y18400400D01*
X19195891Y18929509D02*
X19725000Y18400400D01*
%TD*%
%TA.AperFunction,Conductor*%
%TO.N,GND*%
G36*
X17829813Y32898215D02*
G01*
X17875568Y32845411D01*
X17885512Y32776253D01*
X17857795Y32715564D01*
X17857385Y32709831D01*
X18442783Y32124433D01*
X18343575Y32075032D01*
X18166102Y31941010D01*
X18016277Y31776660D01*
X17900274Y31589310D01*
X17318569Y32171015D01*
X17291196Y32134447D01*
X17154091Y31883359D01*
X17054109Y31615296D01*
X16993300Y31335763D01*
X16972891Y31050402D01*
X16972891Y31050399D01*
X16993300Y30765038D01*
X17054109Y30485505D01*
X17154091Y30217442D01*
X17291191Y29966362D01*
X17291196Y29966354D01*
X17318569Y29929787D01*
X17318570Y29929787D01*
X17900274Y30511491D01*
X18016277Y30324140D01*
X18166102Y30159790D01*
X18343575Y30025768D01*
X18442782Y29976369D01*
X17857385Y29390972D01*
X17857386Y29390971D01*
X17893953Y29363597D01*
X17893961Y29363592D01*
X18145042Y29226492D01*
X18145041Y29226492D01*
X18183676Y29212082D01*
X18239609Y29170210D01*
X18264026Y29104746D01*
X18249174Y29036473D01*
X18199769Y28987068D01*
X18140342Y28971900D01*
X11284143Y28971900D01*
X11268522Y28973625D01*
X11268495Y28973339D01*
X11260733Y28974074D01*
X11193513Y28971961D01*
X11189619Y28971900D01*
X11162050Y28971900D01*
X11158073Y28971398D01*
X11146442Y28970483D01*
X11102774Y28969111D01*
X11102768Y28969110D01*
X11083526Y28963520D01*
X11064487Y28959577D01*
X11044617Y28957066D01*
X11044603Y28957063D01*
X11003998Y28940987D01*
X10992954Y28937206D01*
X10951014Y28925021D01*
X10951010Y28925019D01*
X10933766Y28914821D01*
X10916305Y28906267D01*
X10897674Y28898890D01*
X10897662Y28898883D01*
X10862333Y28873215D01*
X10852573Y28866804D01*
X10814980Y28844571D01*
X10800814Y28830405D01*
X10786024Y28817773D01*
X10769814Y28805996D01*
X10769811Y28805993D01*
X10741973Y28772342D01*
X10734111Y28763703D01*
X8125208Y26154801D01*
X8112951Y26144980D01*
X8113134Y26144759D01*
X8107122Y26139786D01*
X8061098Y26090777D01*
X8058391Y26087984D01*
X8038889Y26068483D01*
X8038875Y26068466D01*
X8036407Y26065285D01*
X8028843Y26056430D01*
X7998937Y26024582D01*
X7998936Y26024580D01*
X7989284Y26007024D01*
X7978610Y25990774D01*
X7966329Y25974939D01*
X7966324Y25974932D01*
X7948975Y25934842D01*
X7943838Y25924356D01*
X7922803Y25886094D01*
X7917822Y25866693D01*
X7911521Y25848290D01*
X7903562Y25829898D01*
X7903561Y25829895D01*
X7896728Y25786757D01*
X7894360Y25775326D01*
X7883501Y25733029D01*
X7883500Y25733018D01*
X7883500Y25712984D01*
X7881973Y25693585D01*
X7878840Y25673806D01*
X7878840Y25673805D01*
X7882950Y25630326D01*
X7883500Y25618657D01*
X7883500Y21341654D01*
X7863815Y21274615D01*
X7847181Y21253974D01*
X7745818Y21152611D01*
X7718808Y21125600D01*
X7706551Y21115780D01*
X7706734Y21115559D01*
X7700722Y21110586D01*
X7654698Y21061577D01*
X7651991Y21058784D01*
X7632489Y21039283D01*
X7632475Y21039266D01*
X7630007Y21036085D01*
X7622443Y21027230D01*
X7592537Y20995382D01*
X7592536Y20995380D01*
X7582884Y20977824D01*
X7572210Y20961574D01*
X7559929Y20945739D01*
X7559924Y20945732D01*
X7542575Y20905642D01*
X7537438Y20895156D01*
X7516403Y20856894D01*
X7511422Y20837493D01*
X7505121Y20819090D01*
X7497162Y20800698D01*
X7497161Y20800695D01*
X7490328Y20757557D01*
X7487960Y20746126D01*
X7477101Y20703829D01*
X7477100Y20703818D01*
X7477100Y20683784D01*
X7475573Y20664385D01*
X7472440Y20644606D01*
X7472440Y20644605D01*
X7476550Y20601126D01*
X7477100Y20589457D01*
X7477100Y19970053D01*
X7457415Y19903014D01*
X7440785Y19882377D01*
X7388418Y19830009D01*
X7352211Y19793802D01*
X7339952Y19783981D01*
X7340135Y19783760D01*
X7334125Y19778788D01*
X7288096Y19729774D01*
X7285389Y19726981D01*
X7265882Y19707474D01*
X7265867Y19707457D01*
X7263407Y19704286D01*
X7255841Y19695428D01*
X7225937Y19663582D01*
X7225936Y19663580D01*
X7216284Y19646024D01*
X7205610Y19629774D01*
X7193329Y19613939D01*
X7193324Y19613932D01*
X7175975Y19573842D01*
X7170838Y19563356D01*
X7149803Y19525094D01*
X7144822Y19505693D01*
X7138521Y19487290D01*
X7130562Y19468898D01*
X7130561Y19468895D01*
X7123728Y19425757D01*
X7121360Y19414326D01*
X7110501Y19372029D01*
X7110500Y19372018D01*
X7110500Y19351984D01*
X7108973Y19332585D01*
X7105840Y19312806D01*
X7105840Y19312805D01*
X7109950Y19269326D01*
X7110500Y19257657D01*
X7110500Y15691854D01*
X7090815Y15624815D01*
X7074181Y15604173D01*
X4244786Y12774779D01*
X4183463Y12741294D01*
X4113771Y12746278D01*
X4106669Y12749181D01*
X3937407Y12824543D01*
X3937402Y12824545D01*
X3791601Y12855535D01*
X3752246Y12863900D01*
X3562954Y12863900D01*
X3530497Y12857002D01*
X3377797Y12824545D01*
X3377792Y12824543D01*
X3204870Y12747552D01*
X3204865Y12747549D01*
X3051729Y12636289D01*
X2925066Y12495615D01*
X2830421Y12331685D01*
X2830418Y12331678D01*
X2786091Y12195252D01*
X2771926Y12151656D01*
X2752140Y11963400D01*
X2771926Y11775144D01*
X2771927Y11775141D01*
X2830418Y11595123D01*
X2830421Y11595116D01*
X2925067Y11431184D01*
X3009061Y11337900D01*
X3051729Y11290512D01*
X3204865Y11179252D01*
X3204870Y11179249D01*
X3377792Y11102258D01*
X3377797Y11102256D01*
X3562954Y11062900D01*
X3562955Y11062900D01*
X3752244Y11062900D01*
X3752246Y11062900D01*
X3937403Y11102256D01*
X4110330Y11179249D01*
X4263471Y11290512D01*
X4269201Y11296877D01*
X4328684Y11333526D01*
X4353567Y11337662D01*
X4357343Y11337900D01*
X4357350Y11337900D01*
X4361324Y11338403D01*
X4372963Y11339320D01*
X4416627Y11340691D01*
X4435869Y11346283D01*
X4454912Y11350226D01*
X4474792Y11352736D01*
X4515401Y11368815D01*
X4526444Y11372597D01*
X4568390Y11384782D01*
X4585629Y11394978D01*
X4603103Y11403538D01*
X4621727Y11410912D01*
X4621727Y11410913D01*
X4621732Y11410914D01*
X4657083Y11436600D01*
X4666814Y11442992D01*
X4704420Y11465230D01*
X4718589Y11479401D01*
X4733379Y11492032D01*
X4749587Y11503806D01*
X4777438Y11537474D01*
X4785279Y11546091D01*
X5769965Y12530777D01*
X5831287Y12564260D01*
X5900979Y12559276D01*
X5956912Y12517404D01*
X5965032Y12505094D01*
X5998465Y12447186D01*
X6125129Y12306512D01*
X6278265Y12195252D01*
X6278270Y12195249D01*
X6451192Y12118258D01*
X6451197Y12118256D01*
X6636354Y12078900D01*
X6636355Y12078900D01*
X6825644Y12078900D01*
X6825646Y12078900D01*
X7010803Y12118256D01*
X7183730Y12195249D01*
X7336871Y12306512D01*
X7463533Y12447184D01*
X7558179Y12611116D01*
X7616674Y12791144D01*
X7631337Y12930670D01*
X7657921Y12995283D01*
X7666968Y13005380D01*
X7839068Y13177480D01*
X7900389Y13210963D01*
X7970081Y13205979D01*
X8026014Y13164107D01*
X8045823Y13124393D01*
X8057380Y13084612D01*
X8067580Y13067366D01*
X8076138Y13049897D01*
X8083514Y13031268D01*
X8109181Y12995940D01*
X8115593Y12986179D01*
X8137828Y12948583D01*
X8137833Y12948576D01*
X8151990Y12934420D01*
X8164628Y12919624D01*
X8176405Y12903414D01*
X8176406Y12903413D01*
X8210057Y12875575D01*
X8218698Y12867712D01*
X8643194Y12443216D01*
X8653017Y12430955D01*
X8653239Y12431137D01*
X8663186Y12419113D01*
X8662016Y12418146D01*
X8692949Y12365507D01*
X8690160Y12295693D01*
X8683673Y12280080D01*
X8651925Y12216319D01*
X8645418Y12203250D01*
X8638290Y12178199D01*
X8589602Y12007083D01*
X8570785Y11804001D01*
X8570785Y11804000D01*
X8589602Y11600918D01*
X8645417Y11404753D01*
X8645422Y11404740D01*
X8736327Y11222179D01*
X8859237Y11059419D01*
X9009958Y10922020D01*
X9009960Y10922018D01*
X9101825Y10865138D01*
X9183363Y10814652D01*
X9335256Y10755809D01*
X9390657Y10713236D01*
X9414248Y10647469D01*
X9398537Y10579389D01*
X9393564Y10571292D01*
X9244960Y10348891D01*
X9244956Y10348884D01*
X9115958Y10087302D01*
X9022203Y9811106D01*
X9022201Y9811098D01*
X8965303Y9525055D01*
X8965302Y9525043D01*
X8946226Y9234000D01*
X8965302Y8942958D01*
X8965303Y8942946D01*
X9022201Y8656903D01*
X9022203Y8656895D01*
X9115958Y8380699D01*
X9244956Y8119117D01*
X9356044Y7952862D01*
X10136633Y8733451D01*
X10142152Y8719205D01*
X10254348Y8538001D01*
X10397931Y8380499D01*
X10568009Y8252061D01*
X10678071Y8197257D01*
X9894860Y7414046D01*
X10061116Y7302957D01*
X10322698Y7173959D01*
X10598894Y7080204D01*
X10598902Y7080202D01*
X10884945Y7023304D01*
X10884957Y7023303D01*
X11176000Y7004227D01*
X11467042Y7023303D01*
X11467054Y7023304D01*
X11753097Y7080202D01*
X11753105Y7080204D01*
X12029301Y7173959D01*
X12290883Y7302957D01*
X12457138Y7414046D01*
X11673928Y8197257D01*
X11783991Y8252061D01*
X11954069Y8380499D01*
X12097652Y8538001D01*
X12209848Y8719205D01*
X12215366Y8733450D01*
X12995954Y7952862D01*
X13107043Y8119117D01*
X13236041Y8380699D01*
X13329796Y8656895D01*
X13329798Y8656903D01*
X13386696Y8942946D01*
X13386697Y8942958D01*
X13405773Y9234000D01*
X13386697Y9525043D01*
X13386696Y9525055D01*
X13329798Y9811098D01*
X13329796Y9811106D01*
X13236041Y10087302D01*
X13107043Y10348884D01*
X12995954Y10515140D01*
X12215366Y9734552D01*
X12209848Y9748795D01*
X12097652Y9929999D01*
X11954069Y10087501D01*
X11783991Y10215939D01*
X11673927Y10270744D01*
X12457138Y11053956D01*
X12290883Y11165044D01*
X12029298Y11294043D01*
X12029291Y11294045D01*
X11838744Y11358729D01*
X11781419Y11361973D01*
X11735341Y11391105D01*
X11172446Y11954000D01*
X11205005Y11954000D01*
X11291216Y11968386D01*
X11393947Y12023981D01*
X11473060Y12109921D01*
X11519982Y12216892D01*
X11527380Y12306173D01*
X12113465Y11720088D01*
X12115247Y11722447D01*
X12115248Y11722449D01*
X12206113Y11904931D01*
X12206116Y11904937D01*
X12261902Y12101008D01*
X12261903Y12101011D01*
X12280713Y12304000D01*
X12280713Y12304001D01*
X12261903Y12506990D01*
X12261902Y12506993D01*
X12206116Y12703064D01*
X12206113Y12703070D01*
X12115245Y12885558D01*
X12110552Y12891772D01*
X12085859Y12957133D01*
X12100423Y13025468D01*
X12149620Y13075081D01*
X12209505Y13090500D01*
X17314135Y13090500D01*
X17381174Y13070815D01*
X17426929Y13018011D01*
X17436873Y12948853D01*
X17421522Y12904500D01*
X17351709Y12783582D01*
X17253148Y12532453D01*
X17253142Y12532434D01*
X17193113Y12269429D01*
X17193113Y12269427D01*
X17172953Y12000405D01*
X17172953Y12000396D01*
X17193113Y11731374D01*
X17193113Y11731372D01*
X17253142Y11468367D01*
X17253148Y11468348D01*
X17351709Y11217219D01*
X17463088Y11024305D01*
X17463089Y11024304D01*
X17938633Y11499849D01*
X17944152Y11485605D01*
X18056348Y11304401D01*
X18199931Y11146899D01*
X18370009Y11018461D01*
X18480070Y10963658D01*
X18003006Y10486594D01*
X18006581Y10448477D01*
X17993242Y10379893D01*
X17944941Y10329408D01*
X17883123Y10312900D01*
X17022957Y10312900D01*
X17018351Y10313084D01*
X17017710Y10312876D01*
X17017294Y10312462D01*
X17015505Y10308590D01*
X13579887Y3535514D01*
X13532004Y3484632D01*
X13464214Y3467713D01*
X13398038Y3490131D01*
X13354488Y3544767D01*
X13345300Y3591609D01*
X13345300Y3597214D01*
X13338886Y3667793D01*
X13338886Y3667796D01*
X13288278Y3830206D01*
X13200272Y3975785D01*
X13200270Y3975787D01*
X13200269Y3975789D01*
X13098139Y4077919D01*
X13064654Y4139242D01*
X13069638Y4208934D01*
X13098139Y4253281D01*
X13200268Y4355411D01*
X13200269Y4355412D01*
X13200272Y4355415D01*
X13288278Y4500994D01*
X13318100Y4596699D01*
X13356837Y4654845D01*
X13410703Y4681097D01*
X13558245Y4712457D01*
X13731172Y4789450D01*
X13884313Y4900713D01*
X14010975Y5041385D01*
X14105621Y5205317D01*
X14164116Y5385345D01*
X14183902Y5573601D01*
X14164116Y5761857D01*
X14105621Y5941885D01*
X14010975Y6105817D01*
X13884313Y6246489D01*
X13884312Y6246490D01*
X13731176Y6357750D01*
X13731171Y6357753D01*
X13558249Y6434744D01*
X13558244Y6434746D01*
X13412443Y6465736D01*
X13373088Y6474101D01*
X13183796Y6474101D01*
X13151339Y6467203D01*
X12998639Y6434746D01*
X12998634Y6434744D01*
X12825712Y6357753D01*
X12825707Y6357750D01*
X12672571Y6246490D01*
X12545908Y6105816D01*
X12457738Y5953100D01*
X12407171Y5904885D01*
X12350351Y5891100D01*
X12038184Y5891100D01*
X12018945Y5889352D01*
X11967607Y5884687D01*
X11805193Y5834078D01*
X11659611Y5746070D01*
X11539330Y5625789D01*
X11451322Y5480207D01*
X11440458Y5445340D01*
X11401720Y5387192D01*
X11337695Y5359218D01*
X11268709Y5370299D01*
X11220497Y5411106D01*
X11198109Y5443078D01*
X11198108Y5443080D01*
X11031082Y5610106D01*
X10837578Y5745601D01*
X10623492Y5845430D01*
X10623486Y5845433D01*
X10410000Y5902636D01*
X10410000Y5007502D01*
X10302315Y5056680D01*
X10195763Y5072000D01*
X10124237Y5072000D01*
X10017685Y5056680D01*
X9910000Y5007502D01*
X9910000Y5902636D01*
X9909999Y5902636D01*
X9696513Y5845433D01*
X9696507Y5845430D01*
X9482422Y5745601D01*
X9482420Y5745600D01*
X9288926Y5610114D01*
X9288920Y5610109D01*
X9121891Y5443080D01*
X9121886Y5443074D01*
X8986400Y5249580D01*
X8986399Y5249578D01*
X8886570Y5035493D01*
X8886567Y5035487D01*
X8829364Y4822001D01*
X8829364Y4822000D01*
X9726314Y4822000D01*
X9700507Y4781844D01*
X9660000Y4643889D01*
X9660000Y4500111D01*
X9700507Y4362156D01*
X9726314Y4322000D01*
X8829364Y4322000D01*
X8886567Y4108514D01*
X8886570Y4108508D01*
X8986399Y3894422D01*
X9121894Y3700918D01*
X9243946Y3578866D01*
X9277431Y3517543D01*
X9272447Y3447851D01*
X9230575Y3391918D01*
X9199598Y3375003D01*
X9067671Y3325798D01*
X9067664Y3325794D01*
X8952455Y3239548D01*
X8952452Y3239545D01*
X8866206Y3124336D01*
X8866202Y3124329D01*
X8815908Y2989483D01*
X8809501Y2929884D01*
X8809500Y2929865D01*
X8809500Y1134130D01*
X8809501Y1134124D01*
X8815908Y1074517D01*
X8866202Y939672D01*
X8866206Y939665D01*
X8952452Y824456D01*
X8958725Y818183D01*
X8956305Y815764D01*
X8988288Y773041D01*
X8993272Y703349D01*
X8959787Y642026D01*
X8898464Y608541D01*
X8880541Y605994D01*
X132935Y9566D01*
X64712Y24645D01*
X15471Y74214D01*
X500Y133279D01*
X500Y16385500D01*
X20185Y16452539D01*
X72989Y16498294D01*
X124500Y16509500D01*
X6344308Y16509500D01*
X6350122Y16509258D01*
X6350711Y16509796D01*
X6350956Y16515444D01*
X6351487Y16521786D01*
X7712557Y32804230D01*
X7737758Y32869396D01*
X7794189Y32910593D01*
X7836126Y32917900D01*
X17762774Y32917900D01*
X17829813Y32898215D01*
G37*
%TD.AperFunction*%
%TA.AperFunction,Conductor*%
G36*
X22315181Y15027317D02*
G01*
X22348666Y14965994D01*
X22351500Y14939636D01*
X22351500Y10436900D01*
X22331815Y10369861D01*
X22279011Y10324106D01*
X22227500Y10312900D01*
X20072877Y10312900D01*
X20005838Y10332585D01*
X19960083Y10385389D01*
X19949419Y10448478D01*
X19952993Y10486593D01*
X19475928Y10963657D01*
X19585991Y11018461D01*
X19756069Y11146899D01*
X19899652Y11304401D01*
X20011848Y11485605D01*
X20017365Y11499849D01*
X20492910Y11024304D01*
X20492911Y11024304D01*
X20604290Y11217219D01*
X20702851Y11468348D01*
X20702857Y11468367D01*
X20762886Y11731372D01*
X20762886Y11731374D01*
X20783047Y12000396D01*
X20783047Y12000405D01*
X20762886Y12269427D01*
X20762886Y12269429D01*
X20702857Y12532434D01*
X20702851Y12532453D01*
X20604290Y12783582D01*
X20492910Y12976497D01*
X20017365Y12500953D01*
X20011848Y12515195D01*
X19899652Y12696399D01*
X19756069Y12853901D01*
X19585991Y12982339D01*
X19475927Y13037144D01*
X19952992Y13514209D01*
X19880524Y13563617D01*
X19880518Y13563620D01*
X19697315Y13651846D01*
X19645455Y13698668D01*
X19627142Y13766095D01*
X19648190Y13832719D01*
X19663428Y13851240D01*
X20825772Y15013582D01*
X20887095Y15047067D01*
X20913453Y15049901D01*
X22125871Y15049901D01*
X22125872Y15049901D01*
X22185483Y15056309D01*
X22185485Y15056310D01*
X22185487Y15056310D01*
X22193031Y15058092D01*
X22193412Y15056480D01*
X22253858Y15060802D01*
X22315181Y15027317D01*
G37*
%TD.AperFunction*%
%TA.AperFunction,Conductor*%
G36*
X12244703Y16158854D02*
G01*
X12325149Y16078408D01*
X12344199Y16053849D01*
X12365825Y16017281D01*
X12365833Y16017271D01*
X12379990Y16003115D01*
X12392628Y15988319D01*
X12404405Y15972109D01*
X12404406Y15972108D01*
X12438057Y15944270D01*
X12446698Y15936407D01*
X13541489Y14841616D01*
X13551314Y14829352D01*
X13551535Y14829534D01*
X13556505Y14823526D01*
X13605534Y14777485D01*
X13608331Y14774774D01*
X13627825Y14755280D01*
X13630990Y14752825D01*
X13639866Y14745244D01*
X13671713Y14715338D01*
X13671717Y14715336D01*
X13689268Y14705687D01*
X13705526Y14695008D01*
X13721359Y14682726D01*
X13756705Y14667432D01*
X13761450Y14665378D01*
X13771930Y14660245D01*
X13810203Y14639203D01*
X13829607Y14634221D01*
X13848005Y14627922D01*
X13866400Y14619962D01*
X13909549Y14613129D01*
X13920975Y14610762D01*
X13963276Y14599900D01*
X13983311Y14599900D01*
X14002708Y14598374D01*
X14022491Y14595240D01*
X14065970Y14599350D01*
X14077639Y14599900D01*
X18343547Y14599900D01*
X18410586Y14580215D01*
X18456341Y14527411D01*
X18466285Y14458253D01*
X18437260Y14394697D01*
X18431228Y14388219D01*
X18420828Y14377819D01*
X18359505Y14344334D01*
X18333147Y14341500D01*
X12352788Y14341500D01*
X12285749Y14361185D01*
X12239994Y14413989D01*
X12230050Y14483147D01*
X12233520Y14499428D01*
X12262397Y14600917D01*
X12281215Y14804000D01*
X12277729Y14841616D01*
X12262397Y15007083D01*
X12248391Y15056309D01*
X12206582Y15203250D01*
X12115673Y15385821D01*
X11992764Y15548579D01*
X11992762Y15548582D01*
X11842042Y15685981D01*
X11830723Y15692989D01*
X11821704Y15698574D01*
X11775069Y15750599D01*
X11763964Y15819581D01*
X11791916Y15883615D01*
X11821703Y15909427D01*
X11842041Y15922019D01*
X11992764Y16059421D01*
X12058070Y16145901D01*
X12114175Y16187535D01*
X12183887Y16192228D01*
X12244703Y16158854D01*
G37*
%TD.AperFunction*%
%TA.AperFunction,Conductor*%
G36*
X14478427Y16920579D02*
G01*
X14529903Y16873335D01*
X14536503Y16858885D01*
X14537175Y16859184D01*
X14539821Y16853241D01*
X14634467Y16689309D01*
X14714056Y16600917D01*
X14761129Y16548637D01*
X14914265Y16437377D01*
X14914270Y16437374D01*
X15087192Y16360383D01*
X15087197Y16360381D01*
X15272354Y16321025D01*
X15272355Y16321025D01*
X15278711Y16319674D01*
X15278139Y16316984D01*
X15331535Y16295042D01*
X15371544Y16237761D01*
X15378000Y16198272D01*
X15378000Y16150400D01*
X17254000Y16150400D01*
X17321039Y16130715D01*
X17366794Y16077911D01*
X17378000Y16026400D01*
X17378000Y15974900D01*
X17358315Y15907861D01*
X17305511Y15862106D01*
X17254000Y15850900D01*
X14352747Y15850900D01*
X14285708Y15870585D01*
X14265066Y15887219D01*
X13983538Y16168747D01*
X13950053Y16230070D01*
X13955037Y16299762D01*
X13996909Y16355695D01*
X13998268Y16356699D01*
X14031871Y16381112D01*
X14158533Y16521784D01*
X14253179Y16685716D01*
X14305785Y16847621D01*
X14345222Y16905296D01*
X14409581Y16932494D01*
X14478427Y16920579D01*
G37*
%TD.AperFunction*%
%TA.AperFunction,Conductor*%
G36*
X13598658Y22179334D02*
G01*
X13632507Y22118212D01*
X13635500Y22091133D01*
X13635500Y20746745D01*
X13633775Y20731128D01*
X13634061Y20731101D01*
X13633326Y20723335D01*
X13635439Y20656128D01*
X13635500Y20652233D01*
X13635500Y20624643D01*
X13636003Y20620665D01*
X13636918Y20609033D01*
X13638290Y20565376D01*
X13638291Y20565373D01*
X13643880Y20546133D01*
X13647824Y20527089D01*
X13650336Y20507208D01*
X13666414Y20466597D01*
X13670197Y20455548D01*
X13677193Y20431468D01*
X13682382Y20413610D01*
X13687769Y20404500D01*
X13692580Y20396366D01*
X13701138Y20378897D01*
X13708514Y20360268D01*
X13734181Y20324940D01*
X13740593Y20315179D01*
X13762828Y20277583D01*
X13762833Y20277576D01*
X13776990Y20263420D01*
X13789628Y20248624D01*
X13801405Y20232414D01*
X13801406Y20232413D01*
X13835057Y20204575D01*
X13843698Y20196712D01*
X14773797Y19266612D01*
X14783622Y19254349D01*
X14783843Y19254531D01*
X14788811Y19248526D01*
X14822429Y19216956D01*
X14857823Y19156715D01*
X14855031Y19086901D01*
X14814937Y19029680D01*
X14753732Y19003625D01*
X14693923Y18995751D01*
X14670989Y18992731D01*
X14615639Y18985445D01*
X14615637Y18985444D01*
X14469557Y18924936D01*
X14344118Y18828684D01*
X14324889Y18803625D01*
X14314198Y18791435D01*
X13513584Y17990819D01*
X13452261Y17957334D01*
X13425903Y17954500D01*
X13331354Y17954500D01*
X13298897Y17947602D01*
X13146197Y17915145D01*
X13146192Y17915143D01*
X12973270Y17838152D01*
X12973265Y17838149D01*
X12820129Y17726889D01*
X12820128Y17726888D01*
X12730230Y17627047D01*
X12670743Y17590399D01*
X12600886Y17591730D01*
X12550400Y17622339D01*
X12059016Y18113723D01*
X12025531Y18175046D01*
X12030515Y18244738D01*
X12072385Y18300670D01*
X12133546Y18346454D01*
X12219796Y18461669D01*
X12270091Y18596517D01*
X12276500Y18656127D01*
X12276499Y19951872D01*
X12270091Y20011483D01*
X12256369Y20048273D01*
X12219797Y20146329D01*
X12219796Y20146330D01*
X12219796Y20146331D01*
X12166239Y20217874D01*
X12141822Y20283338D01*
X12156674Y20351611D01*
X12206079Y20401017D01*
X12210663Y20403398D01*
X12290886Y20442959D01*
X12457138Y20554046D01*
X11673927Y21337257D01*
X11783991Y21392061D01*
X11954069Y21520499D01*
X12097652Y21678001D01*
X12209848Y21859205D01*
X12215366Y21873450D01*
X12995954Y21092862D01*
X13107043Y21259117D01*
X13236041Y21520699D01*
X13329796Y21796895D01*
X13329798Y21796903D01*
X13386696Y22082946D01*
X13386697Y22082958D01*
X13387765Y22099243D01*
X13411792Y22164851D01*
X13467476Y22207055D01*
X13537137Y22212454D01*
X13598658Y22179334D01*
G37*
%TD.AperFunction*%
%TA.AperFunction,Conductor*%
G36*
X22294539Y32898215D02*
G01*
X22340294Y32845411D01*
X22351500Y32793900D01*
X22351500Y28111165D01*
X22331815Y28044126D01*
X22279011Y27998371D01*
X22209853Y27988427D01*
X22193037Y27992718D01*
X22193035Y27992707D01*
X22185483Y27994492D01*
X22125883Y28000899D01*
X22125881Y28000900D01*
X22125873Y28000900D01*
X22125865Y28000900D01*
X21238611Y28000900D01*
X21171572Y28020585D01*
X21125817Y28073389D01*
X21115290Y28137861D01*
X21123860Y28219400D01*
X21104074Y28407656D01*
X21045579Y28587684D01*
X20950933Y28751616D01*
X20824271Y28892288D01*
X20815190Y28898886D01*
X20671134Y29003549D01*
X20671129Y29003552D01*
X20498207Y29080543D01*
X20498202Y29080545D01*
X20352401Y29111535D01*
X20313046Y29119900D01*
X20123754Y29119900D01*
X20121524Y29119427D01*
X20120205Y29119527D01*
X20117297Y29119221D01*
X20117241Y29119754D01*
X20051860Y29124744D01*
X19996127Y29166882D01*
X19972023Y29232462D01*
X19987201Y29300663D01*
X20036322Y29349550D01*
X20062042Y29363595D01*
X20062047Y29363598D01*
X20098613Y29390972D01*
X19513217Y29976369D01*
X19612425Y30025768D01*
X19789898Y30159790D01*
X19939723Y30324140D01*
X20055725Y30511490D01*
X20637428Y29929787D01*
X20664802Y29966353D01*
X20664808Y29966363D01*
X20801908Y30217442D01*
X20901890Y30485505D01*
X20962699Y30765038D01*
X20983109Y31050399D01*
X20983109Y31050402D01*
X20962699Y31335763D01*
X20901890Y31615296D01*
X20801908Y31883359D01*
X20664808Y32134439D01*
X20664803Y32134447D01*
X20637429Y32171014D01*
X20637428Y32171015D01*
X20055724Y31589312D01*
X19939723Y31776660D01*
X19789898Y31941010D01*
X19612425Y32075032D01*
X19513216Y32124433D01*
X20098613Y32709830D01*
X20097670Y32723011D01*
X20077043Y32750565D01*
X20072057Y32820257D01*
X20105542Y32881580D01*
X20166864Y32915066D01*
X20193224Y32917900D01*
X22227500Y32917900D01*
X22294539Y32898215D01*
G37*
%TD.AperFunction*%
%TD*%
D23*
X22352000Y10312400D02*
X17018000Y10312400D01*
X6350000Y16510000D02*
X0Y16510000D01*
X7721600Y32918400D02*
X22352000Y32918400D01*
X17018000Y10312400D02*
X13462000Y3302000D01*
X11176000Y762000D02*
X13462000Y3302000D01*
X6350000Y16510000D02*
X7721600Y32918400D01*
X0Y0D02*
X0Y16510000D01*
X22352000Y32918400D02*
X22352000Y10312400D01*
X11176000Y762000D02*
X0Y0D01*
M02*
