%TF.GenerationSoftware,KiCad,Pcbnew,(7.0.0)*%
%TF.CreationDate,2024-06-17T13:36:31-04:00*%
%TF.ProjectId,MidInterface1.1.1,4d696449-6e74-4657-9266-616365312e31,rev?*%
%TF.SameCoordinates,PX772dc40PY4d83c00*%
%TF.FileFunction,Drillmap*%
%TF.FilePolarity,Positive*%
%FSLAX45Y45*%
G04 Gerber Fmt 4.5, Leading zero omitted, Abs format (unit mm)*
G04 Created by KiCad (PCBNEW (7.0.0)) date 2024-06-17 13:36:31*
%MOMM*%
%LPD*%
G01*
G04 APERTURE LIST*
%ADD10C,0.025400*%
%ADD11C,0.200000*%
%ADD12C,0.040000*%
%ADD13C,0.070000*%
%ADD14C,0.100000*%
%ADD15C,0.230000*%
%ADD16C,0.240000*%
G04 APERTURE END LIST*
D10*
X2235200Y1031240D02*
X1701800Y1031240D01*
X635000Y1651000D02*
X0Y1651000D01*
X772160Y3291840D02*
X2235200Y3291840D01*
X1701800Y1031240D02*
X1346200Y330200D01*
X1117600Y76200D02*
X1346200Y330200D01*
X635000Y1651000D02*
X772160Y3291840D01*
X0Y0D02*
X0Y1651000D01*
X2235200Y3291840D02*
X2235200Y1031240D01*
X1117600Y76200D02*
X0Y0D01*
D11*
D12*
X322900Y1417000D02*
X362900Y1377000D01*
X362900Y1417000D02*
X322900Y1377000D01*
X345760Y1216340D02*
X385760Y1176340D01*
X385760Y1216340D02*
X345760Y1176340D01*
X488000Y1577020D02*
X528000Y1537020D01*
X528000Y1577020D02*
X488000Y1537020D01*
X653100Y1317940D02*
X693100Y1277940D01*
X693100Y1317940D02*
X653100Y1277940D01*
X970600Y2547300D02*
X1010600Y2507300D01*
X1010600Y2547300D02*
X970600Y2507300D01*
X1262700Y1505900D02*
X1302700Y1465900D01*
X1302700Y1505900D02*
X1262700Y1465900D01*
X1307844Y577360D02*
X1347844Y537360D01*
X1347844Y577360D02*
X1307844Y537360D01*
X1322600Y1725400D02*
X1362600Y1685400D01*
X1362600Y1725400D02*
X1322600Y1685400D01*
X1427800Y1645600D02*
X1467800Y1605600D01*
X1467800Y1645600D02*
X1427800Y1605600D01*
X1478600Y2730040D02*
X1518600Y2690040D01*
X1518600Y2730040D02*
X1478600Y2690040D01*
X1483680Y2115500D02*
X1523680Y2075500D01*
X1523680Y2115500D02*
X1483680Y2075500D01*
X1516700Y1742152D02*
X1556700Y1702152D01*
X1556700Y1742152D02*
X1516700Y1702152D01*
X1869760Y2366960D02*
X1909760Y2326960D01*
X1909760Y2366960D02*
X1869760Y2326960D01*
X1874840Y2229800D02*
X1914840Y2189800D01*
X1914840Y2229800D02*
X1874840Y2189800D01*
X1876611Y1912951D02*
X1916611Y1872951D01*
X1916611Y1912951D02*
X1876611Y1872951D01*
X2001840Y2841940D02*
X2041840Y2801940D01*
X2041840Y2841940D02*
X2001840Y2801940D01*
D13*
X1002600Y1980400D02*
G75*
G03*
X1002600Y1980400I-35000J0D01*
G01*
X1002600Y1780400D02*
G75*
G03*
X1002600Y1780400I-35000J0D01*
G01*
X1002600Y1580400D02*
G75*
G03*
X1002600Y1580400I-35000J0D01*
G01*
X1002600Y1380400D02*
G75*
G03*
X1002600Y1380400I-35000J0D01*
G01*
X1002600Y1180400D02*
G75*
G03*
X1002600Y1180400I-35000J0D01*
G01*
X1152600Y1930400D02*
G75*
G03*
X1152600Y1930400I-35000J0D01*
G01*
X1152600Y1680400D02*
G75*
G03*
X1152600Y1680400I-35000J0D01*
G01*
X1152600Y1480400D02*
G75*
G03*
X1152600Y1480400I-35000J0D01*
G01*
X1152600Y1230400D02*
G75*
G03*
X1152600Y1230400I-35000J0D01*
G01*
D14*
X1016000Y507200D02*
X1016000Y407200D01*
X966000Y457200D02*
X1066000Y457200D01*
X1016000Y253200D02*
X1016000Y153200D01*
X966000Y203200D02*
X1066000Y203200D01*
D15*
X1198918Y2156082D02*
X1198918Y2318718D01*
X1036282Y2318718D01*
X1036282Y2156082D01*
X1198918Y2156082D01*
X1198918Y842082D02*
X1198918Y1004718D01*
X1036282Y1004718D01*
X1036282Y842082D01*
X1198918Y842082D01*
X1979118Y1118722D02*
X1979118Y1281358D01*
X1816482Y1281358D01*
X1816482Y1118722D01*
X1979118Y1118722D01*
D16*
X1897800Y2985040D02*
X2017800Y3105040D01*
X1897800Y3225040D01*
X1777800Y3105040D01*
X1897800Y2985040D01*
D11*
X246349Y-294746D02*
X246349Y-94746D01*
X246349Y-94746D02*
X293968Y-94746D01*
X293968Y-94746D02*
X322540Y-104270D01*
X322540Y-104270D02*
X341587Y-123318D01*
X341587Y-123318D02*
X351111Y-142365D01*
X351111Y-142365D02*
X360635Y-180460D01*
X360635Y-180460D02*
X360635Y-209032D01*
X360635Y-209032D02*
X351111Y-247127D01*
X351111Y-247127D02*
X341587Y-266175D01*
X341587Y-266175D02*
X322540Y-285222D01*
X322540Y-285222D02*
X293968Y-294746D01*
X293968Y-294746D02*
X246349Y-294746D01*
X446349Y-294746D02*
X446349Y-161413D01*
X446349Y-199508D02*
X455873Y-180460D01*
X455873Y-180460D02*
X465397Y-170937D01*
X465397Y-170937D02*
X484444Y-161413D01*
X484444Y-161413D02*
X503492Y-161413D01*
X570159Y-294746D02*
X570159Y-161413D01*
X570159Y-94746D02*
X560635Y-104270D01*
X560635Y-104270D02*
X570159Y-113794D01*
X570159Y-113794D02*
X579682Y-104270D01*
X579682Y-104270D02*
X570159Y-94746D01*
X570159Y-94746D02*
X570159Y-113794D01*
X693968Y-294746D02*
X674920Y-285222D01*
X674920Y-285222D02*
X665397Y-266175D01*
X665397Y-266175D02*
X665397Y-94746D01*
X798730Y-294746D02*
X779682Y-285222D01*
X779682Y-285222D02*
X770158Y-266175D01*
X770158Y-266175D02*
X770158Y-94746D01*
X994920Y-294746D02*
X994920Y-94746D01*
X994920Y-94746D02*
X1061587Y-237603D01*
X1061587Y-237603D02*
X1128254Y-94746D01*
X1128254Y-94746D02*
X1128254Y-294746D01*
X1309206Y-294746D02*
X1309206Y-189984D01*
X1309206Y-189984D02*
X1299682Y-170937D01*
X1299682Y-170937D02*
X1280635Y-161413D01*
X1280635Y-161413D02*
X1242539Y-161413D01*
X1242539Y-161413D02*
X1223492Y-170937D01*
X1309206Y-285222D02*
X1290159Y-294746D01*
X1290159Y-294746D02*
X1242539Y-294746D01*
X1242539Y-294746D02*
X1223492Y-285222D01*
X1223492Y-285222D02*
X1213968Y-266175D01*
X1213968Y-266175D02*
X1213968Y-247127D01*
X1213968Y-247127D02*
X1223492Y-228079D01*
X1223492Y-228079D02*
X1242539Y-218556D01*
X1242539Y-218556D02*
X1290159Y-218556D01*
X1290159Y-218556D02*
X1309206Y-209032D01*
X1404444Y-161413D02*
X1404444Y-361413D01*
X1404444Y-170937D02*
X1423492Y-161413D01*
X1423492Y-161413D02*
X1461587Y-161413D01*
X1461587Y-161413D02*
X1480635Y-170937D01*
X1480635Y-170937D02*
X1490158Y-180460D01*
X1490158Y-180460D02*
X1499682Y-199508D01*
X1499682Y-199508D02*
X1499682Y-256651D01*
X1499682Y-256651D02*
X1490158Y-275699D01*
X1490158Y-275699D02*
X1480635Y-285222D01*
X1480635Y-285222D02*
X1461587Y-294746D01*
X1461587Y-294746D02*
X1423492Y-294746D01*
X1423492Y-294746D02*
X1404444Y-285222D01*
X1585397Y-275699D02*
X1594920Y-285222D01*
X1594920Y-285222D02*
X1585397Y-294746D01*
X1585397Y-294746D02*
X1575873Y-285222D01*
X1575873Y-285222D02*
X1585397Y-275699D01*
X1585397Y-275699D02*
X1585397Y-294746D01*
X1585397Y-170937D02*
X1594920Y-180460D01*
X1594920Y-180460D02*
X1585397Y-189984D01*
X1585397Y-189984D02*
X1575873Y-180460D01*
X1575873Y-180460D02*
X1585397Y-170937D01*
X1585397Y-170937D02*
X1585397Y-189984D01*
D12*
X-41270Y-621270D02*
X-1270Y-661270D01*
X-1270Y-621270D02*
X-41270Y-661270D01*
D11*
X284444Y-514746D02*
X303492Y-514746D01*
X303492Y-514746D02*
X322540Y-524270D01*
X322540Y-524270D02*
X332063Y-533794D01*
X332063Y-533794D02*
X341587Y-552841D01*
X341587Y-552841D02*
X351111Y-590937D01*
X351111Y-590937D02*
X351111Y-638556D01*
X351111Y-638556D02*
X341587Y-676651D01*
X341587Y-676651D02*
X332063Y-695699D01*
X332063Y-695699D02*
X322540Y-705222D01*
X322540Y-705222D02*
X303492Y-714746D01*
X303492Y-714746D02*
X284444Y-714746D01*
X284444Y-714746D02*
X265397Y-705222D01*
X265397Y-705222D02*
X255873Y-695699D01*
X255873Y-695699D02*
X246349Y-676651D01*
X246349Y-676651D02*
X236825Y-638556D01*
X236825Y-638556D02*
X236825Y-590937D01*
X236825Y-590937D02*
X246349Y-552841D01*
X246349Y-552841D02*
X255873Y-533794D01*
X255873Y-533794D02*
X265397Y-524270D01*
X265397Y-524270D02*
X284444Y-514746D01*
X436825Y-695699D02*
X446349Y-705222D01*
X446349Y-705222D02*
X436825Y-714746D01*
X436825Y-714746D02*
X427301Y-705222D01*
X427301Y-705222D02*
X436825Y-695699D01*
X436825Y-695699D02*
X436825Y-714746D01*
X617778Y-581413D02*
X617778Y-714746D01*
X570159Y-505222D02*
X522539Y-648080D01*
X522539Y-648080D02*
X646349Y-648080D01*
X760635Y-514746D02*
X779682Y-514746D01*
X779682Y-514746D02*
X798730Y-524270D01*
X798730Y-524270D02*
X808254Y-533794D01*
X808254Y-533794D02*
X817778Y-552841D01*
X817778Y-552841D02*
X827301Y-590937D01*
X827301Y-590937D02*
X827301Y-638556D01*
X827301Y-638556D02*
X817778Y-676651D01*
X817778Y-676651D02*
X808254Y-695699D01*
X808254Y-695699D02*
X798730Y-705222D01*
X798730Y-705222D02*
X779682Y-714746D01*
X779682Y-714746D02*
X760635Y-714746D01*
X760635Y-714746D02*
X741587Y-705222D01*
X741587Y-705222D02*
X732063Y-695699D01*
X732063Y-695699D02*
X722539Y-676651D01*
X722539Y-676651D02*
X713016Y-638556D01*
X713016Y-638556D02*
X713016Y-590937D01*
X713016Y-590937D02*
X722539Y-552841D01*
X722539Y-552841D02*
X732063Y-533794D01*
X732063Y-533794D02*
X741587Y-524270D01*
X741587Y-524270D02*
X760635Y-514746D01*
X951111Y-514746D02*
X970159Y-514746D01*
X970159Y-514746D02*
X989206Y-524270D01*
X989206Y-524270D02*
X998730Y-533794D01*
X998730Y-533794D02*
X1008254Y-552841D01*
X1008254Y-552841D02*
X1017778Y-590937D01*
X1017778Y-590937D02*
X1017778Y-638556D01*
X1017778Y-638556D02*
X1008254Y-676651D01*
X1008254Y-676651D02*
X998730Y-695699D01*
X998730Y-695699D02*
X989206Y-705222D01*
X989206Y-705222D02*
X970159Y-714746D01*
X970159Y-714746D02*
X951111Y-714746D01*
X951111Y-714746D02*
X932063Y-705222D01*
X932063Y-705222D02*
X922539Y-695699D01*
X922539Y-695699D02*
X913016Y-676651D01*
X913016Y-676651D02*
X903492Y-638556D01*
X903492Y-638556D02*
X903492Y-590937D01*
X903492Y-590937D02*
X913016Y-552841D01*
X913016Y-552841D02*
X922539Y-533794D01*
X922539Y-533794D02*
X932063Y-524270D01*
X932063Y-524270D02*
X951111Y-514746D01*
X1103492Y-714746D02*
X1103492Y-581413D01*
X1103492Y-600460D02*
X1113016Y-590937D01*
X1113016Y-590937D02*
X1132063Y-581413D01*
X1132063Y-581413D02*
X1160635Y-581413D01*
X1160635Y-581413D02*
X1179682Y-590937D01*
X1179682Y-590937D02*
X1189206Y-609984D01*
X1189206Y-609984D02*
X1189206Y-714746D01*
X1189206Y-609984D02*
X1198730Y-590937D01*
X1198730Y-590937D02*
X1217778Y-581413D01*
X1217778Y-581413D02*
X1246349Y-581413D01*
X1246349Y-581413D02*
X1265397Y-590937D01*
X1265397Y-590937D02*
X1274921Y-609984D01*
X1274921Y-609984D02*
X1274921Y-714746D01*
X1370159Y-714746D02*
X1370159Y-581413D01*
X1370159Y-600460D02*
X1379682Y-590937D01*
X1379682Y-590937D02*
X1398730Y-581413D01*
X1398730Y-581413D02*
X1427301Y-581413D01*
X1427301Y-581413D02*
X1446349Y-590937D01*
X1446349Y-590937D02*
X1455873Y-609984D01*
X1455873Y-609984D02*
X1455873Y-714746D01*
X1455873Y-609984D02*
X1465397Y-590937D01*
X1465397Y-590937D02*
X1484444Y-581413D01*
X1484444Y-581413D02*
X1513016Y-581413D01*
X1513016Y-581413D02*
X1532063Y-590937D01*
X1532063Y-590937D02*
X1541587Y-609984D01*
X1541587Y-609984D02*
X1541587Y-714746D01*
X1899682Y-505222D02*
X1728254Y-762365D01*
X2124444Y-514746D02*
X2143492Y-514746D01*
X2143492Y-514746D02*
X2162540Y-524270D01*
X2162540Y-524270D02*
X2172063Y-533794D01*
X2172063Y-533794D02*
X2181587Y-552841D01*
X2181587Y-552841D02*
X2191111Y-590937D01*
X2191111Y-590937D02*
X2191111Y-638556D01*
X2191111Y-638556D02*
X2181587Y-676651D01*
X2181587Y-676651D02*
X2172063Y-695699D01*
X2172063Y-695699D02*
X2162540Y-705222D01*
X2162540Y-705222D02*
X2143492Y-714746D01*
X2143492Y-714746D02*
X2124444Y-714746D01*
X2124444Y-714746D02*
X2105397Y-705222D01*
X2105397Y-705222D02*
X2095873Y-695699D01*
X2095873Y-695699D02*
X2086349Y-676651D01*
X2086349Y-676651D02*
X2076825Y-638556D01*
X2076825Y-638556D02*
X2076825Y-590937D01*
X2076825Y-590937D02*
X2086349Y-552841D01*
X2086349Y-552841D02*
X2095873Y-533794D01*
X2095873Y-533794D02*
X2105397Y-524270D01*
X2105397Y-524270D02*
X2124444Y-514746D01*
X2276825Y-695699D02*
X2286349Y-705222D01*
X2286349Y-705222D02*
X2276825Y-714746D01*
X2276825Y-714746D02*
X2267302Y-705222D01*
X2267302Y-705222D02*
X2276825Y-695699D01*
X2276825Y-695699D02*
X2276825Y-714746D01*
X2410159Y-514746D02*
X2429206Y-514746D01*
X2429206Y-514746D02*
X2448254Y-524270D01*
X2448254Y-524270D02*
X2457778Y-533794D01*
X2457778Y-533794D02*
X2467302Y-552841D01*
X2467302Y-552841D02*
X2476825Y-590937D01*
X2476825Y-590937D02*
X2476825Y-638556D01*
X2476825Y-638556D02*
X2467302Y-676651D01*
X2467302Y-676651D02*
X2457778Y-695699D01*
X2457778Y-695699D02*
X2448254Y-705222D01*
X2448254Y-705222D02*
X2429206Y-714746D01*
X2429206Y-714746D02*
X2410159Y-714746D01*
X2410159Y-714746D02*
X2391111Y-705222D01*
X2391111Y-705222D02*
X2381587Y-695699D01*
X2381587Y-695699D02*
X2372063Y-676651D01*
X2372063Y-676651D02*
X2362540Y-638556D01*
X2362540Y-638556D02*
X2362540Y-590937D01*
X2362540Y-590937D02*
X2372063Y-552841D01*
X2372063Y-552841D02*
X2381587Y-533794D01*
X2381587Y-533794D02*
X2391111Y-524270D01*
X2391111Y-524270D02*
X2410159Y-514746D01*
X2667302Y-714746D02*
X2553016Y-714746D01*
X2610159Y-714746D02*
X2610159Y-514746D01*
X2610159Y-514746D02*
X2591111Y-543318D01*
X2591111Y-543318D02*
X2572063Y-562365D01*
X2572063Y-562365D02*
X2553016Y-571889D01*
X2848254Y-514746D02*
X2753016Y-514746D01*
X2753016Y-514746D02*
X2743492Y-609984D01*
X2743492Y-609984D02*
X2753016Y-600460D01*
X2753016Y-600460D02*
X2772063Y-590937D01*
X2772063Y-590937D02*
X2819682Y-590937D01*
X2819682Y-590937D02*
X2838730Y-600460D01*
X2838730Y-600460D02*
X2848254Y-609984D01*
X2848254Y-609984D02*
X2857778Y-629032D01*
X2857778Y-629032D02*
X2857778Y-676651D01*
X2857778Y-676651D02*
X2848254Y-695699D01*
X2848254Y-695699D02*
X2838730Y-705222D01*
X2838730Y-705222D02*
X2819682Y-714746D01*
X2819682Y-714746D02*
X2772063Y-714746D01*
X2772063Y-714746D02*
X2753016Y-705222D01*
X2753016Y-705222D02*
X2743492Y-695699D01*
X2924444Y-514746D02*
X3057778Y-514746D01*
X3057778Y-514746D02*
X2972063Y-714746D01*
X3124444Y-514746D02*
X3124444Y-552841D01*
X3200635Y-514746D02*
X3200635Y-552841D01*
X3463492Y-790937D02*
X3453968Y-781413D01*
X3453968Y-781413D02*
X3434921Y-752841D01*
X3434921Y-752841D02*
X3425397Y-733794D01*
X3425397Y-733794D02*
X3415873Y-705222D01*
X3415873Y-705222D02*
X3406349Y-657603D01*
X3406349Y-657603D02*
X3406349Y-619508D01*
X3406349Y-619508D02*
X3415873Y-571889D01*
X3415873Y-571889D02*
X3425397Y-543318D01*
X3425397Y-543318D02*
X3434921Y-524270D01*
X3434921Y-524270D02*
X3453968Y-495698D01*
X3453968Y-495698D02*
X3463492Y-486175D01*
X3644444Y-714746D02*
X3530159Y-714746D01*
X3587301Y-714746D02*
X3587301Y-514746D01*
X3587301Y-514746D02*
X3568254Y-543318D01*
X3568254Y-543318D02*
X3549206Y-562365D01*
X3549206Y-562365D02*
X3530159Y-571889D01*
X3815873Y-514746D02*
X3777778Y-514746D01*
X3777778Y-514746D02*
X3758730Y-524270D01*
X3758730Y-524270D02*
X3749206Y-533794D01*
X3749206Y-533794D02*
X3730159Y-562365D01*
X3730159Y-562365D02*
X3720635Y-600460D01*
X3720635Y-600460D02*
X3720635Y-676651D01*
X3720635Y-676651D02*
X3730159Y-695699D01*
X3730159Y-695699D02*
X3739682Y-705222D01*
X3739682Y-705222D02*
X3758730Y-714746D01*
X3758730Y-714746D02*
X3796825Y-714746D01*
X3796825Y-714746D02*
X3815873Y-705222D01*
X3815873Y-705222D02*
X3825397Y-695699D01*
X3825397Y-695699D02*
X3834921Y-676651D01*
X3834921Y-676651D02*
X3834921Y-629032D01*
X3834921Y-629032D02*
X3825397Y-609984D01*
X3825397Y-609984D02*
X3815873Y-600460D01*
X3815873Y-600460D02*
X3796825Y-590937D01*
X3796825Y-590937D02*
X3758730Y-590937D01*
X3758730Y-590937D02*
X3739682Y-600460D01*
X3739682Y-600460D02*
X3730159Y-609984D01*
X3730159Y-609984D02*
X3720635Y-629032D01*
X4040635Y-714746D02*
X4040635Y-514746D01*
X4126349Y-714746D02*
X4126349Y-609984D01*
X4126349Y-609984D02*
X4116825Y-590937D01*
X4116825Y-590937D02*
X4097778Y-581413D01*
X4097778Y-581413D02*
X4069206Y-581413D01*
X4069206Y-581413D02*
X4050159Y-590937D01*
X4050159Y-590937D02*
X4040635Y-600460D01*
X4250159Y-714746D02*
X4231111Y-705222D01*
X4231111Y-705222D02*
X4221587Y-695699D01*
X4221587Y-695699D02*
X4212064Y-676651D01*
X4212064Y-676651D02*
X4212064Y-619508D01*
X4212064Y-619508D02*
X4221587Y-600460D01*
X4221587Y-600460D02*
X4231111Y-590937D01*
X4231111Y-590937D02*
X4250159Y-581413D01*
X4250159Y-581413D02*
X4278730Y-581413D01*
X4278730Y-581413D02*
X4297778Y-590937D01*
X4297778Y-590937D02*
X4307302Y-600460D01*
X4307302Y-600460D02*
X4316825Y-619508D01*
X4316825Y-619508D02*
X4316825Y-676651D01*
X4316825Y-676651D02*
X4307302Y-695699D01*
X4307302Y-695699D02*
X4297778Y-705222D01*
X4297778Y-705222D02*
X4278730Y-714746D01*
X4278730Y-714746D02*
X4250159Y-714746D01*
X4431111Y-714746D02*
X4412064Y-705222D01*
X4412064Y-705222D02*
X4402540Y-686175D01*
X4402540Y-686175D02*
X4402540Y-514746D01*
X4583492Y-705222D02*
X4564445Y-714746D01*
X4564445Y-714746D02*
X4526349Y-714746D01*
X4526349Y-714746D02*
X4507302Y-705222D01*
X4507302Y-705222D02*
X4497778Y-686175D01*
X4497778Y-686175D02*
X4497778Y-609984D01*
X4497778Y-609984D02*
X4507302Y-590937D01*
X4507302Y-590937D02*
X4526349Y-581413D01*
X4526349Y-581413D02*
X4564445Y-581413D01*
X4564445Y-581413D02*
X4583492Y-590937D01*
X4583492Y-590937D02*
X4593016Y-609984D01*
X4593016Y-609984D02*
X4593016Y-629032D01*
X4593016Y-629032D02*
X4497778Y-648080D01*
X4669206Y-705222D02*
X4688254Y-714746D01*
X4688254Y-714746D02*
X4726349Y-714746D01*
X4726349Y-714746D02*
X4745397Y-705222D01*
X4745397Y-705222D02*
X4754921Y-686175D01*
X4754921Y-686175D02*
X4754921Y-676651D01*
X4754921Y-676651D02*
X4745397Y-657603D01*
X4745397Y-657603D02*
X4726349Y-648080D01*
X4726349Y-648080D02*
X4697778Y-648080D01*
X4697778Y-648080D02*
X4678730Y-638556D01*
X4678730Y-638556D02*
X4669206Y-619508D01*
X4669206Y-619508D02*
X4669206Y-609984D01*
X4669206Y-609984D02*
X4678730Y-590937D01*
X4678730Y-590937D02*
X4697778Y-581413D01*
X4697778Y-581413D02*
X4726349Y-581413D01*
X4726349Y-581413D02*
X4745397Y-590937D01*
X4821587Y-790937D02*
X4831111Y-781413D01*
X4831111Y-781413D02*
X4850159Y-752841D01*
X4850159Y-752841D02*
X4859683Y-733794D01*
X4859683Y-733794D02*
X4869206Y-705222D01*
X4869206Y-705222D02*
X4878730Y-657603D01*
X4878730Y-657603D02*
X4878730Y-619508D01*
X4878730Y-619508D02*
X4869206Y-571889D01*
X4869206Y-571889D02*
X4859683Y-543318D01*
X4859683Y-543318D02*
X4850159Y-524270D01*
X4850159Y-524270D02*
X4831111Y-495698D01*
X4831111Y-495698D02*
X4821587Y-486175D01*
D13*
X-1270Y-905270D02*
G75*
G03*
X-1270Y-905270I-35000J0D01*
G01*
D11*
X284444Y-778746D02*
X303492Y-778746D01*
X303492Y-778746D02*
X322540Y-788270D01*
X322540Y-788270D02*
X332063Y-797794D01*
X332063Y-797794D02*
X341587Y-816841D01*
X341587Y-816841D02*
X351111Y-854937D01*
X351111Y-854937D02*
X351111Y-902556D01*
X351111Y-902556D02*
X341587Y-940651D01*
X341587Y-940651D02*
X332063Y-959698D01*
X332063Y-959698D02*
X322540Y-969222D01*
X322540Y-969222D02*
X303492Y-978746D01*
X303492Y-978746D02*
X284444Y-978746D01*
X284444Y-978746D02*
X265397Y-969222D01*
X265397Y-969222D02*
X255873Y-959698D01*
X255873Y-959698D02*
X246349Y-940651D01*
X246349Y-940651D02*
X236825Y-902556D01*
X236825Y-902556D02*
X236825Y-854937D01*
X236825Y-854937D02*
X246349Y-816841D01*
X246349Y-816841D02*
X255873Y-797794D01*
X255873Y-797794D02*
X265397Y-788270D01*
X265397Y-788270D02*
X284444Y-778746D01*
X436825Y-959698D02*
X446349Y-969222D01*
X446349Y-969222D02*
X436825Y-978746D01*
X436825Y-978746D02*
X427301Y-969222D01*
X427301Y-969222D02*
X436825Y-959698D01*
X436825Y-959698D02*
X436825Y-978746D01*
X513016Y-778746D02*
X646349Y-778746D01*
X646349Y-778746D02*
X560635Y-978746D01*
X760635Y-778746D02*
X779682Y-778746D01*
X779682Y-778746D02*
X798730Y-788270D01*
X798730Y-788270D02*
X808254Y-797794D01*
X808254Y-797794D02*
X817778Y-816841D01*
X817778Y-816841D02*
X827301Y-854937D01*
X827301Y-854937D02*
X827301Y-902556D01*
X827301Y-902556D02*
X817778Y-940651D01*
X817778Y-940651D02*
X808254Y-959698D01*
X808254Y-959698D02*
X798730Y-969222D01*
X798730Y-969222D02*
X779682Y-978746D01*
X779682Y-978746D02*
X760635Y-978746D01*
X760635Y-978746D02*
X741587Y-969222D01*
X741587Y-969222D02*
X732063Y-959698D01*
X732063Y-959698D02*
X722539Y-940651D01*
X722539Y-940651D02*
X713016Y-902556D01*
X713016Y-902556D02*
X713016Y-854937D01*
X713016Y-854937D02*
X722539Y-816841D01*
X722539Y-816841D02*
X732063Y-797794D01*
X732063Y-797794D02*
X741587Y-788270D01*
X741587Y-788270D02*
X760635Y-778746D01*
X951111Y-778746D02*
X970159Y-778746D01*
X970159Y-778746D02*
X989206Y-788270D01*
X989206Y-788270D02*
X998730Y-797794D01*
X998730Y-797794D02*
X1008254Y-816841D01*
X1008254Y-816841D02*
X1017778Y-854937D01*
X1017778Y-854937D02*
X1017778Y-902556D01*
X1017778Y-902556D02*
X1008254Y-940651D01*
X1008254Y-940651D02*
X998730Y-959698D01*
X998730Y-959698D02*
X989206Y-969222D01*
X989206Y-969222D02*
X970159Y-978746D01*
X970159Y-978746D02*
X951111Y-978746D01*
X951111Y-978746D02*
X932063Y-969222D01*
X932063Y-969222D02*
X922539Y-959698D01*
X922539Y-959698D02*
X913016Y-940651D01*
X913016Y-940651D02*
X903492Y-902556D01*
X903492Y-902556D02*
X903492Y-854937D01*
X903492Y-854937D02*
X913016Y-816841D01*
X913016Y-816841D02*
X922539Y-797794D01*
X922539Y-797794D02*
X932063Y-788270D01*
X932063Y-788270D02*
X951111Y-778746D01*
X1103492Y-978746D02*
X1103492Y-845413D01*
X1103492Y-864460D02*
X1113016Y-854937D01*
X1113016Y-854937D02*
X1132063Y-845413D01*
X1132063Y-845413D02*
X1160635Y-845413D01*
X1160635Y-845413D02*
X1179682Y-854937D01*
X1179682Y-854937D02*
X1189206Y-873984D01*
X1189206Y-873984D02*
X1189206Y-978746D01*
X1189206Y-873984D02*
X1198730Y-854937D01*
X1198730Y-854937D02*
X1217778Y-845413D01*
X1217778Y-845413D02*
X1246349Y-845413D01*
X1246349Y-845413D02*
X1265397Y-854937D01*
X1265397Y-854937D02*
X1274921Y-873984D01*
X1274921Y-873984D02*
X1274921Y-978746D01*
X1370159Y-978746D02*
X1370159Y-845413D01*
X1370159Y-864460D02*
X1379682Y-854937D01*
X1379682Y-854937D02*
X1398730Y-845413D01*
X1398730Y-845413D02*
X1427301Y-845413D01*
X1427301Y-845413D02*
X1446349Y-854937D01*
X1446349Y-854937D02*
X1455873Y-873984D01*
X1455873Y-873984D02*
X1455873Y-978746D01*
X1455873Y-873984D02*
X1465397Y-854937D01*
X1465397Y-854937D02*
X1484444Y-845413D01*
X1484444Y-845413D02*
X1513016Y-845413D01*
X1513016Y-845413D02*
X1532063Y-854937D01*
X1532063Y-854937D02*
X1541587Y-873984D01*
X1541587Y-873984D02*
X1541587Y-978746D01*
X1899682Y-769222D02*
X1728254Y-1026365D01*
X2124444Y-778746D02*
X2143492Y-778746D01*
X2143492Y-778746D02*
X2162540Y-788270D01*
X2162540Y-788270D02*
X2172063Y-797794D01*
X2172063Y-797794D02*
X2181587Y-816841D01*
X2181587Y-816841D02*
X2191111Y-854937D01*
X2191111Y-854937D02*
X2191111Y-902556D01*
X2191111Y-902556D02*
X2181587Y-940651D01*
X2181587Y-940651D02*
X2172063Y-959698D01*
X2172063Y-959698D02*
X2162540Y-969222D01*
X2162540Y-969222D02*
X2143492Y-978746D01*
X2143492Y-978746D02*
X2124444Y-978746D01*
X2124444Y-978746D02*
X2105397Y-969222D01*
X2105397Y-969222D02*
X2095873Y-959698D01*
X2095873Y-959698D02*
X2086349Y-940651D01*
X2086349Y-940651D02*
X2076825Y-902556D01*
X2076825Y-902556D02*
X2076825Y-854937D01*
X2076825Y-854937D02*
X2086349Y-816841D01*
X2086349Y-816841D02*
X2095873Y-797794D01*
X2095873Y-797794D02*
X2105397Y-788270D01*
X2105397Y-788270D02*
X2124444Y-778746D01*
X2276825Y-959698D02*
X2286349Y-969222D01*
X2286349Y-969222D02*
X2276825Y-978746D01*
X2276825Y-978746D02*
X2267302Y-969222D01*
X2267302Y-969222D02*
X2276825Y-959698D01*
X2276825Y-959698D02*
X2276825Y-978746D01*
X2410159Y-778746D02*
X2429206Y-778746D01*
X2429206Y-778746D02*
X2448254Y-788270D01*
X2448254Y-788270D02*
X2457778Y-797794D01*
X2457778Y-797794D02*
X2467302Y-816841D01*
X2467302Y-816841D02*
X2476825Y-854937D01*
X2476825Y-854937D02*
X2476825Y-902556D01*
X2476825Y-902556D02*
X2467302Y-940651D01*
X2467302Y-940651D02*
X2457778Y-959698D01*
X2457778Y-959698D02*
X2448254Y-969222D01*
X2448254Y-969222D02*
X2429206Y-978746D01*
X2429206Y-978746D02*
X2410159Y-978746D01*
X2410159Y-978746D02*
X2391111Y-969222D01*
X2391111Y-969222D02*
X2381587Y-959698D01*
X2381587Y-959698D02*
X2372063Y-940651D01*
X2372063Y-940651D02*
X2362540Y-902556D01*
X2362540Y-902556D02*
X2362540Y-854937D01*
X2362540Y-854937D02*
X2372063Y-816841D01*
X2372063Y-816841D02*
X2381587Y-797794D01*
X2381587Y-797794D02*
X2391111Y-788270D01*
X2391111Y-788270D02*
X2410159Y-778746D01*
X2553016Y-797794D02*
X2562540Y-788270D01*
X2562540Y-788270D02*
X2581587Y-778746D01*
X2581587Y-778746D02*
X2629206Y-778746D01*
X2629206Y-778746D02*
X2648254Y-788270D01*
X2648254Y-788270D02*
X2657778Y-797794D01*
X2657778Y-797794D02*
X2667302Y-816841D01*
X2667302Y-816841D02*
X2667302Y-835889D01*
X2667302Y-835889D02*
X2657778Y-864460D01*
X2657778Y-864460D02*
X2543492Y-978746D01*
X2543492Y-978746D02*
X2667302Y-978746D01*
X2733968Y-778746D02*
X2867301Y-778746D01*
X2867301Y-778746D02*
X2781587Y-978746D01*
X3029206Y-778746D02*
X2991111Y-778746D01*
X2991111Y-778746D02*
X2972063Y-788270D01*
X2972063Y-788270D02*
X2962540Y-797794D01*
X2962540Y-797794D02*
X2943492Y-826365D01*
X2943492Y-826365D02*
X2933968Y-864460D01*
X2933968Y-864460D02*
X2933968Y-940651D01*
X2933968Y-940651D02*
X2943492Y-959698D01*
X2943492Y-959698D02*
X2953016Y-969222D01*
X2953016Y-969222D02*
X2972063Y-978746D01*
X2972063Y-978746D02*
X3010159Y-978746D01*
X3010159Y-978746D02*
X3029206Y-969222D01*
X3029206Y-969222D02*
X3038730Y-959698D01*
X3038730Y-959698D02*
X3048254Y-940651D01*
X3048254Y-940651D02*
X3048254Y-893032D01*
X3048254Y-893032D02*
X3038730Y-873984D01*
X3038730Y-873984D02*
X3029206Y-864460D01*
X3029206Y-864460D02*
X3010159Y-854937D01*
X3010159Y-854937D02*
X2972063Y-854937D01*
X2972063Y-854937D02*
X2953016Y-864460D01*
X2953016Y-864460D02*
X2943492Y-873984D01*
X2943492Y-873984D02*
X2933968Y-893032D01*
X3124444Y-778746D02*
X3124444Y-816841D01*
X3200635Y-778746D02*
X3200635Y-816841D01*
X3463492Y-1054937D02*
X3453968Y-1045413D01*
X3453968Y-1045413D02*
X3434921Y-1016841D01*
X3434921Y-1016841D02*
X3425397Y-997794D01*
X3425397Y-997794D02*
X3415873Y-969222D01*
X3415873Y-969222D02*
X3406349Y-921603D01*
X3406349Y-921603D02*
X3406349Y-883508D01*
X3406349Y-883508D02*
X3415873Y-835889D01*
X3415873Y-835889D02*
X3425397Y-807318D01*
X3425397Y-807318D02*
X3434921Y-788270D01*
X3434921Y-788270D02*
X3453968Y-759698D01*
X3453968Y-759698D02*
X3463492Y-750175D01*
X3549206Y-978746D02*
X3587301Y-978746D01*
X3587301Y-978746D02*
X3606349Y-969222D01*
X3606349Y-969222D02*
X3615873Y-959698D01*
X3615873Y-959698D02*
X3634921Y-931127D01*
X3634921Y-931127D02*
X3644444Y-893032D01*
X3644444Y-893032D02*
X3644444Y-816841D01*
X3644444Y-816841D02*
X3634921Y-797794D01*
X3634921Y-797794D02*
X3625397Y-788270D01*
X3625397Y-788270D02*
X3606349Y-778746D01*
X3606349Y-778746D02*
X3568254Y-778746D01*
X3568254Y-778746D02*
X3549206Y-788270D01*
X3549206Y-788270D02*
X3539682Y-797794D01*
X3539682Y-797794D02*
X3530159Y-816841D01*
X3530159Y-816841D02*
X3530159Y-864460D01*
X3530159Y-864460D02*
X3539682Y-883508D01*
X3539682Y-883508D02*
X3549206Y-893032D01*
X3549206Y-893032D02*
X3568254Y-902556D01*
X3568254Y-902556D02*
X3606349Y-902556D01*
X3606349Y-902556D02*
X3625397Y-893032D01*
X3625397Y-893032D02*
X3634921Y-883508D01*
X3634921Y-883508D02*
X3644444Y-864460D01*
X3850159Y-978746D02*
X3850159Y-778746D01*
X3935873Y-978746D02*
X3935873Y-873984D01*
X3935873Y-873984D02*
X3926349Y-854937D01*
X3926349Y-854937D02*
X3907302Y-845413D01*
X3907302Y-845413D02*
X3878730Y-845413D01*
X3878730Y-845413D02*
X3859682Y-854937D01*
X3859682Y-854937D02*
X3850159Y-864460D01*
X4059682Y-978746D02*
X4040635Y-969222D01*
X4040635Y-969222D02*
X4031111Y-959698D01*
X4031111Y-959698D02*
X4021587Y-940651D01*
X4021587Y-940651D02*
X4021587Y-883508D01*
X4021587Y-883508D02*
X4031111Y-864460D01*
X4031111Y-864460D02*
X4040635Y-854937D01*
X4040635Y-854937D02*
X4059682Y-845413D01*
X4059682Y-845413D02*
X4088254Y-845413D01*
X4088254Y-845413D02*
X4107302Y-854937D01*
X4107302Y-854937D02*
X4116825Y-864460D01*
X4116825Y-864460D02*
X4126349Y-883508D01*
X4126349Y-883508D02*
X4126349Y-940651D01*
X4126349Y-940651D02*
X4116825Y-959698D01*
X4116825Y-959698D02*
X4107302Y-969222D01*
X4107302Y-969222D02*
X4088254Y-978746D01*
X4088254Y-978746D02*
X4059682Y-978746D01*
X4240635Y-978746D02*
X4221587Y-969222D01*
X4221587Y-969222D02*
X4212064Y-950175D01*
X4212064Y-950175D02*
X4212064Y-778746D01*
X4393016Y-969222D02*
X4373968Y-978746D01*
X4373968Y-978746D02*
X4335873Y-978746D01*
X4335873Y-978746D02*
X4316825Y-969222D01*
X4316825Y-969222D02*
X4307302Y-950175D01*
X4307302Y-950175D02*
X4307302Y-873984D01*
X4307302Y-873984D02*
X4316825Y-854937D01*
X4316825Y-854937D02*
X4335873Y-845413D01*
X4335873Y-845413D02*
X4373968Y-845413D01*
X4373968Y-845413D02*
X4393016Y-854937D01*
X4393016Y-854937D02*
X4402540Y-873984D01*
X4402540Y-873984D02*
X4402540Y-893032D01*
X4402540Y-893032D02*
X4307302Y-912079D01*
X4478730Y-969222D02*
X4497778Y-978746D01*
X4497778Y-978746D02*
X4535873Y-978746D01*
X4535873Y-978746D02*
X4554921Y-969222D01*
X4554921Y-969222D02*
X4564445Y-950175D01*
X4564445Y-950175D02*
X4564445Y-940651D01*
X4564445Y-940651D02*
X4554921Y-921603D01*
X4554921Y-921603D02*
X4535873Y-912079D01*
X4535873Y-912079D02*
X4507302Y-912079D01*
X4507302Y-912079D02*
X4488254Y-902556D01*
X4488254Y-902556D02*
X4478730Y-883508D01*
X4478730Y-883508D02*
X4478730Y-873984D01*
X4478730Y-873984D02*
X4488254Y-854937D01*
X4488254Y-854937D02*
X4507302Y-845413D01*
X4507302Y-845413D02*
X4535873Y-845413D01*
X4535873Y-845413D02*
X4554921Y-854937D01*
X4631111Y-1054937D02*
X4640635Y-1045413D01*
X4640635Y-1045413D02*
X4659683Y-1016841D01*
X4659683Y-1016841D02*
X4669206Y-997794D01*
X4669206Y-997794D02*
X4678730Y-969222D01*
X4678730Y-969222D02*
X4688254Y-921603D01*
X4688254Y-921603D02*
X4688254Y-883508D01*
X4688254Y-883508D02*
X4678730Y-835889D01*
X4678730Y-835889D02*
X4669206Y-807318D01*
X4669206Y-807318D02*
X4659683Y-788270D01*
X4659683Y-788270D02*
X4640635Y-759698D01*
X4640635Y-759698D02*
X4631111Y-750175D01*
D14*
X-51270Y-1119270D02*
X-51270Y-1219270D01*
X-101270Y-1169270D02*
X-1270Y-1169270D01*
D11*
X351111Y-1242746D02*
X236825Y-1242746D01*
X293968Y-1242746D02*
X293968Y-1042746D01*
X293968Y-1042746D02*
X274920Y-1071318D01*
X274920Y-1071318D02*
X255873Y-1090365D01*
X255873Y-1090365D02*
X236825Y-1099889D01*
X436825Y-1223699D02*
X446349Y-1233222D01*
X446349Y-1233222D02*
X436825Y-1242746D01*
X436825Y-1242746D02*
X427301Y-1233222D01*
X427301Y-1233222D02*
X436825Y-1223699D01*
X436825Y-1223699D02*
X436825Y-1242746D01*
X570159Y-1042746D02*
X589206Y-1042746D01*
X589206Y-1042746D02*
X608254Y-1052270D01*
X608254Y-1052270D02*
X617778Y-1061794D01*
X617778Y-1061794D02*
X627301Y-1080841D01*
X627301Y-1080841D02*
X636825Y-1118937D01*
X636825Y-1118937D02*
X636825Y-1166556D01*
X636825Y-1166556D02*
X627301Y-1204651D01*
X627301Y-1204651D02*
X617778Y-1223699D01*
X617778Y-1223699D02*
X608254Y-1233222D01*
X608254Y-1233222D02*
X589206Y-1242746D01*
X589206Y-1242746D02*
X570159Y-1242746D01*
X570159Y-1242746D02*
X551111Y-1233222D01*
X551111Y-1233222D02*
X541587Y-1223699D01*
X541587Y-1223699D02*
X532063Y-1204651D01*
X532063Y-1204651D02*
X522539Y-1166556D01*
X522539Y-1166556D02*
X522539Y-1118937D01*
X522539Y-1118937D02*
X532063Y-1080841D01*
X532063Y-1080841D02*
X541587Y-1061794D01*
X541587Y-1061794D02*
X551111Y-1052270D01*
X551111Y-1052270D02*
X570159Y-1042746D01*
X760635Y-1042746D02*
X779682Y-1042746D01*
X779682Y-1042746D02*
X798730Y-1052270D01*
X798730Y-1052270D02*
X808254Y-1061794D01*
X808254Y-1061794D02*
X817778Y-1080841D01*
X817778Y-1080841D02*
X827301Y-1118937D01*
X827301Y-1118937D02*
X827301Y-1166556D01*
X827301Y-1166556D02*
X817778Y-1204651D01*
X817778Y-1204651D02*
X808254Y-1223699D01*
X808254Y-1223699D02*
X798730Y-1233222D01*
X798730Y-1233222D02*
X779682Y-1242746D01*
X779682Y-1242746D02*
X760635Y-1242746D01*
X760635Y-1242746D02*
X741587Y-1233222D01*
X741587Y-1233222D02*
X732063Y-1223699D01*
X732063Y-1223699D02*
X722539Y-1204651D01*
X722539Y-1204651D02*
X713016Y-1166556D01*
X713016Y-1166556D02*
X713016Y-1118937D01*
X713016Y-1118937D02*
X722539Y-1080841D01*
X722539Y-1080841D02*
X732063Y-1061794D01*
X732063Y-1061794D02*
X741587Y-1052270D01*
X741587Y-1052270D02*
X760635Y-1042746D01*
X951111Y-1042746D02*
X970159Y-1042746D01*
X970159Y-1042746D02*
X989206Y-1052270D01*
X989206Y-1052270D02*
X998730Y-1061794D01*
X998730Y-1061794D02*
X1008254Y-1080841D01*
X1008254Y-1080841D02*
X1017778Y-1118937D01*
X1017778Y-1118937D02*
X1017778Y-1166556D01*
X1017778Y-1166556D02*
X1008254Y-1204651D01*
X1008254Y-1204651D02*
X998730Y-1223699D01*
X998730Y-1223699D02*
X989206Y-1233222D01*
X989206Y-1233222D02*
X970159Y-1242746D01*
X970159Y-1242746D02*
X951111Y-1242746D01*
X951111Y-1242746D02*
X932063Y-1233222D01*
X932063Y-1233222D02*
X922539Y-1223699D01*
X922539Y-1223699D02*
X913016Y-1204651D01*
X913016Y-1204651D02*
X903492Y-1166556D01*
X903492Y-1166556D02*
X903492Y-1118937D01*
X903492Y-1118937D02*
X913016Y-1080841D01*
X913016Y-1080841D02*
X922539Y-1061794D01*
X922539Y-1061794D02*
X932063Y-1052270D01*
X932063Y-1052270D02*
X951111Y-1042746D01*
X1103492Y-1242746D02*
X1103492Y-1109413D01*
X1103492Y-1128460D02*
X1113016Y-1118937D01*
X1113016Y-1118937D02*
X1132063Y-1109413D01*
X1132063Y-1109413D02*
X1160635Y-1109413D01*
X1160635Y-1109413D02*
X1179682Y-1118937D01*
X1179682Y-1118937D02*
X1189206Y-1137984D01*
X1189206Y-1137984D02*
X1189206Y-1242746D01*
X1189206Y-1137984D02*
X1198730Y-1118937D01*
X1198730Y-1118937D02*
X1217778Y-1109413D01*
X1217778Y-1109413D02*
X1246349Y-1109413D01*
X1246349Y-1109413D02*
X1265397Y-1118937D01*
X1265397Y-1118937D02*
X1274921Y-1137984D01*
X1274921Y-1137984D02*
X1274921Y-1242746D01*
X1370159Y-1242746D02*
X1370159Y-1109413D01*
X1370159Y-1128460D02*
X1379682Y-1118937D01*
X1379682Y-1118937D02*
X1398730Y-1109413D01*
X1398730Y-1109413D02*
X1427301Y-1109413D01*
X1427301Y-1109413D02*
X1446349Y-1118937D01*
X1446349Y-1118937D02*
X1455873Y-1137984D01*
X1455873Y-1137984D02*
X1455873Y-1242746D01*
X1455873Y-1137984D02*
X1465397Y-1118937D01*
X1465397Y-1118937D02*
X1484444Y-1109413D01*
X1484444Y-1109413D02*
X1513016Y-1109413D01*
X1513016Y-1109413D02*
X1532063Y-1118937D01*
X1532063Y-1118937D02*
X1541587Y-1137984D01*
X1541587Y-1137984D02*
X1541587Y-1242746D01*
X1899682Y-1033222D02*
X1728254Y-1290365D01*
X2124444Y-1042746D02*
X2143492Y-1042746D01*
X2143492Y-1042746D02*
X2162540Y-1052270D01*
X2162540Y-1052270D02*
X2172063Y-1061794D01*
X2172063Y-1061794D02*
X2181587Y-1080841D01*
X2181587Y-1080841D02*
X2191111Y-1118937D01*
X2191111Y-1118937D02*
X2191111Y-1166556D01*
X2191111Y-1166556D02*
X2181587Y-1204651D01*
X2181587Y-1204651D02*
X2172063Y-1223699D01*
X2172063Y-1223699D02*
X2162540Y-1233222D01*
X2162540Y-1233222D02*
X2143492Y-1242746D01*
X2143492Y-1242746D02*
X2124444Y-1242746D01*
X2124444Y-1242746D02*
X2105397Y-1233222D01*
X2105397Y-1233222D02*
X2095873Y-1223699D01*
X2095873Y-1223699D02*
X2086349Y-1204651D01*
X2086349Y-1204651D02*
X2076825Y-1166556D01*
X2076825Y-1166556D02*
X2076825Y-1118937D01*
X2076825Y-1118937D02*
X2086349Y-1080841D01*
X2086349Y-1080841D02*
X2095873Y-1061794D01*
X2095873Y-1061794D02*
X2105397Y-1052270D01*
X2105397Y-1052270D02*
X2124444Y-1042746D01*
X2276825Y-1223699D02*
X2286349Y-1233222D01*
X2286349Y-1233222D02*
X2276825Y-1242746D01*
X2276825Y-1242746D02*
X2267302Y-1233222D01*
X2267302Y-1233222D02*
X2276825Y-1223699D01*
X2276825Y-1223699D02*
X2276825Y-1242746D01*
X2410159Y-1042746D02*
X2429206Y-1042746D01*
X2429206Y-1042746D02*
X2448254Y-1052270D01*
X2448254Y-1052270D02*
X2457778Y-1061794D01*
X2457778Y-1061794D02*
X2467302Y-1080841D01*
X2467302Y-1080841D02*
X2476825Y-1118937D01*
X2476825Y-1118937D02*
X2476825Y-1166556D01*
X2476825Y-1166556D02*
X2467302Y-1204651D01*
X2467302Y-1204651D02*
X2457778Y-1223699D01*
X2457778Y-1223699D02*
X2448254Y-1233222D01*
X2448254Y-1233222D02*
X2429206Y-1242746D01*
X2429206Y-1242746D02*
X2410159Y-1242746D01*
X2410159Y-1242746D02*
X2391111Y-1233222D01*
X2391111Y-1233222D02*
X2381587Y-1223699D01*
X2381587Y-1223699D02*
X2372063Y-1204651D01*
X2372063Y-1204651D02*
X2362540Y-1166556D01*
X2362540Y-1166556D02*
X2362540Y-1118937D01*
X2362540Y-1118937D02*
X2372063Y-1080841D01*
X2372063Y-1080841D02*
X2381587Y-1061794D01*
X2381587Y-1061794D02*
X2391111Y-1052270D01*
X2391111Y-1052270D02*
X2410159Y-1042746D01*
X2543492Y-1042746D02*
X2667302Y-1042746D01*
X2667302Y-1042746D02*
X2600635Y-1118937D01*
X2600635Y-1118937D02*
X2629206Y-1118937D01*
X2629206Y-1118937D02*
X2648254Y-1128460D01*
X2648254Y-1128460D02*
X2657778Y-1137984D01*
X2657778Y-1137984D02*
X2667302Y-1157032D01*
X2667302Y-1157032D02*
X2667302Y-1204651D01*
X2667302Y-1204651D02*
X2657778Y-1223699D01*
X2657778Y-1223699D02*
X2648254Y-1233222D01*
X2648254Y-1233222D02*
X2629206Y-1242746D01*
X2629206Y-1242746D02*
X2572063Y-1242746D01*
X2572063Y-1242746D02*
X2553016Y-1233222D01*
X2553016Y-1233222D02*
X2543492Y-1223699D01*
X2762540Y-1242746D02*
X2800635Y-1242746D01*
X2800635Y-1242746D02*
X2819682Y-1233222D01*
X2819682Y-1233222D02*
X2829206Y-1223699D01*
X2829206Y-1223699D02*
X2848254Y-1195127D01*
X2848254Y-1195127D02*
X2857778Y-1157032D01*
X2857778Y-1157032D02*
X2857778Y-1080841D01*
X2857778Y-1080841D02*
X2848254Y-1061794D01*
X2848254Y-1061794D02*
X2838730Y-1052270D01*
X2838730Y-1052270D02*
X2819682Y-1042746D01*
X2819682Y-1042746D02*
X2781587Y-1042746D01*
X2781587Y-1042746D02*
X2762540Y-1052270D01*
X2762540Y-1052270D02*
X2753016Y-1061794D01*
X2753016Y-1061794D02*
X2743492Y-1080841D01*
X2743492Y-1080841D02*
X2743492Y-1128460D01*
X2743492Y-1128460D02*
X2753016Y-1147508D01*
X2753016Y-1147508D02*
X2762540Y-1157032D01*
X2762540Y-1157032D02*
X2781587Y-1166556D01*
X2781587Y-1166556D02*
X2819682Y-1166556D01*
X2819682Y-1166556D02*
X2838730Y-1157032D01*
X2838730Y-1157032D02*
X2848254Y-1147508D01*
X2848254Y-1147508D02*
X2857778Y-1128460D01*
X3029206Y-1109413D02*
X3029206Y-1242746D01*
X2981587Y-1033222D02*
X2933968Y-1176080D01*
X2933968Y-1176080D02*
X3057778Y-1176080D01*
X3124444Y-1042746D02*
X3124444Y-1080841D01*
X3200635Y-1042746D02*
X3200635Y-1080841D01*
X3463492Y-1318937D02*
X3453968Y-1309413D01*
X3453968Y-1309413D02*
X3434921Y-1280841D01*
X3434921Y-1280841D02*
X3425397Y-1261794D01*
X3425397Y-1261794D02*
X3415873Y-1233222D01*
X3415873Y-1233222D02*
X3406349Y-1185603D01*
X3406349Y-1185603D02*
X3406349Y-1147508D01*
X3406349Y-1147508D02*
X3415873Y-1099889D01*
X3415873Y-1099889D02*
X3425397Y-1071318D01*
X3425397Y-1071318D02*
X3434921Y-1052270D01*
X3434921Y-1052270D02*
X3453968Y-1023698D01*
X3453968Y-1023698D02*
X3463492Y-1014175D01*
X3530159Y-1061794D02*
X3539682Y-1052270D01*
X3539682Y-1052270D02*
X3558730Y-1042746D01*
X3558730Y-1042746D02*
X3606349Y-1042746D01*
X3606349Y-1042746D02*
X3625397Y-1052270D01*
X3625397Y-1052270D02*
X3634921Y-1061794D01*
X3634921Y-1061794D02*
X3644444Y-1080841D01*
X3644444Y-1080841D02*
X3644444Y-1099889D01*
X3644444Y-1099889D02*
X3634921Y-1128460D01*
X3634921Y-1128460D02*
X3520635Y-1242746D01*
X3520635Y-1242746D02*
X3644444Y-1242746D01*
X3850159Y-1242746D02*
X3850159Y-1042746D01*
X3935873Y-1242746D02*
X3935873Y-1137984D01*
X3935873Y-1137984D02*
X3926349Y-1118937D01*
X3926349Y-1118937D02*
X3907302Y-1109413D01*
X3907302Y-1109413D02*
X3878730Y-1109413D01*
X3878730Y-1109413D02*
X3859682Y-1118937D01*
X3859682Y-1118937D02*
X3850159Y-1128460D01*
X4059682Y-1242746D02*
X4040635Y-1233222D01*
X4040635Y-1233222D02*
X4031111Y-1223699D01*
X4031111Y-1223699D02*
X4021587Y-1204651D01*
X4021587Y-1204651D02*
X4021587Y-1147508D01*
X4021587Y-1147508D02*
X4031111Y-1128460D01*
X4031111Y-1128460D02*
X4040635Y-1118937D01*
X4040635Y-1118937D02*
X4059682Y-1109413D01*
X4059682Y-1109413D02*
X4088254Y-1109413D01*
X4088254Y-1109413D02*
X4107302Y-1118937D01*
X4107302Y-1118937D02*
X4116825Y-1128460D01*
X4116825Y-1128460D02*
X4126349Y-1147508D01*
X4126349Y-1147508D02*
X4126349Y-1204651D01*
X4126349Y-1204651D02*
X4116825Y-1223699D01*
X4116825Y-1223699D02*
X4107302Y-1233222D01*
X4107302Y-1233222D02*
X4088254Y-1242746D01*
X4088254Y-1242746D02*
X4059682Y-1242746D01*
X4240635Y-1242746D02*
X4221587Y-1233222D01*
X4221587Y-1233222D02*
X4212064Y-1214175D01*
X4212064Y-1214175D02*
X4212064Y-1042746D01*
X4393016Y-1233222D02*
X4373968Y-1242746D01*
X4373968Y-1242746D02*
X4335873Y-1242746D01*
X4335873Y-1242746D02*
X4316825Y-1233222D01*
X4316825Y-1233222D02*
X4307302Y-1214175D01*
X4307302Y-1214175D02*
X4307302Y-1137984D01*
X4307302Y-1137984D02*
X4316825Y-1118937D01*
X4316825Y-1118937D02*
X4335873Y-1109413D01*
X4335873Y-1109413D02*
X4373968Y-1109413D01*
X4373968Y-1109413D02*
X4393016Y-1118937D01*
X4393016Y-1118937D02*
X4402540Y-1137984D01*
X4402540Y-1137984D02*
X4402540Y-1157032D01*
X4402540Y-1157032D02*
X4307302Y-1176080D01*
X4478730Y-1233222D02*
X4497778Y-1242746D01*
X4497778Y-1242746D02*
X4535873Y-1242746D01*
X4535873Y-1242746D02*
X4554921Y-1233222D01*
X4554921Y-1233222D02*
X4564445Y-1214175D01*
X4564445Y-1214175D02*
X4564445Y-1204651D01*
X4564445Y-1204651D02*
X4554921Y-1185603D01*
X4554921Y-1185603D02*
X4535873Y-1176080D01*
X4535873Y-1176080D02*
X4507302Y-1176080D01*
X4507302Y-1176080D02*
X4488254Y-1166556D01*
X4488254Y-1166556D02*
X4478730Y-1147508D01*
X4478730Y-1147508D02*
X4478730Y-1137984D01*
X4478730Y-1137984D02*
X4488254Y-1118937D01*
X4488254Y-1118937D02*
X4507302Y-1109413D01*
X4507302Y-1109413D02*
X4535873Y-1109413D01*
X4535873Y-1109413D02*
X4554921Y-1118937D01*
X4631111Y-1318937D02*
X4640635Y-1309413D01*
X4640635Y-1309413D02*
X4659683Y-1280841D01*
X4659683Y-1280841D02*
X4669206Y-1261794D01*
X4669206Y-1261794D02*
X4678730Y-1233222D01*
X4678730Y-1233222D02*
X4688254Y-1185603D01*
X4688254Y-1185603D02*
X4688254Y-1147508D01*
X4688254Y-1147508D02*
X4678730Y-1099889D01*
X4678730Y-1099889D02*
X4669206Y-1071318D01*
X4669206Y-1071318D02*
X4659683Y-1052270D01*
X4659683Y-1052270D02*
X4640635Y-1023698D01*
X4640635Y-1023698D02*
X4631111Y-1014175D01*
X-30559Y-1503981D02*
X-30559Y-1362559D01*
X-171981Y-1362559D01*
X-171981Y-1503981D01*
X-30559Y-1503981D01*
X236825Y-1325794D02*
X246349Y-1316270D01*
X246349Y-1316270D02*
X265397Y-1306746D01*
X265397Y-1306746D02*
X313016Y-1306746D01*
X313016Y-1306746D02*
X332063Y-1316270D01*
X332063Y-1316270D02*
X341587Y-1325794D01*
X341587Y-1325794D02*
X351111Y-1344841D01*
X351111Y-1344841D02*
X351111Y-1363889D01*
X351111Y-1363889D02*
X341587Y-1392460D01*
X341587Y-1392460D02*
X227301Y-1506746D01*
X227301Y-1506746D02*
X351111Y-1506746D01*
X436825Y-1487698D02*
X446349Y-1497222D01*
X446349Y-1497222D02*
X436825Y-1506746D01*
X436825Y-1506746D02*
X427301Y-1497222D01*
X427301Y-1497222D02*
X436825Y-1487698D01*
X436825Y-1487698D02*
X436825Y-1506746D01*
X513016Y-1306746D02*
X636825Y-1306746D01*
X636825Y-1306746D02*
X570159Y-1382937D01*
X570159Y-1382937D02*
X598730Y-1382937D01*
X598730Y-1382937D02*
X617778Y-1392460D01*
X617778Y-1392460D02*
X627301Y-1401984D01*
X627301Y-1401984D02*
X636825Y-1421032D01*
X636825Y-1421032D02*
X636825Y-1468651D01*
X636825Y-1468651D02*
X627301Y-1487698D01*
X627301Y-1487698D02*
X617778Y-1497222D01*
X617778Y-1497222D02*
X598730Y-1506746D01*
X598730Y-1506746D02*
X541587Y-1506746D01*
X541587Y-1506746D02*
X522539Y-1497222D01*
X522539Y-1497222D02*
X513016Y-1487698D01*
X760635Y-1306746D02*
X779682Y-1306746D01*
X779682Y-1306746D02*
X798730Y-1316270D01*
X798730Y-1316270D02*
X808254Y-1325794D01*
X808254Y-1325794D02*
X817778Y-1344841D01*
X817778Y-1344841D02*
X827301Y-1382937D01*
X827301Y-1382937D02*
X827301Y-1430556D01*
X827301Y-1430556D02*
X817778Y-1468651D01*
X817778Y-1468651D02*
X808254Y-1487698D01*
X808254Y-1487698D02*
X798730Y-1497222D01*
X798730Y-1497222D02*
X779682Y-1506746D01*
X779682Y-1506746D02*
X760635Y-1506746D01*
X760635Y-1506746D02*
X741587Y-1497222D01*
X741587Y-1497222D02*
X732063Y-1487698D01*
X732063Y-1487698D02*
X722539Y-1468651D01*
X722539Y-1468651D02*
X713016Y-1430556D01*
X713016Y-1430556D02*
X713016Y-1382937D01*
X713016Y-1382937D02*
X722539Y-1344841D01*
X722539Y-1344841D02*
X732063Y-1325794D01*
X732063Y-1325794D02*
X741587Y-1316270D01*
X741587Y-1316270D02*
X760635Y-1306746D01*
X951111Y-1306746D02*
X970159Y-1306746D01*
X970159Y-1306746D02*
X989206Y-1316270D01*
X989206Y-1316270D02*
X998730Y-1325794D01*
X998730Y-1325794D02*
X1008254Y-1344841D01*
X1008254Y-1344841D02*
X1017778Y-1382937D01*
X1017778Y-1382937D02*
X1017778Y-1430556D01*
X1017778Y-1430556D02*
X1008254Y-1468651D01*
X1008254Y-1468651D02*
X998730Y-1487698D01*
X998730Y-1487698D02*
X989206Y-1497222D01*
X989206Y-1497222D02*
X970159Y-1506746D01*
X970159Y-1506746D02*
X951111Y-1506746D01*
X951111Y-1506746D02*
X932063Y-1497222D01*
X932063Y-1497222D02*
X922539Y-1487698D01*
X922539Y-1487698D02*
X913016Y-1468651D01*
X913016Y-1468651D02*
X903492Y-1430556D01*
X903492Y-1430556D02*
X903492Y-1382937D01*
X903492Y-1382937D02*
X913016Y-1344841D01*
X913016Y-1344841D02*
X922539Y-1325794D01*
X922539Y-1325794D02*
X932063Y-1316270D01*
X932063Y-1316270D02*
X951111Y-1306746D01*
X1103492Y-1506746D02*
X1103492Y-1373413D01*
X1103492Y-1392460D02*
X1113016Y-1382937D01*
X1113016Y-1382937D02*
X1132063Y-1373413D01*
X1132063Y-1373413D02*
X1160635Y-1373413D01*
X1160635Y-1373413D02*
X1179682Y-1382937D01*
X1179682Y-1382937D02*
X1189206Y-1401984D01*
X1189206Y-1401984D02*
X1189206Y-1506746D01*
X1189206Y-1401984D02*
X1198730Y-1382937D01*
X1198730Y-1382937D02*
X1217778Y-1373413D01*
X1217778Y-1373413D02*
X1246349Y-1373413D01*
X1246349Y-1373413D02*
X1265397Y-1382937D01*
X1265397Y-1382937D02*
X1274921Y-1401984D01*
X1274921Y-1401984D02*
X1274921Y-1506746D01*
X1370159Y-1506746D02*
X1370159Y-1373413D01*
X1370159Y-1392460D02*
X1379682Y-1382937D01*
X1379682Y-1382937D02*
X1398730Y-1373413D01*
X1398730Y-1373413D02*
X1427301Y-1373413D01*
X1427301Y-1373413D02*
X1446349Y-1382937D01*
X1446349Y-1382937D02*
X1455873Y-1401984D01*
X1455873Y-1401984D02*
X1455873Y-1506746D01*
X1455873Y-1401984D02*
X1465397Y-1382937D01*
X1465397Y-1382937D02*
X1484444Y-1373413D01*
X1484444Y-1373413D02*
X1513016Y-1373413D01*
X1513016Y-1373413D02*
X1532063Y-1382937D01*
X1532063Y-1382937D02*
X1541587Y-1401984D01*
X1541587Y-1401984D02*
X1541587Y-1506746D01*
X1899682Y-1297222D02*
X1728254Y-1554365D01*
X2124444Y-1306746D02*
X2143492Y-1306746D01*
X2143492Y-1306746D02*
X2162540Y-1316270D01*
X2162540Y-1316270D02*
X2172063Y-1325794D01*
X2172063Y-1325794D02*
X2181587Y-1344841D01*
X2181587Y-1344841D02*
X2191111Y-1382937D01*
X2191111Y-1382937D02*
X2191111Y-1430556D01*
X2191111Y-1430556D02*
X2181587Y-1468651D01*
X2181587Y-1468651D02*
X2172063Y-1487698D01*
X2172063Y-1487698D02*
X2162540Y-1497222D01*
X2162540Y-1497222D02*
X2143492Y-1506746D01*
X2143492Y-1506746D02*
X2124444Y-1506746D01*
X2124444Y-1506746D02*
X2105397Y-1497222D01*
X2105397Y-1497222D02*
X2095873Y-1487698D01*
X2095873Y-1487698D02*
X2086349Y-1468651D01*
X2086349Y-1468651D02*
X2076825Y-1430556D01*
X2076825Y-1430556D02*
X2076825Y-1382937D01*
X2076825Y-1382937D02*
X2086349Y-1344841D01*
X2086349Y-1344841D02*
X2095873Y-1325794D01*
X2095873Y-1325794D02*
X2105397Y-1316270D01*
X2105397Y-1316270D02*
X2124444Y-1306746D01*
X2276825Y-1487698D02*
X2286349Y-1497222D01*
X2286349Y-1497222D02*
X2276825Y-1506746D01*
X2276825Y-1506746D02*
X2267302Y-1497222D01*
X2267302Y-1497222D02*
X2276825Y-1487698D01*
X2276825Y-1487698D02*
X2276825Y-1506746D01*
X2410159Y-1306746D02*
X2429206Y-1306746D01*
X2429206Y-1306746D02*
X2448254Y-1316270D01*
X2448254Y-1316270D02*
X2457778Y-1325794D01*
X2457778Y-1325794D02*
X2467302Y-1344841D01*
X2467302Y-1344841D02*
X2476825Y-1382937D01*
X2476825Y-1382937D02*
X2476825Y-1430556D01*
X2476825Y-1430556D02*
X2467302Y-1468651D01*
X2467302Y-1468651D02*
X2457778Y-1487698D01*
X2457778Y-1487698D02*
X2448254Y-1497222D01*
X2448254Y-1497222D02*
X2429206Y-1506746D01*
X2429206Y-1506746D02*
X2410159Y-1506746D01*
X2410159Y-1506746D02*
X2391111Y-1497222D01*
X2391111Y-1497222D02*
X2381587Y-1487698D01*
X2381587Y-1487698D02*
X2372063Y-1468651D01*
X2372063Y-1468651D02*
X2362540Y-1430556D01*
X2362540Y-1430556D02*
X2362540Y-1382937D01*
X2362540Y-1382937D02*
X2372063Y-1344841D01*
X2372063Y-1344841D02*
X2381587Y-1325794D01*
X2381587Y-1325794D02*
X2391111Y-1316270D01*
X2391111Y-1316270D02*
X2410159Y-1306746D01*
X2572063Y-1506746D02*
X2610159Y-1506746D01*
X2610159Y-1506746D02*
X2629206Y-1497222D01*
X2629206Y-1497222D02*
X2638730Y-1487698D01*
X2638730Y-1487698D02*
X2657778Y-1459127D01*
X2657778Y-1459127D02*
X2667302Y-1421032D01*
X2667302Y-1421032D02*
X2667302Y-1344841D01*
X2667302Y-1344841D02*
X2657778Y-1325794D01*
X2657778Y-1325794D02*
X2648254Y-1316270D01*
X2648254Y-1316270D02*
X2629206Y-1306746D01*
X2629206Y-1306746D02*
X2591111Y-1306746D01*
X2591111Y-1306746D02*
X2572063Y-1316270D01*
X2572063Y-1316270D02*
X2562540Y-1325794D01*
X2562540Y-1325794D02*
X2553016Y-1344841D01*
X2553016Y-1344841D02*
X2553016Y-1392460D01*
X2553016Y-1392460D02*
X2562540Y-1411508D01*
X2562540Y-1411508D02*
X2572063Y-1421032D01*
X2572063Y-1421032D02*
X2591111Y-1430556D01*
X2591111Y-1430556D02*
X2629206Y-1430556D01*
X2629206Y-1430556D02*
X2648254Y-1421032D01*
X2648254Y-1421032D02*
X2657778Y-1411508D01*
X2657778Y-1411508D02*
X2667302Y-1392460D01*
X2791111Y-1306746D02*
X2810159Y-1306746D01*
X2810159Y-1306746D02*
X2829206Y-1316270D01*
X2829206Y-1316270D02*
X2838730Y-1325794D01*
X2838730Y-1325794D02*
X2848254Y-1344841D01*
X2848254Y-1344841D02*
X2857778Y-1382937D01*
X2857778Y-1382937D02*
X2857778Y-1430556D01*
X2857778Y-1430556D02*
X2848254Y-1468651D01*
X2848254Y-1468651D02*
X2838730Y-1487698D01*
X2838730Y-1487698D02*
X2829206Y-1497222D01*
X2829206Y-1497222D02*
X2810159Y-1506746D01*
X2810159Y-1506746D02*
X2791111Y-1506746D01*
X2791111Y-1506746D02*
X2772063Y-1497222D01*
X2772063Y-1497222D02*
X2762540Y-1487698D01*
X2762540Y-1487698D02*
X2753016Y-1468651D01*
X2753016Y-1468651D02*
X2743492Y-1430556D01*
X2743492Y-1430556D02*
X2743492Y-1382937D01*
X2743492Y-1382937D02*
X2753016Y-1344841D01*
X2753016Y-1344841D02*
X2762540Y-1325794D01*
X2762540Y-1325794D02*
X2772063Y-1316270D01*
X2772063Y-1316270D02*
X2791111Y-1306746D01*
X3029206Y-1306746D02*
X2991111Y-1306746D01*
X2991111Y-1306746D02*
X2972063Y-1316270D01*
X2972063Y-1316270D02*
X2962540Y-1325794D01*
X2962540Y-1325794D02*
X2943492Y-1354365D01*
X2943492Y-1354365D02*
X2933968Y-1392460D01*
X2933968Y-1392460D02*
X2933968Y-1468651D01*
X2933968Y-1468651D02*
X2943492Y-1487698D01*
X2943492Y-1487698D02*
X2953016Y-1497222D01*
X2953016Y-1497222D02*
X2972063Y-1506746D01*
X2972063Y-1506746D02*
X3010159Y-1506746D01*
X3010159Y-1506746D02*
X3029206Y-1497222D01*
X3029206Y-1497222D02*
X3038730Y-1487698D01*
X3038730Y-1487698D02*
X3048254Y-1468651D01*
X3048254Y-1468651D02*
X3048254Y-1421032D01*
X3048254Y-1421032D02*
X3038730Y-1401984D01*
X3038730Y-1401984D02*
X3029206Y-1392460D01*
X3029206Y-1392460D02*
X3010159Y-1382937D01*
X3010159Y-1382937D02*
X2972063Y-1382937D01*
X2972063Y-1382937D02*
X2953016Y-1392460D01*
X2953016Y-1392460D02*
X2943492Y-1401984D01*
X2943492Y-1401984D02*
X2933968Y-1421032D01*
X3124444Y-1306746D02*
X3124444Y-1344841D01*
X3200635Y-1306746D02*
X3200635Y-1344841D01*
X3463492Y-1582937D02*
X3453968Y-1573413D01*
X3453968Y-1573413D02*
X3434921Y-1544841D01*
X3434921Y-1544841D02*
X3425397Y-1525794D01*
X3425397Y-1525794D02*
X3415873Y-1497222D01*
X3415873Y-1497222D02*
X3406349Y-1449603D01*
X3406349Y-1449603D02*
X3406349Y-1411508D01*
X3406349Y-1411508D02*
X3415873Y-1363889D01*
X3415873Y-1363889D02*
X3425397Y-1335318D01*
X3425397Y-1335318D02*
X3434921Y-1316270D01*
X3434921Y-1316270D02*
X3453968Y-1287699D01*
X3453968Y-1287699D02*
X3463492Y-1278175D01*
X3520635Y-1306746D02*
X3644444Y-1306746D01*
X3644444Y-1306746D02*
X3577778Y-1382937D01*
X3577778Y-1382937D02*
X3606349Y-1382937D01*
X3606349Y-1382937D02*
X3625397Y-1392460D01*
X3625397Y-1392460D02*
X3634921Y-1401984D01*
X3634921Y-1401984D02*
X3644444Y-1421032D01*
X3644444Y-1421032D02*
X3644444Y-1468651D01*
X3644444Y-1468651D02*
X3634921Y-1487698D01*
X3634921Y-1487698D02*
X3625397Y-1497222D01*
X3625397Y-1497222D02*
X3606349Y-1506746D01*
X3606349Y-1506746D02*
X3549206Y-1506746D01*
X3549206Y-1506746D02*
X3530159Y-1497222D01*
X3530159Y-1497222D02*
X3520635Y-1487698D01*
X3850159Y-1506746D02*
X3850159Y-1306746D01*
X3935873Y-1506746D02*
X3935873Y-1401984D01*
X3935873Y-1401984D02*
X3926349Y-1382937D01*
X3926349Y-1382937D02*
X3907302Y-1373413D01*
X3907302Y-1373413D02*
X3878730Y-1373413D01*
X3878730Y-1373413D02*
X3859682Y-1382937D01*
X3859682Y-1382937D02*
X3850159Y-1392460D01*
X4059682Y-1506746D02*
X4040635Y-1497222D01*
X4040635Y-1497222D02*
X4031111Y-1487698D01*
X4031111Y-1487698D02*
X4021587Y-1468651D01*
X4021587Y-1468651D02*
X4021587Y-1411508D01*
X4021587Y-1411508D02*
X4031111Y-1392460D01*
X4031111Y-1392460D02*
X4040635Y-1382937D01*
X4040635Y-1382937D02*
X4059682Y-1373413D01*
X4059682Y-1373413D02*
X4088254Y-1373413D01*
X4088254Y-1373413D02*
X4107302Y-1382937D01*
X4107302Y-1382937D02*
X4116825Y-1392460D01*
X4116825Y-1392460D02*
X4126349Y-1411508D01*
X4126349Y-1411508D02*
X4126349Y-1468651D01*
X4126349Y-1468651D02*
X4116825Y-1487698D01*
X4116825Y-1487698D02*
X4107302Y-1497222D01*
X4107302Y-1497222D02*
X4088254Y-1506746D01*
X4088254Y-1506746D02*
X4059682Y-1506746D01*
X4240635Y-1506746D02*
X4221587Y-1497222D01*
X4221587Y-1497222D02*
X4212064Y-1478175D01*
X4212064Y-1478175D02*
X4212064Y-1306746D01*
X4393016Y-1497222D02*
X4373968Y-1506746D01*
X4373968Y-1506746D02*
X4335873Y-1506746D01*
X4335873Y-1506746D02*
X4316825Y-1497222D01*
X4316825Y-1497222D02*
X4307302Y-1478175D01*
X4307302Y-1478175D02*
X4307302Y-1401984D01*
X4307302Y-1401984D02*
X4316825Y-1382937D01*
X4316825Y-1382937D02*
X4335873Y-1373413D01*
X4335873Y-1373413D02*
X4373968Y-1373413D01*
X4373968Y-1373413D02*
X4393016Y-1382937D01*
X4393016Y-1382937D02*
X4402540Y-1401984D01*
X4402540Y-1401984D02*
X4402540Y-1421032D01*
X4402540Y-1421032D02*
X4307302Y-1440079D01*
X4478730Y-1497222D02*
X4497778Y-1506746D01*
X4497778Y-1506746D02*
X4535873Y-1506746D01*
X4535873Y-1506746D02*
X4554921Y-1497222D01*
X4554921Y-1497222D02*
X4564445Y-1478175D01*
X4564445Y-1478175D02*
X4564445Y-1468651D01*
X4564445Y-1468651D02*
X4554921Y-1449603D01*
X4554921Y-1449603D02*
X4535873Y-1440079D01*
X4535873Y-1440079D02*
X4507302Y-1440079D01*
X4507302Y-1440079D02*
X4488254Y-1430556D01*
X4488254Y-1430556D02*
X4478730Y-1411508D01*
X4478730Y-1411508D02*
X4478730Y-1401984D01*
X4478730Y-1401984D02*
X4488254Y-1382937D01*
X4488254Y-1382937D02*
X4507302Y-1373413D01*
X4507302Y-1373413D02*
X4535873Y-1373413D01*
X4535873Y-1373413D02*
X4554921Y-1382937D01*
X4631111Y-1582937D02*
X4640635Y-1573413D01*
X4640635Y-1573413D02*
X4659683Y-1544841D01*
X4659683Y-1544841D02*
X4669206Y-1525794D01*
X4669206Y-1525794D02*
X4678730Y-1497222D01*
X4678730Y-1497222D02*
X4688254Y-1449603D01*
X4688254Y-1449603D02*
X4688254Y-1411508D01*
X4688254Y-1411508D02*
X4678730Y-1363889D01*
X4678730Y-1363889D02*
X4669206Y-1335318D01*
X4669206Y-1335318D02*
X4659683Y-1316270D01*
X4659683Y-1316270D02*
X4640635Y-1287699D01*
X4640635Y-1287699D02*
X4631111Y-1278175D01*
X-101270Y-1853270D02*
X-1270Y-1753270D01*
X-101270Y-1653270D01*
X-201270Y-1753270D01*
X-101270Y-1853270D01*
X236825Y-1645794D02*
X246349Y-1636270D01*
X246349Y-1636270D02*
X265397Y-1626746D01*
X265397Y-1626746D02*
X313016Y-1626746D01*
X313016Y-1626746D02*
X332063Y-1636270D01*
X332063Y-1636270D02*
X341587Y-1645794D01*
X341587Y-1645794D02*
X351111Y-1664841D01*
X351111Y-1664841D02*
X351111Y-1683889D01*
X351111Y-1683889D02*
X341587Y-1712460D01*
X341587Y-1712460D02*
X227301Y-1826746D01*
X227301Y-1826746D02*
X351111Y-1826746D01*
X436825Y-1807698D02*
X446349Y-1817222D01*
X446349Y-1817222D02*
X436825Y-1826746D01*
X436825Y-1826746D02*
X427301Y-1817222D01*
X427301Y-1817222D02*
X436825Y-1807698D01*
X436825Y-1807698D02*
X436825Y-1826746D01*
X617778Y-1693413D02*
X617778Y-1826746D01*
X570159Y-1617222D02*
X522539Y-1760079D01*
X522539Y-1760079D02*
X646349Y-1760079D01*
X760635Y-1626746D02*
X779682Y-1626746D01*
X779682Y-1626746D02*
X798730Y-1636270D01*
X798730Y-1636270D02*
X808254Y-1645794D01*
X808254Y-1645794D02*
X817778Y-1664841D01*
X817778Y-1664841D02*
X827301Y-1702937D01*
X827301Y-1702937D02*
X827301Y-1750556D01*
X827301Y-1750556D02*
X817778Y-1788651D01*
X817778Y-1788651D02*
X808254Y-1807698D01*
X808254Y-1807698D02*
X798730Y-1817222D01*
X798730Y-1817222D02*
X779682Y-1826746D01*
X779682Y-1826746D02*
X760635Y-1826746D01*
X760635Y-1826746D02*
X741587Y-1817222D01*
X741587Y-1817222D02*
X732063Y-1807698D01*
X732063Y-1807698D02*
X722539Y-1788651D01*
X722539Y-1788651D02*
X713016Y-1750556D01*
X713016Y-1750556D02*
X713016Y-1702937D01*
X713016Y-1702937D02*
X722539Y-1664841D01*
X722539Y-1664841D02*
X732063Y-1645794D01*
X732063Y-1645794D02*
X741587Y-1636270D01*
X741587Y-1636270D02*
X760635Y-1626746D01*
X951111Y-1626746D02*
X970159Y-1626746D01*
X970159Y-1626746D02*
X989206Y-1636270D01*
X989206Y-1636270D02*
X998730Y-1645794D01*
X998730Y-1645794D02*
X1008254Y-1664841D01*
X1008254Y-1664841D02*
X1017778Y-1702937D01*
X1017778Y-1702937D02*
X1017778Y-1750556D01*
X1017778Y-1750556D02*
X1008254Y-1788651D01*
X1008254Y-1788651D02*
X998730Y-1807698D01*
X998730Y-1807698D02*
X989206Y-1817222D01*
X989206Y-1817222D02*
X970159Y-1826746D01*
X970159Y-1826746D02*
X951111Y-1826746D01*
X951111Y-1826746D02*
X932063Y-1817222D01*
X932063Y-1817222D02*
X922539Y-1807698D01*
X922539Y-1807698D02*
X913016Y-1788651D01*
X913016Y-1788651D02*
X903492Y-1750556D01*
X903492Y-1750556D02*
X903492Y-1702937D01*
X903492Y-1702937D02*
X913016Y-1664841D01*
X913016Y-1664841D02*
X922539Y-1645794D01*
X922539Y-1645794D02*
X932063Y-1636270D01*
X932063Y-1636270D02*
X951111Y-1626746D01*
X1103492Y-1826746D02*
X1103492Y-1693413D01*
X1103492Y-1712460D02*
X1113016Y-1702937D01*
X1113016Y-1702937D02*
X1132063Y-1693413D01*
X1132063Y-1693413D02*
X1160635Y-1693413D01*
X1160635Y-1693413D02*
X1179682Y-1702937D01*
X1179682Y-1702937D02*
X1189206Y-1721984D01*
X1189206Y-1721984D02*
X1189206Y-1826746D01*
X1189206Y-1721984D02*
X1198730Y-1702937D01*
X1198730Y-1702937D02*
X1217778Y-1693413D01*
X1217778Y-1693413D02*
X1246349Y-1693413D01*
X1246349Y-1693413D02*
X1265397Y-1702937D01*
X1265397Y-1702937D02*
X1274921Y-1721984D01*
X1274921Y-1721984D02*
X1274921Y-1826746D01*
X1370159Y-1826746D02*
X1370159Y-1693413D01*
X1370159Y-1712460D02*
X1379682Y-1702937D01*
X1379682Y-1702937D02*
X1398730Y-1693413D01*
X1398730Y-1693413D02*
X1427301Y-1693413D01*
X1427301Y-1693413D02*
X1446349Y-1702937D01*
X1446349Y-1702937D02*
X1455873Y-1721984D01*
X1455873Y-1721984D02*
X1455873Y-1826746D01*
X1455873Y-1721984D02*
X1465397Y-1702937D01*
X1465397Y-1702937D02*
X1484444Y-1693413D01*
X1484444Y-1693413D02*
X1513016Y-1693413D01*
X1513016Y-1693413D02*
X1532063Y-1702937D01*
X1532063Y-1702937D02*
X1541587Y-1721984D01*
X1541587Y-1721984D02*
X1541587Y-1826746D01*
X1899682Y-1617222D02*
X1728254Y-1874365D01*
X2124444Y-1626746D02*
X2143492Y-1626746D01*
X2143492Y-1626746D02*
X2162540Y-1636270D01*
X2162540Y-1636270D02*
X2172063Y-1645794D01*
X2172063Y-1645794D02*
X2181587Y-1664841D01*
X2181587Y-1664841D02*
X2191111Y-1702937D01*
X2191111Y-1702937D02*
X2191111Y-1750556D01*
X2191111Y-1750556D02*
X2181587Y-1788651D01*
X2181587Y-1788651D02*
X2172063Y-1807698D01*
X2172063Y-1807698D02*
X2162540Y-1817222D01*
X2162540Y-1817222D02*
X2143492Y-1826746D01*
X2143492Y-1826746D02*
X2124444Y-1826746D01*
X2124444Y-1826746D02*
X2105397Y-1817222D01*
X2105397Y-1817222D02*
X2095873Y-1807698D01*
X2095873Y-1807698D02*
X2086349Y-1788651D01*
X2086349Y-1788651D02*
X2076825Y-1750556D01*
X2076825Y-1750556D02*
X2076825Y-1702937D01*
X2076825Y-1702937D02*
X2086349Y-1664841D01*
X2086349Y-1664841D02*
X2095873Y-1645794D01*
X2095873Y-1645794D02*
X2105397Y-1636270D01*
X2105397Y-1636270D02*
X2124444Y-1626746D01*
X2276825Y-1807698D02*
X2286349Y-1817222D01*
X2286349Y-1817222D02*
X2276825Y-1826746D01*
X2276825Y-1826746D02*
X2267302Y-1817222D01*
X2267302Y-1817222D02*
X2276825Y-1807698D01*
X2276825Y-1807698D02*
X2276825Y-1826746D01*
X2410159Y-1626746D02*
X2429206Y-1626746D01*
X2429206Y-1626746D02*
X2448254Y-1636270D01*
X2448254Y-1636270D02*
X2457778Y-1645794D01*
X2457778Y-1645794D02*
X2467302Y-1664841D01*
X2467302Y-1664841D02*
X2476825Y-1702937D01*
X2476825Y-1702937D02*
X2476825Y-1750556D01*
X2476825Y-1750556D02*
X2467302Y-1788651D01*
X2467302Y-1788651D02*
X2457778Y-1807698D01*
X2457778Y-1807698D02*
X2448254Y-1817222D01*
X2448254Y-1817222D02*
X2429206Y-1826746D01*
X2429206Y-1826746D02*
X2410159Y-1826746D01*
X2410159Y-1826746D02*
X2391111Y-1817222D01*
X2391111Y-1817222D02*
X2381587Y-1807698D01*
X2381587Y-1807698D02*
X2372063Y-1788651D01*
X2372063Y-1788651D02*
X2362540Y-1750556D01*
X2362540Y-1750556D02*
X2362540Y-1702937D01*
X2362540Y-1702937D02*
X2372063Y-1664841D01*
X2372063Y-1664841D02*
X2381587Y-1645794D01*
X2381587Y-1645794D02*
X2391111Y-1636270D01*
X2391111Y-1636270D02*
X2410159Y-1626746D01*
X2572063Y-1826746D02*
X2610159Y-1826746D01*
X2610159Y-1826746D02*
X2629206Y-1817222D01*
X2629206Y-1817222D02*
X2638730Y-1807698D01*
X2638730Y-1807698D02*
X2657778Y-1779127D01*
X2657778Y-1779127D02*
X2667302Y-1741032D01*
X2667302Y-1741032D02*
X2667302Y-1664841D01*
X2667302Y-1664841D02*
X2657778Y-1645794D01*
X2657778Y-1645794D02*
X2648254Y-1636270D01*
X2648254Y-1636270D02*
X2629206Y-1626746D01*
X2629206Y-1626746D02*
X2591111Y-1626746D01*
X2591111Y-1626746D02*
X2572063Y-1636270D01*
X2572063Y-1636270D02*
X2562540Y-1645794D01*
X2562540Y-1645794D02*
X2553016Y-1664841D01*
X2553016Y-1664841D02*
X2553016Y-1712460D01*
X2553016Y-1712460D02*
X2562540Y-1731508D01*
X2562540Y-1731508D02*
X2572063Y-1741032D01*
X2572063Y-1741032D02*
X2591111Y-1750556D01*
X2591111Y-1750556D02*
X2629206Y-1750556D01*
X2629206Y-1750556D02*
X2648254Y-1741032D01*
X2648254Y-1741032D02*
X2657778Y-1731508D01*
X2657778Y-1731508D02*
X2667302Y-1712460D01*
X2838730Y-1693413D02*
X2838730Y-1826746D01*
X2791111Y-1617222D02*
X2743492Y-1760079D01*
X2743492Y-1760079D02*
X2867301Y-1760079D01*
X3038730Y-1626746D02*
X2943492Y-1626746D01*
X2943492Y-1626746D02*
X2933968Y-1721984D01*
X2933968Y-1721984D02*
X2943492Y-1712460D01*
X2943492Y-1712460D02*
X2962540Y-1702937D01*
X2962540Y-1702937D02*
X3010159Y-1702937D01*
X3010159Y-1702937D02*
X3029206Y-1712460D01*
X3029206Y-1712460D02*
X3038730Y-1721984D01*
X3038730Y-1721984D02*
X3048254Y-1741032D01*
X3048254Y-1741032D02*
X3048254Y-1788651D01*
X3048254Y-1788651D02*
X3038730Y-1807698D01*
X3038730Y-1807698D02*
X3029206Y-1817222D01*
X3029206Y-1817222D02*
X3010159Y-1826746D01*
X3010159Y-1826746D02*
X2962540Y-1826746D01*
X2962540Y-1826746D02*
X2943492Y-1817222D01*
X2943492Y-1817222D02*
X2933968Y-1807698D01*
X3124444Y-1626746D02*
X3124444Y-1664841D01*
X3200635Y-1626746D02*
X3200635Y-1664841D01*
X3463492Y-1902937D02*
X3453968Y-1893413D01*
X3453968Y-1893413D02*
X3434921Y-1864841D01*
X3434921Y-1864841D02*
X3425397Y-1845794D01*
X3425397Y-1845794D02*
X3415873Y-1817222D01*
X3415873Y-1817222D02*
X3406349Y-1769603D01*
X3406349Y-1769603D02*
X3406349Y-1731508D01*
X3406349Y-1731508D02*
X3415873Y-1683889D01*
X3415873Y-1683889D02*
X3425397Y-1655318D01*
X3425397Y-1655318D02*
X3434921Y-1636270D01*
X3434921Y-1636270D02*
X3453968Y-1607698D01*
X3453968Y-1607698D02*
X3463492Y-1598175D01*
X3644444Y-1826746D02*
X3530159Y-1826746D01*
X3587301Y-1826746D02*
X3587301Y-1626746D01*
X3587301Y-1626746D02*
X3568254Y-1655318D01*
X3568254Y-1655318D02*
X3549206Y-1674365D01*
X3549206Y-1674365D02*
X3530159Y-1683889D01*
X3850159Y-1826746D02*
X3850159Y-1626746D01*
X3935873Y-1826746D02*
X3935873Y-1721984D01*
X3935873Y-1721984D02*
X3926349Y-1702937D01*
X3926349Y-1702937D02*
X3907302Y-1693413D01*
X3907302Y-1693413D02*
X3878730Y-1693413D01*
X3878730Y-1693413D02*
X3859682Y-1702937D01*
X3859682Y-1702937D02*
X3850159Y-1712460D01*
X4059682Y-1826746D02*
X4040635Y-1817222D01*
X4040635Y-1817222D02*
X4031111Y-1807698D01*
X4031111Y-1807698D02*
X4021587Y-1788651D01*
X4021587Y-1788651D02*
X4021587Y-1731508D01*
X4021587Y-1731508D02*
X4031111Y-1712460D01*
X4031111Y-1712460D02*
X4040635Y-1702937D01*
X4040635Y-1702937D02*
X4059682Y-1693413D01*
X4059682Y-1693413D02*
X4088254Y-1693413D01*
X4088254Y-1693413D02*
X4107302Y-1702937D01*
X4107302Y-1702937D02*
X4116825Y-1712460D01*
X4116825Y-1712460D02*
X4126349Y-1731508D01*
X4126349Y-1731508D02*
X4126349Y-1788651D01*
X4126349Y-1788651D02*
X4116825Y-1807698D01*
X4116825Y-1807698D02*
X4107302Y-1817222D01*
X4107302Y-1817222D02*
X4088254Y-1826746D01*
X4088254Y-1826746D02*
X4059682Y-1826746D01*
X4240635Y-1826746D02*
X4221587Y-1817222D01*
X4221587Y-1817222D02*
X4212064Y-1798175D01*
X4212064Y-1798175D02*
X4212064Y-1626746D01*
X4393016Y-1817222D02*
X4373968Y-1826746D01*
X4373968Y-1826746D02*
X4335873Y-1826746D01*
X4335873Y-1826746D02*
X4316825Y-1817222D01*
X4316825Y-1817222D02*
X4307302Y-1798175D01*
X4307302Y-1798175D02*
X4307302Y-1721984D01*
X4307302Y-1721984D02*
X4316825Y-1702937D01*
X4316825Y-1702937D02*
X4335873Y-1693413D01*
X4335873Y-1693413D02*
X4373968Y-1693413D01*
X4373968Y-1693413D02*
X4393016Y-1702937D01*
X4393016Y-1702937D02*
X4402540Y-1721984D01*
X4402540Y-1721984D02*
X4402540Y-1741032D01*
X4402540Y-1741032D02*
X4307302Y-1760079D01*
X4469206Y-1902937D02*
X4478730Y-1893413D01*
X4478730Y-1893413D02*
X4497778Y-1864841D01*
X4497778Y-1864841D02*
X4507302Y-1845794D01*
X4507302Y-1845794D02*
X4516825Y-1817222D01*
X4516825Y-1817222D02*
X4526349Y-1769603D01*
X4526349Y-1769603D02*
X4526349Y-1731508D01*
X4526349Y-1731508D02*
X4516825Y-1683889D01*
X4516825Y-1683889D02*
X4507302Y-1655318D01*
X4507302Y-1655318D02*
X4497778Y-1636270D01*
X4497778Y-1636270D02*
X4478730Y-1607698D01*
X4478730Y-1607698D02*
X4469206Y-1598175D01*
M02*
