M48
; DRILL file {KiCad (7.0.0)} date Mon Jun 17 13:36:30 2024
; FORMAT={-:-/ absolute / inch / decimal}
; #@! TF.CreationDate,2024-06-17T13:36:30-04:00
; #@! TF.GenerationSoftware,Kicad,Pcbnew,(7.0.0)
; #@! TF.FileFunction,MixedPlating,1,2
FMAT,2
INCH
; #@! TA.AperFunction,Plated,PTH,ViaDrill
T1C0.0157
; #@! TA.AperFunction,Plated,PTH,ComponentDrill
T2C0.0276
; #@! TA.AperFunction,Plated,PTH,ComponentDrill
T3C0.0394
; #@! TA.AperFunction,Plated,PTH,ComponentDrill
T4C0.0906
; #@! TA.AperFunction,Plated,PTH,ComponentDrill
T5C0.0945
%
G90
G05
T1
X0.135Y0.55
X0.144Y0.471
X0.2Y0.613
X0.265Y0.511
X0.39Y0.995
X0.505Y0.585
X0.5228Y0.2194
X0.5286Y0.6714
X0.57Y0.64
X0.59Y1.0669
X0.592Y0.825
X0.605Y0.678
X0.744Y0.924
X0.746Y0.87
X0.7467Y0.7453
X0.796Y1.111
T2
X0.3809Y0.7797
X0.3809Y0.7009
X0.3809Y0.6222
X0.3809Y0.5435
X0.3809Y0.4647
X0.44Y0.76
X0.44Y0.6616
X0.44Y0.5828
X0.44Y0.4844
T3
X0.4Y0.18
X0.4Y0.08
T4
X0.44Y0.8809
X0.44Y0.3635
X0.7472Y0.4725
T5
X0.7472Y1.2225
T0
M30
