%TF.GenerationSoftware,KiCad,Pcbnew,7.0.10*%
%TF.CreationDate,2024-06-17T16:45:55-04:00*%
%TF.ProjectId,MidInterface1.1.1,4d696449-6e74-4657-9266-616365312e31,rev?*%
%TF.SameCoordinates,PX772dc40PY4d83c00*%
%TF.FileFunction,Legend,Bot*%
%TF.FilePolarity,Positive*%
%FSLAX46Y46*%
G04 Gerber Fmt 4.6, Leading zero omitted, Abs format (unit mm)*
G04 Created by KiCad (PCBNEW 7.0.10) date 2024-06-17 16:45:55*
%MOMM*%
%LPD*%
G01*
G04 APERTURE LIST*
%ADD10C,0.150000*%
%ADD11C,0.254000*%
%ADD12C,0.120000*%
%ADD13C,0.200000*%
%ADD14C,0.100000*%
%TA.AperFunction,Profile*%
%ADD15C,0.025400*%
%TD*%
G04 APERTURE END LIST*
D10*
X7953333Y7403181D02*
X7953333Y6688896D01*
X7953333Y6688896D02*
X8000952Y6546039D01*
X8000952Y6546039D02*
X8096190Y6450800D01*
X8096190Y6450800D02*
X8239047Y6403181D01*
X8239047Y6403181D02*
X8334285Y6403181D01*
X7572380Y7403181D02*
X6953333Y7403181D01*
X6953333Y7403181D02*
X7286666Y7022229D01*
X7286666Y7022229D02*
X7143809Y7022229D01*
X7143809Y7022229D02*
X7048571Y6974610D01*
X7048571Y6974610D02*
X7000952Y6926991D01*
X7000952Y6926991D02*
X6953333Y6831753D01*
X6953333Y6831753D02*
X6953333Y6593658D01*
X6953333Y6593658D02*
X7000952Y6498420D01*
X7000952Y6498420D02*
X7048571Y6450800D01*
X7048571Y6450800D02*
X7143809Y6403181D01*
X7143809Y6403181D02*
X7429523Y6403181D01*
X7429523Y6403181D02*
X7524761Y6450800D01*
X7524761Y6450800D02*
X7572380Y6498420D01*
D11*
X11242318Y26940933D02*
X12149461Y26940933D01*
X12149461Y26940933D02*
X12330889Y27001410D01*
X12330889Y27001410D02*
X12451842Y27122362D01*
X12451842Y27122362D02*
X12512318Y27303791D01*
X12512318Y27303791D02*
X12512318Y27424743D01*
X11363270Y26396648D02*
X11302794Y26336172D01*
X11302794Y26336172D02*
X11242318Y26215219D01*
X11242318Y26215219D02*
X11242318Y25912838D01*
X11242318Y25912838D02*
X11302794Y25791886D01*
X11302794Y25791886D02*
X11363270Y25731410D01*
X11363270Y25731410D02*
X11484222Y25670933D01*
X11484222Y25670933D02*
X11605175Y25670933D01*
X11605175Y25670933D02*
X11786603Y25731410D01*
X11786603Y25731410D02*
X12512318Y26457124D01*
X12512318Y26457124D02*
X12512318Y25670933D01*
D10*
X6514819Y11803334D02*
X7229104Y11803334D01*
X7229104Y11803334D02*
X7371961Y11850953D01*
X7371961Y11850953D02*
X7467200Y11946191D01*
X7467200Y11946191D02*
X7514819Y12089048D01*
X7514819Y12089048D02*
X7514819Y12184286D01*
X6848152Y10898572D02*
X7514819Y10898572D01*
X6467200Y11136667D02*
X7181485Y11374762D01*
X7181485Y11374762D02*
X7181485Y10755715D01*
D12*
%TO.C,J3*%
X70000Y5902000D02*
X8700000Y5902000D01*
X70000Y3302000D02*
X8700000Y3302000D01*
X70000Y3183900D02*
X8700000Y3183900D01*
X70000Y3065805D02*
X8700000Y3065805D01*
X70000Y2947710D02*
X8700000Y2947710D01*
X70000Y2829615D02*
X8700000Y2829615D01*
X70000Y2711520D02*
X8700000Y2711520D01*
X70000Y2593425D02*
X8700000Y2593425D01*
X70000Y2475330D02*
X8700000Y2475330D01*
X70000Y2357235D02*
X8700000Y2357235D01*
X70000Y2239140D02*
X8700000Y2239140D01*
X70000Y2121045D02*
X8700000Y2121045D01*
X70000Y2002950D02*
X8700000Y2002950D01*
X70000Y1884855D02*
X8700000Y1884855D01*
X70000Y1766760D02*
X8700000Y1766760D01*
X70000Y1648665D02*
X8700000Y1648665D01*
X70000Y1530570D02*
X8700000Y1530570D01*
X70000Y1412475D02*
X8700000Y1412475D01*
X70000Y1294380D02*
X8700000Y1294380D01*
X70000Y1176285D02*
X8700000Y1176285D01*
X70000Y1058190D02*
X8700000Y1058190D01*
X70000Y940095D02*
X8700000Y940095D01*
X70000Y822000D02*
X8700000Y822000D01*
X70000Y702000D02*
X70000Y5902000D01*
X70000Y702000D02*
X8700000Y702000D01*
X8700000Y4932000D02*
X9110000Y4932000D01*
X8700000Y4212000D02*
X9110000Y4212000D01*
X8700000Y2392000D02*
X9050000Y2392000D01*
X8700000Y1672000D02*
X9050000Y1672000D01*
X8700000Y702000D02*
X8700000Y5902000D01*
X10160000Y702000D02*
X11270000Y702000D01*
X11270000Y702000D02*
X11270000Y2032000D01*
D13*
%TO.C,J2*%
X14036000Y22374000D02*
X14036000Y9254000D01*
X13176000Y22374000D02*
X14036000Y22374000D01*
X8316000Y22354000D02*
X9176000Y22374000D01*
D14*
X14576000Y19304000D02*
X14576000Y19304000D01*
X14476000Y19304000D02*
X14476000Y19304000D01*
D13*
X14036000Y9254000D02*
X13176000Y9254000D01*
X9176000Y9234000D02*
X8316000Y9234000D01*
X8316000Y9234000D02*
X8316000Y22354000D01*
D14*
X14476000Y19304000D02*
G75*
G03*
X14576000Y19304000I50000J0D01*
G01*
X14576000Y19304000D02*
G75*
G03*
X14476000Y19304000I-50000J0D01*
G01*
D12*
%TO.C,J4*%
X2365000Y7360000D02*
X4865000Y7360000D01*
X4865000Y7360000D02*
X4865000Y8410000D01*
X4865000Y8410000D02*
X5855000Y8410000D01*
X395000Y8530000D02*
X395000Y14410000D01*
X2365000Y15580000D02*
X4865000Y15580000D01*
X4865000Y15580000D02*
X4865000Y14530000D01*
%TD*%
D15*
X22352000Y10312400D02*
X17018000Y10312400D01*
X6350000Y16510000D02*
X0Y16510000D01*
X7721600Y32918400D02*
X22352000Y32918400D01*
X17018000Y10312400D02*
X13462000Y3302000D01*
X11176000Y762000D02*
X13462000Y3302000D01*
X6350000Y16510000D02*
X7721600Y32918400D01*
X0Y0D02*
X0Y16510000D01*
X22352000Y32918400D02*
X22352000Y10312400D01*
X11176000Y762000D02*
X0Y0D01*
M02*
