%TF.GenerationSoftware,KiCad,Pcbnew,7.0.10*%
%TF.CreationDate,2024-06-17T16:45:55-04:00*%
%TF.ProjectId,MidInterface1.1.1,4d696449-6e74-4657-9266-616365312e31,rev?*%
%TF.SameCoordinates,PX772dc40PY4d83c00*%
%TF.FileFunction,Soldermask,Top*%
%TF.FilePolarity,Negative*%
%FSLAX46Y46*%
G04 Gerber Fmt 4.6, Leading zero omitted, Abs format (unit mm)*
G04 Created by KiCad (PCBNEW 7.0.10) date 2024-06-17 16:45:55*
%MOMM*%
%LPD*%
G01*
G04 APERTURE LIST*
G04 Aperture macros list*
%AMRoundRect*
0 Rectangle with rounded corners*
0 $1 Rounding radius*
0 $2 $3 $4 $5 $6 $7 $8 $9 X,Y pos of 4 corners*
0 Add a 4 corners polygon primitive as box body*
4,1,4,$2,$3,$4,$5,$6,$7,$8,$9,$2,$3,0*
0 Add four circle primitives for the rounded corners*
1,1,$1+$1,$2,$3*
1,1,$1+$1,$4,$5*
1,1,$1+$1,$6,$7*
1,1,$1+$1,$8,$9*
0 Add four rect primitives between the rounded corners*
20,1,$1+$1,$2,$3,$4,$5,0*
20,1,$1+$1,$4,$5,$6,$7,0*
20,1,$1+$1,$6,$7,$8,$9,0*
20,1,$1+$1,$8,$9,$2,$3,0*%
G04 Aperture macros list end*
%ADD10C,2.600000*%
%ADD11C,3.000000*%
%ADD12R,2.500000X0.700000*%
%ADD13RoundRect,0.200000X0.275000X-0.200000X0.275000X0.200000X-0.275000X0.200000X-0.275000X-0.200000X0*%
%ADD14R,1.700000X1.700000*%
%ADD15O,1.700000X1.700000*%
%ADD16R,1.200000X1.200000*%
%ADD17C,1.200000*%
%ADD18C,3.450000*%
%TA.AperFunction,Profile*%
%ADD19C,0.025400*%
%TD*%
G04 APERTURE END LIST*
D10*
%TO.C,H2*%
X18978000Y12000400D03*
%TD*%
D11*
%TO.C,H1*%
X18978000Y31050400D03*
%TD*%
D12*
%TO.C,J1*%
X17128000Y15900400D03*
X17128000Y17150400D03*
X17128000Y18400400D03*
X17128000Y19650400D03*
X17128000Y20900400D03*
X17128000Y22150400D03*
X17128000Y23400400D03*
X17128000Y24650400D03*
X17128000Y25900400D03*
X17128000Y27150400D03*
X20828000Y15900400D03*
X20828000Y17150400D03*
X20828000Y18400400D03*
X20828000Y19650400D03*
X20828000Y20900400D03*
X20828000Y22150400D03*
X20828000Y23400400D03*
X20828000Y24650400D03*
X20828000Y25900400D03*
X20828000Y27150400D03*
%TD*%
D13*
%TO.C,R1*%
X12369800Y3340600D03*
X12369800Y4990600D03*
%TD*%
D14*
%TO.C,J3*%
X10160000Y2032000D03*
D15*
X10160000Y4572000D03*
%TD*%
D16*
%TO.C,J2*%
X11176000Y19304000D03*
D17*
X11176000Y16804000D03*
X11176000Y14804000D03*
X11176000Y12304000D03*
X9676000Y11804000D03*
X9676000Y13804000D03*
X9676000Y15804000D03*
X9676000Y17804000D03*
X9676000Y19804000D03*
D18*
X11176000Y22374000D03*
X11176000Y9234000D03*
%TD*%
D19*
X22352000Y10312400D02*
X17018000Y10312400D01*
X6350000Y16510000D02*
X0Y16510000D01*
X7721600Y32918400D02*
X22352000Y32918400D01*
X17018000Y10312400D02*
X13462000Y3302000D01*
X11176000Y762000D02*
X13462000Y3302000D01*
X6350000Y16510000D02*
X7721600Y32918400D01*
X0Y0D02*
X0Y16510000D01*
X22352000Y32918400D02*
X22352000Y10312400D01*
X11176000Y762000D02*
X0Y0D01*
M02*
