%TF.GenerationSoftware,KiCad,Pcbnew,7.0.10*%
%TF.CreationDate,2024-06-17T16:45:55-04:00*%
%TF.ProjectId,MidInterface1.1.1,4d696449-6e74-4657-9266-616365312e31,rev?*%
%TF.SameCoordinates,PX772dc40PY4d83c00*%
%TF.FileFunction,Legend,Top*%
%TF.FilePolarity,Positive*%
%FSLAX46Y46*%
G04 Gerber Fmt 4.6, Leading zero omitted, Abs format (unit mm)*
G04 Created by KiCad (PCBNEW 7.0.10) date 2024-06-17 16:45:55*
%MOMM*%
%LPD*%
G01*
G04 APERTURE LIST*
%ADD10C,0.254000*%
%ADD11C,0.150000*%
%ADD12C,0.100000*%
%ADD13C,0.200000*%
%ADD14C,0.120000*%
%TA.AperFunction,Profile*%
%ADD15C,0.025400*%
%TD*%
G04 APERTURE END LIST*
D10*
X14264918Y27770668D02*
X15172061Y27770668D01*
X15172061Y27770668D02*
X15353489Y27710191D01*
X15353489Y27710191D02*
X15474442Y27589239D01*
X15474442Y27589239D02*
X15534918Y27407810D01*
X15534918Y27407810D02*
X15534918Y27286858D01*
X15534918Y29040668D02*
X15534918Y28314953D01*
X15534918Y28677810D02*
X14264918Y28677810D01*
X14264918Y28677810D02*
X14446346Y28556858D01*
X14446346Y28556858D02*
X14567299Y28435906D01*
X14567299Y28435906D02*
X14627775Y28314953D01*
D11*
X11677667Y5860705D02*
X11411000Y6241658D01*
X11220524Y5860705D02*
X11220524Y6660705D01*
X11220524Y6660705D02*
X11525286Y6660705D01*
X11525286Y6660705D02*
X11601476Y6622610D01*
X11601476Y6622610D02*
X11639571Y6584515D01*
X11639571Y6584515D02*
X11677667Y6508324D01*
X11677667Y6508324D02*
X11677667Y6394039D01*
X11677667Y6394039D02*
X11639571Y6317848D01*
X11639571Y6317848D02*
X11601476Y6279753D01*
X11601476Y6279753D02*
X11525286Y6241658D01*
X11525286Y6241658D02*
X11220524Y6241658D01*
X12439571Y5860705D02*
X11982428Y5860705D01*
X12211000Y5860705D02*
X12211000Y6660705D01*
X12211000Y6660705D02*
X12134809Y6546420D01*
X12134809Y6546420D02*
X12058619Y6470229D01*
X12058619Y6470229D02*
X11982428Y6432134D01*
D12*
%TO.C,J1*%
X16528000Y29050400D02*
X21428000Y29050400D01*
X21428000Y14000400D02*
X16528000Y14000400D01*
D13*
X16078000Y15200400D02*
G75*
G03*
X15978000Y15200400I-50000J0D01*
G01*
X15978000Y15200400D02*
G75*
G03*
X16078000Y15200400I50000J0D01*
G01*
D14*
%TO.C,R1*%
X11847300Y3928342D02*
X11847300Y4402858D01*
X12892300Y3928342D02*
X12892300Y4402858D01*
%TD*%
D15*
X22352000Y10312400D02*
X17018000Y10312400D01*
X6350000Y16510000D02*
X0Y16510000D01*
X7721600Y32918400D02*
X22352000Y32918400D01*
X17018000Y10312400D02*
X13462000Y3302000D01*
X11176000Y762000D02*
X13462000Y3302000D01*
X6350000Y16510000D02*
X7721600Y32918400D01*
X0Y0D02*
X0Y16510000D01*
X22352000Y32918400D02*
X22352000Y10312400D01*
X11176000Y762000D02*
X0Y0D01*
M02*
