%TF.GenerationSoftware,KiCad,Pcbnew,(7.0.0)*%
%TF.CreationDate,2024-06-17T14:15:37-04:00*%
%TF.ProjectId,Connector Bit,436f6e6e-6563-4746-9f72-204269742e6b,rev?*%
%TF.SameCoordinates,PX5f5e100PY6de6c40*%
%TF.FileFunction,Copper,L2,Bot*%
%TF.FilePolarity,Positive*%
%FSLAX46Y46*%
G04 Gerber Fmt 4.6, Leading zero omitted, Abs format (unit mm)*
G04 Created by KiCad (PCBNEW (7.0.0)) date 2024-06-17 14:15:37*
%MOMM*%
%LPD*%
G01*
G04 APERTURE LIST*
%TA.AperFunction,ComponentPad*%
%ADD10C,0.965000*%
%TD*%
%TA.AperFunction,ComponentPad*%
%ADD11R,1.700000X1.700000*%
%TD*%
%TA.AperFunction,ComponentPad*%
%ADD12O,1.700000X1.700000*%
%TD*%
%TA.AperFunction,Conductor*%
%ADD13C,0.500000*%
%TD*%
%TA.AperFunction,Conductor*%
%ADD14C,0.700000*%
%TD*%
%TA.AperFunction,Profile*%
%ADD15C,0.025400*%
%TD*%
G04 APERTURE END LIST*
D10*
%TO.P,J1,1,1*%
%TO.N,+BATT*%
X17359000Y8820000D03*
%TO.P,J1,2,2*%
%TO.N,/SDA*%
X17359000Y7570000D03*
%TO.P,J1,3,3*%
%TO.N,/SCL*%
X17359000Y6320000D03*
%TO.P,J1,4,4*%
%TO.N,+5V*%
X16109000Y8820000D03*
%TO.P,J1,5,5*%
%TO.N,VBUS*%
X16109000Y7570000D03*
%TO.P,J1,6,6*%
%TO.N,GND*%
X16109000Y6320000D03*
%TD*%
D11*
%TO.P,ToPowerPack1,1,1*%
%TO.N,+BATT*%
X1218999Y13969999D03*
D12*
%TO.P,ToPowerPack1,2,2*%
%TO.N,/SDA*%
X1218999Y11429999D03*
%TO.P,ToPowerPack1,3,3*%
%TO.N,/SCL*%
X1218999Y8889999D03*
%TO.P,ToPowerPack1,4,4*%
%TO.N,+5V*%
X1218999Y6349999D03*
%TO.P,ToPowerPack1,5,5*%
%TO.N,VBUS*%
X1218999Y3809999D03*
%TO.P,ToPowerPack1,6,6*%
%TO.N,GND*%
X1218999Y1269999D03*
%TD*%
D13*
%TO.N,+BATT*%
X5299000Y9814000D02*
X5301000Y9816000D01*
X16727000Y9816000D02*
X17359000Y9184000D01*
X17359000Y9184000D02*
X17359000Y8816000D01*
X5301000Y9816000D02*
X16727000Y9816000D01*
X1219000Y13894000D02*
X5299000Y9814000D01*
%TO.N,+5V*%
X3761000Y8816000D02*
X16109000Y8816000D01*
X1219000Y6274000D02*
X3761000Y8816000D01*
%TO.N,VBUS*%
X5051000Y7566000D02*
X16109000Y7566000D01*
X1219000Y3734000D02*
X5051000Y7566000D01*
D14*
%TO.N,GND*%
X6341000Y6316000D02*
X16109000Y6316000D01*
X1219000Y1194000D02*
X6341000Y6316000D01*
%TD*%
D15*
X6350000Y15240000D02*
X6350000Y10795000D01*
X6350000Y10795000D02*
X19634000Y10795000D01*
X6350000Y0D02*
X6350000Y4445000D01*
X0Y15240000D02*
X0Y0D01*
X6350000Y4445000D02*
X19634000Y4445000D01*
X0Y15240000D02*
X6350000Y15240000D01*
X0Y0D02*
X6350000Y0D01*
X19634000Y10795000D02*
X19634000Y4445000D01*
M02*
