%TF.GenerationSoftware,KiCad,Pcbnew,(7.0.0)*%
%TF.CreationDate,2024-06-17T09:17:14-04:00*%
%TF.ProjectId,BRGRavionics2.4.1,42524752-6176-4696-9f6e-696373322e34,rev?*%
%TF.SameCoordinates,PX429d390PY9157080*%
%TF.FileFunction,Soldermask,Bot*%
%TF.FilePolarity,Negative*%
%FSLAX46Y46*%
G04 Gerber Fmt 4.6, Leading zero omitted, Abs format (unit mm)*
G04 Created by KiCad (PCBNEW (7.0.0)) date 2024-06-17 09:17:14*
%MOMM*%
%LPD*%
G01*
G04 APERTURE LIST*
G04 Aperture macros list*
%AMRoundRect*
0 Rectangle with rounded corners*
0 $1 Rounding radius*
0 $2 $3 $4 $5 $6 $7 $8 $9 X,Y pos of 4 corners*
0 Add a 4 corners polygon primitive as box body*
4,1,4,$2,$3,$4,$5,$6,$7,$8,$9,$2,$3,0*
0 Add four circle primitives for the rounded corners*
1,1,$1+$1,$2,$3*
1,1,$1+$1,$4,$5*
1,1,$1+$1,$6,$7*
1,1,$1+$1,$8,$9*
0 Add four rect primitives between the rounded corners*
20,1,$1+$1,$2,$3,$4,$5,0*
20,1,$1+$1,$4,$5,$6,$7,0*
20,1,$1+$1,$6,$7,$8,$9,0*
20,1,$1+$1,$8,$9,$2,$3,0*%
G04 Aperture macros list end*
%ADD10C,2.286000*%
%ADD11C,0.650000*%
%ADD12R,1.700000X1.700000*%
%ADD13O,1.700000X1.700000*%
%ADD14R,1.251000X1.251000*%
%ADD15C,1.251000*%
%ADD16R,2.420000X5.080000*%
%ADD17C,1.665000*%
%ADD18R,2.100000X2.100000*%
%ADD19C,2.100000*%
%ADD20RoundRect,0.200000X-0.275000X0.200000X-0.275000X-0.200000X0.275000X-0.200000X0.275000X0.200000X0*%
%ADD21RoundRect,0.225000X-0.225000X-0.250000X0.225000X-0.250000X0.225000X0.250000X-0.225000X0.250000X0*%
%ADD22RoundRect,0.225000X0.250000X-0.225000X0.250000X0.225000X-0.250000X0.225000X-0.250000X-0.225000X0*%
%ADD23RoundRect,0.225000X-0.250000X0.225000X-0.250000X-0.225000X0.250000X-0.225000X0.250000X0.225000X0*%
%ADD24RoundRect,0.150000X0.150000X0.700000X-0.150000X0.700000X-0.150000X-0.700000X0.150000X-0.700000X0*%
%ADD25RoundRect,0.250000X0.250000X1.100000X-0.250000X1.100000X-0.250000X-1.100000X0.250000X-1.100000X0*%
%ADD26C,1.900000*%
%ADD27C,1.016000*%
%ADD28RoundRect,0.225000X0.225000X0.250000X-0.225000X0.250000X-0.225000X-0.250000X0.225000X-0.250000X0*%
%ADD29RoundRect,0.200000X0.275000X-0.200000X0.275000X0.200000X-0.275000X0.200000X-0.275000X-0.200000X0*%
%ADD30RoundRect,0.150000X0.512500X0.150000X-0.512500X0.150000X-0.512500X-0.150000X0.512500X-0.150000X0*%
%ADD31RoundRect,0.250000X0.325000X1.100000X-0.325000X1.100000X-0.325000X-1.100000X0.325000X-1.100000X0*%
%ADD32R,0.325000X0.300000*%
%ADD33R,0.300000X0.325000*%
%ADD34RoundRect,0.150000X-0.625000X0.150000X-0.625000X-0.150000X0.625000X-0.150000X0.625000X0.150000X0*%
%ADD35RoundRect,0.250000X-0.650000X0.350000X-0.650000X-0.350000X0.650000X-0.350000X0.650000X0.350000X0*%
%ADD36R,1.475000X0.450000*%
%ADD37RoundRect,0.200000X0.200000X0.275000X-0.200000X0.275000X-0.200000X-0.275000X0.200000X-0.275000X0*%
%ADD38R,3.000000X3.000000*%
%ADD39R,0.300000X0.600000*%
%ADD40R,0.600000X0.300000*%
%ADD41R,1.525000X0.650000*%
%ADD42C,0.404000*%
%ADD43RoundRect,0.250000X-1.100000X0.325000X-1.100000X-0.325000X1.100000X-0.325000X1.100000X0.325000X0*%
%TA.AperFunction,Profile*%
%ADD44C,0.025400*%
%TD*%
%TA.AperFunction,Profile*%
%ADD45C,0.100000*%
%TD*%
G04 APERTURE END LIST*
D10*
%TO.C,H4*%
X58724800Y3175000D03*
%TD*%
%TO.C,H1*%
X7924800Y47625000D03*
%TD*%
D11*
%TO.C,J3*%
X62703500Y4349000D03*
X62703500Y10129000D03*
%TD*%
D12*
%TO.C,J4*%
X65531999Y49387999D03*
D13*
X65531999Y46847999D03*
X65531999Y44307999D03*
%TD*%
D14*
%TO.C,U3*%
X9651999Y46010999D03*
D15*
X12192000Y46011000D03*
X14732000Y46011000D03*
X14732000Y34761000D03*
X12192000Y34761000D03*
X9652000Y34761000D03*
%TD*%
D16*
%TO.C,J1*%
X28001999Y39184999D03*
X19241999Y39184999D03*
%TD*%
D10*
%TO.C,H2*%
X7924800Y3175000D03*
%TD*%
D17*
%TO.C,IC1*%
X7493000Y15621000D03*
X10033000Y15621000D03*
X12573000Y15621000D03*
X15113000Y15621000D03*
X17653000Y15621000D03*
X20193000Y15621000D03*
X22733000Y15621000D03*
X25273000Y15621000D03*
X27813000Y15621000D03*
X30353000Y15621000D03*
X32893000Y15621000D03*
X35433000Y15621000D03*
X35433000Y30861000D03*
X32893000Y30861000D03*
X30353000Y30861000D03*
X27813000Y30861000D03*
X25273000Y30861000D03*
X22733000Y30861000D03*
X20193000Y30861000D03*
X17653000Y30861000D03*
X15113000Y30861000D03*
X12573000Y30861000D03*
X10033000Y30861000D03*
X40513000Y15621000D03*
X43053000Y15621000D03*
X45593000Y15621000D03*
X48133000Y15621000D03*
X50673000Y15621000D03*
X53213000Y15621000D03*
X55753000Y15621000D03*
X58293000Y15621000D03*
X60833000Y15621000D03*
X60833000Y30861000D03*
X58293000Y30861000D03*
X55753000Y30861000D03*
X53213000Y30861000D03*
X50673000Y30861000D03*
X48133000Y30861000D03*
X45593000Y30861000D03*
X43053000Y30861000D03*
X40513000Y30861000D03*
X37973000Y15621000D03*
X7493000Y30861000D03*
X2413000Y30861000D03*
X4953000Y15621000D03*
X37973000Y30861000D03*
X4953000Y30861000D03*
X2413000Y15621000D03*
%TD*%
D18*
%TO.C,J2*%
X26923999Y3809999D03*
D19*
X24384000Y3810000D03*
%TD*%
D10*
%TO.C,H3*%
X58724800Y47625000D03*
%TD*%
D20*
%TO.C,R6*%
X25273000Y28257000D03*
X25273000Y26607000D03*
%TD*%
D21*
%TO.C,C16*%
X47485000Y18796000D03*
X49035000Y18796000D03*
%TD*%
D22*
%TO.C,C17*%
X47498000Y20561000D03*
X47498000Y22111000D03*
%TD*%
D21*
%TO.C,C32*%
X1638000Y42037000D03*
X3188000Y42037000D03*
%TD*%
D23*
%TO.C,C29*%
X10668000Y26556000D03*
X10668000Y25006000D03*
%TD*%
D24*
%TO.C,OSDCOMM1*%
X18746000Y5406000D03*
X17496000Y5406000D03*
X16246000Y5406000D03*
X14996000Y5406000D03*
X13746000Y5406000D03*
X12496000Y5406000D03*
D25*
X20596000Y2206000D03*
X10646000Y2206000D03*
%TD*%
D26*
%TO.C,J5*%
X88103000Y33025000D03*
X88103000Y17775000D03*
D27*
X84653000Y19775000D03*
X84653000Y21025000D03*
X84653000Y22275000D03*
X84653000Y23525000D03*
X84653000Y24775000D03*
X84653000Y26025000D03*
X84653000Y27275000D03*
X84653000Y28525000D03*
X84653000Y29775000D03*
X84653000Y31025000D03*
X85903000Y19775000D03*
X85903000Y21025000D03*
X85903000Y22275000D03*
X85903000Y23525000D03*
X85903000Y24775000D03*
X85903000Y26025000D03*
X85903000Y27275000D03*
X85903000Y28525000D03*
X85903000Y29775000D03*
X85903000Y31025000D03*
%TD*%
D20*
%TO.C,R10*%
X20193000Y28130000D03*
X20193000Y26480000D03*
%TD*%
D22*
%TO.C,C23*%
X26543000Y10528000D03*
X26543000Y12078000D03*
%TD*%
D28*
%TO.C,C31*%
X4439000Y1416000D03*
X2889000Y1416000D03*
%TD*%
D29*
%TO.C,R5*%
X26924000Y5652000D03*
X26924000Y7302000D03*
%TD*%
D30*
%TO.C,IC5*%
X5328500Y25715000D03*
X5328500Y24765000D03*
X5328500Y23815000D03*
X3053500Y23815000D03*
X3053500Y25715000D03*
%TD*%
D23*
%TO.C,C13*%
X76454000Y27953000D03*
X76454000Y26403000D03*
%TD*%
%TO.C,C20*%
X31496000Y19952000D03*
X31496000Y18402000D03*
%TD*%
D21*
%TO.C,C18*%
X37452000Y27051000D03*
X39002000Y27051000D03*
%TD*%
D31*
%TO.C,C26*%
X21541000Y8636000D03*
X18591000Y8636000D03*
%TD*%
D28*
%TO.C,C24*%
X26556000Y8890000D03*
X25006000Y8890000D03*
%TD*%
D23*
%TO.C,C22*%
X29464000Y19952000D03*
X29464000Y18402000D03*
%TD*%
D29*
%TO.C,R1*%
X69215000Y18860000D03*
X69215000Y20510000D03*
%TD*%
D32*
%TO.C,U7*%
X33920999Y26673999D03*
X33920999Y27173999D03*
D33*
X34170999Y27698999D03*
X34670999Y27698999D03*
X35170999Y27698999D03*
D32*
X35420999Y27173999D03*
X35420999Y26673999D03*
D33*
X35170999Y26148999D03*
X34670999Y26148999D03*
X34170999Y26148999D03*
%TD*%
D21*
%TO.C,C33*%
X2069800Y22301200D03*
X3619800Y22301200D03*
%TD*%
D20*
%TO.C,R9*%
X22733000Y28257000D03*
X22733000Y26607000D03*
%TD*%
D22*
%TO.C,C25*%
X24765000Y10528000D03*
X24765000Y12078000D03*
%TD*%
D20*
%TO.C,R4*%
X27813000Y28257000D03*
X27813000Y26607000D03*
%TD*%
D22*
%TO.C,C15*%
X49276000Y20561000D03*
X49276000Y22111000D03*
%TD*%
D34*
%TO.C,EXTRAI1*%
X4119000Y38584000D03*
X4119000Y37584000D03*
X4119000Y36584000D03*
X4119000Y35584000D03*
D35*
X1594000Y39884000D03*
X1594000Y34284000D03*
%TD*%
D36*
%TO.C,U6*%
X32003999Y4481999D03*
X32003999Y5131999D03*
X32003999Y5781999D03*
X32003999Y6431999D03*
X32003999Y7081999D03*
X32003999Y7731999D03*
X32003999Y8381999D03*
X37879999Y8381999D03*
X37879999Y7731999D03*
X37879999Y7081999D03*
X37879999Y6431999D03*
X37879999Y5781999D03*
X37879999Y5131999D03*
X37879999Y4481999D03*
%TD*%
D28*
%TO.C,C28*%
X12827000Y28194000D03*
X11277000Y28194000D03*
%TD*%
%TO.C,C21*%
X31255000Y21717000D03*
X29705000Y21717000D03*
%TD*%
D37*
%TO.C,R3*%
X63817000Y27559000D03*
X62167000Y27559000D03*
%TD*%
D20*
%TO.C,R2*%
X66548000Y16192000D03*
X66548000Y14542000D03*
%TD*%
D36*
%TO.C,IC3*%
X67673999Y23378999D03*
X67673999Y24028999D03*
X67673999Y24678999D03*
X67673999Y25328999D03*
X67673999Y25978999D03*
X67673999Y26628999D03*
X67673999Y27278999D03*
X67673999Y27928999D03*
X73549999Y27928999D03*
X73549999Y27278999D03*
X73549999Y26628999D03*
X73549999Y25978999D03*
D38*
X70611999Y25653999D03*
D36*
X73549999Y25328999D03*
X73549999Y24678999D03*
X73549999Y24028999D03*
X73549999Y23378999D03*
%TD*%
D21*
%TO.C,C19*%
X37452000Y25527000D03*
X39002000Y25527000D03*
%TD*%
D39*
%TO.C,U8*%
X35293999Y18595999D03*
X34793999Y18595999D03*
X34293999Y18595999D03*
X33793999Y18595999D03*
D40*
X33643999Y19245999D03*
X33643999Y19745999D03*
X33643999Y20245999D03*
D39*
X33793999Y20895999D03*
X34293999Y20895999D03*
X34793999Y20895999D03*
X35293999Y20895999D03*
D40*
X35443999Y20245999D03*
X35443999Y19745999D03*
X35443999Y19245999D03*
%TD*%
D23*
%TO.C,C34*%
X1473200Y5366000D03*
X1473200Y3816000D03*
%TD*%
D29*
%TO.C,R8*%
X24384000Y5652000D03*
X24384000Y7302000D03*
%TD*%
D41*
%TO.C,IC4*%
X61981799Y17805399D03*
X61981799Y19075399D03*
X61981799Y20345399D03*
X61981799Y21615399D03*
X67405799Y21615399D03*
X67405799Y20345399D03*
X67405799Y19075399D03*
X67405799Y17805399D03*
%TD*%
D39*
%TO.C,U5*%
X43953999Y21596999D03*
X44453999Y21596999D03*
X44953999Y21596999D03*
X45453999Y21596999D03*
D40*
X45603999Y20946999D03*
X45603999Y20446999D03*
X45603999Y19946999D03*
D39*
X45453999Y19296999D03*
X44953999Y19296999D03*
X44453999Y19296999D03*
X43953999Y19296999D03*
D40*
X43803999Y19946999D03*
X43803999Y20446999D03*
X43803999Y20946999D03*
%TD*%
D37*
%TO.C,R7*%
X24599400Y33985200D03*
X22949400Y33985200D03*
%TD*%
D28*
%TO.C,C27*%
X20333000Y33934400D03*
X18783000Y33934400D03*
%TD*%
D22*
%TO.C,C11*%
X79756000Y26403000D03*
X79756000Y27953000D03*
%TD*%
D42*
%TO.C,U10*%
X4337000Y3664000D03*
X4337000Y4064000D03*
X4337000Y4464000D03*
X3937000Y3664000D03*
X3937000Y4064000D03*
X3937000Y4464000D03*
X3537000Y3664000D03*
X3537000Y4064000D03*
X3537000Y4464000D03*
%TD*%
D33*
%TO.C,U9*%
X12830999Y26530999D03*
X13330999Y26530999D03*
D32*
X13855999Y26280999D03*
X13855999Y25780999D03*
X13855999Y25280999D03*
D33*
X13330999Y25030999D03*
X12830999Y25030999D03*
D32*
X12305999Y25280999D03*
X12305999Y25780999D03*
X12305999Y26280999D03*
%TD*%
D43*
%TO.C,C14*%
X61849000Y46179000D03*
X61849000Y43229000D03*
%TD*%
D23*
%TO.C,C12*%
X78232000Y27953000D03*
X78232000Y26403000D03*
%TD*%
D28*
%TO.C,C30*%
X4439000Y7131000D03*
X2889000Y7131000D03*
%TD*%
D44*
X17145000Y50800000D02*
X0Y50800000D01*
X29845000Y41910000D02*
X29845000Y50800000D01*
D45*
X67310000Y34290000D02*
X67310000Y50800000D01*
D44*
X17145000Y41910000D02*
X17145000Y50800000D01*
X0Y0D02*
X67310000Y0D01*
X91059000Y16510000D02*
X91059000Y34290000D01*
D45*
X67310000Y16510000D02*
X67310000Y0D01*
X91059000Y34290000D02*
X67310000Y34290000D01*
D44*
X29845000Y50800000D02*
X67310000Y50800000D01*
X0Y50800000D02*
X0Y0D01*
D45*
X91059000Y16510000D02*
X67310000Y16510000D01*
D44*
X17145000Y41910000D02*
X29845000Y41910000D01*
M02*
