M48
; DRILL file {KiCad (7.0.0)} date Mon Jun 17 09:17:18 2024
; FORMAT={-:-/ absolute / inch / decimal}
; #@! TF.CreationDate,2024-06-17T09:17:18-04:00
; #@! TF.GenerationSoftware,Kicad,Pcbnew,(7.0.0)
; #@! TF.FileFunction,MixedPlating,1,2
FMAT,2
INCH
; #@! TA.AperFunction,Plated,PTH,ViaDrill
T1C0.0140
; #@! TA.AperFunction,Plated,PTH,ComponentDrill
T2C0.0181
; #@! TA.AperFunction,Plated,PTH,ComponentDrill
T3C0.0236
; #@! TA.AperFunction,Plated,PTH,ComponentDrill
T4C0.0287
; #@! TA.AperFunction,Plated,PTH,ComponentDrill
T5C0.0394
; #@! TA.AperFunction,Plated,PTH,ComponentDrill
T6C0.0433
; #@! TA.AperFunction,Plated,PTH,ComponentDrill
T7C0.0437
; #@! TA.AperFunction,NonPlated,NPTH,ComponentDrill
T8C0.0256
; #@! TA.AperFunction,NonPlated,NPTH,ComponentDrill
T9C0.0748
; #@! TA.AperFunction,NonPlated,NPTH,ComponentDrill
T10C0.0900
%
G90
G05
T1
X0.048Y1.954
X0.051Y1.764
X0.052Y0.282
X0.0645Y1.6155
X0.0901Y1.49
X0.095Y1.3
X0.105Y1.405
X0.114Y0.347
X0.143Y0.817
X0.145Y1.6
X0.155Y1.715
X0.155Y0.11
X0.165Y1.325
X0.18Y1.665
X0.195Y1.785
X0.235Y0.297
X0.24Y0.056
X0.241Y1.961
X0.255Y1.37
X0.264Y0.2473
X0.274Y0.974
X0.285Y0.8
X0.305Y1.61
X0.384Y1.11
X0.408Y1.97
X0.515Y1.015
X0.515Y0.073
X0.535Y1.69
X0.54Y1.555
X0.55Y0.81
X0.58Y1.045
X0.605Y1.02
X0.6502Y1.0298
X0.715Y1.06
X0.719Y0.073
X0.775Y0.315
X0.795Y0.355
X0.82Y0.795
X0.84Y1.315
X0.85Y1.585
X0.85Y1.535
X0.85Y1.48
X0.895Y1.1447
X0.917Y0.475
X1.005Y1.59
X1.005Y1.545
X1.005Y1.48
X1.025Y1.1447
X1.03Y0.795
X1.107Y0.476
X1.12Y1.1447
X1.15Y1.27
X1.26Y0.405
X1.261Y0.115
X1.31Y1.115
X1.335Y1.525
X1.335Y1.475
X1.36Y0.78
X1.365Y1.155
X1.365Y0.93
X1.37Y1.8
X1.425Y1.045
X1.435Y0.805
X1.435Y0.75
X1.45Y0.885
X1.463Y0.091
X1.495Y0.44
X1.514Y0.369
X1.59Y0.815
X1.685Y0.735
X1.69Y0.885
X1.76Y0.815
X1.77Y0.9095
X1.82Y1.86
X1.835Y0.765
X1.85Y0.685
X1.955Y1.68
X1.995Y1.68
X2.01Y1.045
X2.2Y1.04
X2.3332Y1.7468
X2.335Y0.345
X2.365Y1.57
X2.3722Y0.7948
X2.38Y1.375
X2.485Y0.575
X2.54Y1.455
X2.54Y0.205
X2.548Y0.906
X2.56Y1.04
X2.605Y0.335
X2.672Y1.3
X2.685Y1.225
X2.74Y1.105
X2.8316Y1.1016
X2.84Y0.89
X2.885Y1.2
X2.955Y1.103
X2.955Y1.045
X3.026Y1.304
X3.1893Y1.045
X3.2Y1.23
X3.25Y0.89
X3.5Y1.155
X3.505Y0.87
T2
X0.7576Y1.4073
X1.1024Y1.4073
T3
X3.3328Y1.2215
X3.3328Y1.1722
X3.3328Y1.123
X3.3328Y1.0738
X3.3328Y1.0246
X3.3328Y0.9754
X3.3328Y0.9262
X3.3328Y0.877
X3.3328Y0.8278
X3.3328Y0.7785
X3.382Y1.2215
X3.382Y1.1722
X3.382Y1.123
X3.382Y1.0738
X3.382Y1.0246
X3.382Y0.9754
X3.382Y0.9262
X3.382Y0.877
X3.382Y0.8278
X3.382Y0.7785
T4
X0.38Y1.8115
X0.38Y1.3685
X0.48Y1.8115
X0.48Y1.3685
X0.58Y1.8115
X0.58Y1.3685
T5
X2.58Y1.9444
X2.58Y1.8444
X2.58Y1.7444
T6
X0.96Y0.15
X1.06Y0.15
T7
X0.095Y1.215
X0.095Y0.615
X0.195Y1.215
X0.195Y0.615
X0.295Y1.215
X0.295Y0.615
X0.395Y1.215
X0.395Y0.615
X0.495Y1.215
X0.495Y0.615
X0.595Y1.215
X0.595Y0.615
X0.695Y1.215
X0.695Y0.615
X0.795Y1.215
X0.795Y0.615
X0.895Y1.215
X0.895Y0.615
X0.995Y1.215
X0.995Y0.615
X1.095Y1.215
X1.095Y0.615
X1.195Y1.215
X1.195Y0.615
X1.295Y1.215
X1.295Y0.615
X1.395Y1.215
X1.395Y0.615
X1.495Y1.215
X1.495Y0.615
X1.595Y1.215
X1.595Y0.615
X1.695Y1.215
X1.695Y0.615
X1.795Y1.215
X1.795Y0.615
X1.895Y1.215
X1.895Y0.615
X1.995Y1.215
X1.995Y0.615
X2.095Y1.215
X2.095Y0.615
X2.195Y1.215
X2.195Y0.615
X2.295Y1.215
X2.295Y0.615
X2.395Y1.215
X2.395Y0.615
T8
X2.4686Y0.3988
X2.4686Y0.1712
T9
X3.4686Y1.3002
X3.4686Y0.6998
T10
X0.312Y1.875
X0.312Y0.125
X2.312Y1.875
X2.312Y0.125
T0
M30
